<ttFont>
    <TTGlyph name=".notdef" xMin="84" yMin="-220" xMax="600" yMax="1030">
      <contour>
        <pt x="84" y="1030" on="1"/>
        <pt x="600" y="1030" on="1"/>
        <pt x="600" y="-220" on="1"/>
        <pt x="84" y="-220" on="1"/>
      </contour>
      <contour>
        <pt x="513" y="-138" on="1"/>
        <pt x="513" y="949" on="1"/>
        <pt x="171" y="949" on="1"/>
        <pt x="171" y="-138" on="1"/>
      </contour>
    </TTGlyph>
    <TTGlyph name="A" xMin="5" yMin="0" xMax="607" yMax="740">
      <contour>
        <pt x="5" y="7" on="1"/>
        <pt x="230" y="740" on="1"/>
        <pt x="382" y="740" on="1"/>
        <pt x="607" y="7" on="1"/>
        <pt x="607" y="0" on="1"/>
        <pt x="509" y="0" on="1"/>
        <pt x="442" y="212" on="1"/>
        <pt x="169" y="212" on="1"/>
        <pt x="103" y="0" on="1"/>
        <pt x="5" y="0" on="1"/>
      </contour>
      <contour>
        <pt x="420" y="297" on="1"/>
        <pt x="344" y="540" on="1"/>
        <pt x="310" y="658" on="1"/>
        <pt x="301" y="658" on="1"/>
        <pt x="267" y="540" on="1"/>
        <pt x="192" y="297" on="1"/>
      </contour>
    </TTGlyph>
    <TTGlyph name="A.sc" xMin="9" yMin="0" xMax="548" yMax="577">
      <contour>
        <pt x="9" y="6" on="1"/>
        <pt x="206" y="577" on="1"/>
        <pt x="351" y="577" on="1"/>
        <pt x="548" y="6" on="1"/>
        <pt x="548" y="0" on="1"/>
        <pt x="454" y="0" on="1"/>
        <pt x="399" y="154" on="1"/>
        <pt x="158" y="154" on="1"/>
        <pt x="103" y="0" on="1"/>
        <pt x="9" y="0" on="1"/>
      </contour>
      <contour>
        <pt x="379" y="224" on="1"/>
        <pt x="312" y="414" on="1"/>
        <pt x="283" y="503" on="1"/>
        <pt x="274" y="503" on="1"/>
        <pt x="245" y="414" on="1"/>
        <pt x="177" y="224" on="1"/>
      </contour>
    </TTGlyph>
    <TTGlyph name="AE" xMin="3" yMin="0" xMax="781" yMax="740">
      <contour>
        <pt x="3" y="7" on="1"/>
        <pt x="258" y="740" on="1"/>
        <pt x="771" y="740" on="1"/>
        <pt x="771" y="653" on="1"/>
        <pt x="478" y="653" on="1"/>
        <pt x="490" y="417" on="1"/>
        <pt x="748" y="417" on="1"/>
        <pt x="748" y="330" on="1"/>
        <pt x="495" y="330" on="1"/>
        <pt x="508" y="87" on="1"/>
        <pt x="781" y="87" on="1"/>
        <pt x="781" y="0" on="1"/>
        <pt x="407" y="0" on="1"/>
        <pt x="398" y="210" on="1"/>
        <pt x="179" y="210" on="1"/>
        <pt x="106" y="0" on="1"/>
        <pt x="3" y="0" on="1"/>
      </contour>
      <contour>
        <pt x="210" y="299" on="1"/>
        <pt x="395" y="299" on="1"/>
        <pt x="380" y="659" on="1"/>
        <pt x="335" y="659" on="1"/>
      </contour>
    </TTGlyph>
    <TTGlyph name="AE.sc" xMin="10" yMin="0" xMax="704" yMax="577">
      <contour>
        <pt x="10" y="6" on="1"/>
        <pt x="235" y="577" on="1"/>
        <pt x="696" y="577" on="1"/>
        <pt x="696" y="498" on="1"/>
        <pt x="439" y="498" on="1"/>
        <pt x="448" y="329" on="1"/>
        <pt x="676" y="329" on="1"/>
        <pt x="676" y="254" on="1"/>
        <pt x="455" y="254" on="1"/>
        <pt x="465" y="80" on="1"/>
        <pt x="704" y="80" on="1"/>
        <pt x="704" y="0" on="1"/>
        <pt x="369" y="0" on="1"/>
        <pt x="362" y="154" on="1"/>
        <pt x="169" y="154" on="1"/>
        <pt x="108" y="0" on="1"/>
        <pt x="10" y="0" on="1"/>
      </contour>
      <contour>
        <pt x="197" y="227" on="1"/>
        <pt x="358" y="227" on="1"/>
        <pt x="346" y="502" on="1"/>
        <pt x="308" y="502" on="1"/>
      </contour>
    </TTGlyph>
    <TTGlyph name="AEacute" xMin="3" yMin="0" xMax="781" yMax="946">
      <contour>
        <pt x="439" y="797" on="1"/>
        <pt x="511" y="946" on="1"/>
        <pt x="616" y="946" on="1"/>
        <pt x="515" y="791" on="1"/>
      </contour>
      <contour>
        <pt x="3" y="7" on="1"/>
        <pt x="258" y="740" on="1"/>
        <pt x="771" y="740" on="1"/>
        <pt x="771" y="653" on="1"/>
        <pt x="478" y="653" on="1"/>
        <pt x="490" y="417" on="1"/>
        <pt x="748" y="417" on="1"/>
        <pt x="748" y="330" on="1"/>
        <pt x="495" y="330" on="1"/>
        <pt x="508" y="87" on="1"/>
        <pt x="781" y="87" on="1"/>
        <pt x="781" y="0" on="1"/>
        <pt x="407" y="0" on="1"/>
        <pt x="398" y="210" on="1"/>
        <pt x="179" y="210" on="1"/>
        <pt x="106" y="0" on="1"/>
        <pt x="3" y="0" on="1"/>
      </contour>
      <contour>
        <pt x="210" y="299" on="1"/>
        <pt x="395" y="299" on="1"/>
        <pt x="380" y="659" on="1"/>
        <pt x="335" y="659" on="1"/>
      </contour>
    </TTGlyph>
    <TTGlyph name="AEacute.sc" xMin="10" yMin="0" xMax="704" yMax="747">
      <contour>
        <pt x="10" y="6" on="1"/>
        <pt x="235" y="577" on="1"/>
        <pt x="696" y="577" on="1"/>
        <pt x="696" y="498" on="1"/>
        <pt x="439" y="498" on="1"/>
        <pt x="448" y="329" on="1"/>
        <pt x="676" y="329" on="1"/>
        <pt x="676" y="254" on="1"/>
        <pt x="455" y="254" on="1"/>
        <pt x="465" y="80" on="1"/>
        <pt x="704" y="80" on="1"/>
        <pt x="704" y="0" on="1"/>
        <pt x="369" y="0" on="1"/>
        <pt x="362" y="154" on="1"/>
        <pt x="169" y="154" on="1"/>
        <pt x="108" y="0" on="1"/>
        <pt x="10" y="0" on="1"/>
      </contour>
      <contour>
        <pt x="358" y="227" on="1"/>
        <pt x="346" y="502" on="1"/>
        <pt x="308" y="502" on="1"/>
        <pt x="197" y="227" on="1"/>
      </contour>
      <contour>
        <pt x="393" y="624" on="1"/>
        <pt x="456" y="747" on="1"/>
        <pt x="556" y="747" on="1"/>
        <pt x="465" y="619" on="1"/>
      </contour>
    </TTGlyph>
    <TTGlyph name="Aacute" xMin="5" yMin="0" xMax="607" yMax="946">
      <contour>
        <pt x="5" y="7" on="1"/>
        <pt x="230" y="740" on="1"/>
        <pt x="382" y="740" on="1"/>
        <pt x="607" y="7" on="1"/>
        <pt x="607" y="0" on="1"/>
        <pt x="509" y="0" on="1"/>
        <pt x="442" y="212" on="1"/>
        <pt x="169" y="212" on="1"/>
        <pt x="103" y="0" on="1"/>
        <pt x="5" y="0" on="1"/>
      </contour>
      <contour>
        <pt x="420" y="297" on="1"/>
        <pt x="344" y="540" on="1"/>
        <pt x="310" y="658" on="1"/>
        <pt x="301" y="658" on="1"/>
        <pt x="267" y="540" on="1"/>
        <pt x="192" y="297" on="1"/>
      </contour>
      <contour>
        <pt x="263" y="797" on="1"/>
        <pt x="335" y="946" on="1"/>
        <pt x="440" y="946" on="1"/>
        <pt x="339" y="791" on="1"/>
      </contour>
    </TTGlyph>
    <TTGlyph name="Aacute.sc" xMin="9" yMin="0" xMax="548" yMax="747">
      <contour>
        <pt x="9" y="6" on="1"/>
        <pt x="206" y="577" on="1"/>
        <pt x="351" y="577" on="1"/>
        <pt x="548" y="6" on="1"/>
        <pt x="548" y="0" on="1"/>
        <pt x="454" y="0" on="1"/>
        <pt x="399" y="154" on="1"/>
        <pt x="158" y="154" on="1"/>
        <pt x="103" y="0" on="1"/>
        <pt x="9" y="0" on="1"/>
      </contour>
      <contour>
        <pt x="379" y="225" on="1"/>
        <pt x="312" y="414" on="1"/>
        <pt x="283" y="503" on="1"/>
        <pt x="274" y="503" on="1"/>
        <pt x="245" y="414" on="1"/>
        <pt x="177" y="225" on="1"/>
      </contour>
      <contour>
        <pt x="238" y="624" on="1"/>
        <pt x="301" y="747" on="1"/>
        <pt x="401" y="747" on="1"/>
        <pt x="311" y="619" on="1"/>
      </contour>
    </TTGlyph>
    <TTGlyph name="Abreve" xMin="5" yMin="0" xMax="607" yMax="962">
      <contour>
        <pt x="5" y="7" on="1"/>
        <pt x="230" y="740" on="1"/>
        <pt x="382" y="740" on="1"/>
        <pt x="607" y="7" on="1"/>
        <pt x="607" y="0" on="1"/>
        <pt x="509" y="0" on="1"/>
        <pt x="442" y="212" on="1"/>
        <pt x="169" y="212" on="1"/>
        <pt x="103" y="0" on="1"/>
        <pt x="5" y="0" on="1"/>
      </contour>
      <contour>
        <pt x="420" y="297" on="1"/>
        <pt x="344" y="540" on="1"/>
        <pt x="310" y="658" on="1"/>
        <pt x="301" y="658" on="1"/>
        <pt x="267" y="540" on="1"/>
        <pt x="192" y="297" on="1"/>
      </contour>
      <contour>
        <pt x="308" y="808" on="1"/>
        <pt x="224" y="808" on="0"/>
        <pt x="139" y="890" on="0"/>
        <pt x="139" y="962" on="1"/>
        <pt x="213" y="962" on="1"/>
        <pt x="213" y="865" on="0"/>
        <pt x="308" y="865" on="1"/>
        <pt x="402" y="865" on="0"/>
        <pt x="402" y="962" on="1"/>
        <pt x="476" y="962" on="1"/>
        <pt x="476" y="891" on="0"/>
        <pt x="390" y="808" on="0"/>
      </contour>
    </TTGlyph>
    <TTGlyph name="Abreve.sc" xMin="9" yMin="0" xMax="548" yMax="755">
      <contour>
        <pt x="279" y="628" on="1"/>
        <pt x="204" y="628" on="0"/>
        <pt x="127" y="697" on="0"/>
        <pt x="127" y="755" on="1"/>
        <pt x="197" y="755" on="1"/>
        <pt x="197" y="679" on="0"/>
        <pt x="279" y="679" on="1"/>
        <pt x="362" y="679" on="0"/>
        <pt x="362" y="755" on="1"/>
        <pt x="431" y="755" on="1"/>
        <pt x="431" y="697" on="0"/>
        <pt x="355" y="628" on="0"/>
      </contour>
      <contour>
        <pt x="9" y="6" on="1"/>
        <pt x="206" y="577" on="1"/>
        <pt x="351" y="577" on="1"/>
        <pt x="548" y="6" on="1"/>
        <pt x="548" y="0" on="1"/>
        <pt x="454" y="0" on="1"/>
        <pt x="399" y="154" on="1"/>
        <pt x="158" y="154" on="1"/>
        <pt x="103" y="0" on="1"/>
        <pt x="9" y="0" on="1"/>
      </contour>
      <contour>
        <pt x="379" y="225" on="1"/>
        <pt x="312" y="414" on="1"/>
        <pt x="283" y="503" on="1"/>
        <pt x="274" y="503" on="1"/>
        <pt x="245" y="414" on="1"/>
        <pt x="177" y="225" on="1"/>
      </contour>
    </TTGlyph>
    <TTGlyph name="Acircumflex" xMin="5" yMin="0" xMax="607" yMax="957">
      <contour>
        <pt x="5" y="7" on="1"/>
        <pt x="230" y="740" on="1"/>
        <pt x="382" y="740" on="1"/>
        <pt x="607" y="7" on="1"/>
        <pt x="607" y="0" on="1"/>
        <pt x="509" y="0" on="1"/>
        <pt x="442" y="212" on="1"/>
        <pt x="169" y="212" on="1"/>
        <pt x="103" y="0" on="1"/>
        <pt x="5" y="0" on="1"/>
      </contour>
      <contour>
        <pt x="420" y="297" on="1"/>
        <pt x="344" y="540" on="1"/>
        <pt x="310" y="658" on="1"/>
        <pt x="301" y="658" on="1"/>
        <pt x="267" y="540" on="1"/>
        <pt x="192" y="297" on="1"/>
      </contour>
      <contour>
        <pt x="155" y="884" on="1"/>
        <pt x="307" y="957" on="1"/>
        <pt x="459" y="884" on="1"/>
        <pt x="459" y="807" on="1"/>
        <pt x="307" y="880" on="1"/>
        <pt x="155" y="807" on="1"/>
      </contour>
    </TTGlyph>
    <TTGlyph name="Acircumflex.sc" xMin="9" yMin="0" xMax="548" yMax="753">
      <contour>
        <pt x="9" y="6" on="1"/>
        <pt x="206" y="577" on="1"/>
        <pt x="351" y="577" on="1"/>
        <pt x="548" y="6" on="1"/>
        <pt x="548" y="0" on="1"/>
        <pt x="454" y="0" on="1"/>
        <pt x="399" y="154" on="1"/>
        <pt x="158" y="154" on="1"/>
        <pt x="103" y="0" on="1"/>
        <pt x="9" y="0" on="1"/>
      </contour>
      <contour>
        <pt x="379" y="225" on="1"/>
        <pt x="312" y="414" on="1"/>
        <pt x="283" y="503" on="1"/>
        <pt x="274" y="503" on="1"/>
        <pt x="245" y="414" on="1"/>
        <pt x="177" y="225" on="1"/>
      </contour>
      <contour>
        <pt x="143" y="696" on="1"/>
        <pt x="280" y="753" on="1"/>
        <pt x="417" y="696" on="1"/>
        <pt x="417" y="626" on="1"/>
        <pt x="279" y="683" on="1"/>
        <pt x="143" y="626" on="1"/>
      </contour>
    </TTGlyph>
    <TTGlyph name="Adblgrave" xMin="5" yMin="0" xMax="607" yMax="945">
      <contour>
        <pt x="5" y="7" on="1"/>
        <pt x="230" y="740" on="1"/>
        <pt x="382" y="740" on="1"/>
        <pt x="607" y="7" on="1"/>
        <pt x="607" y="0" on="1"/>
        <pt x="509" y="0" on="1"/>
        <pt x="442" y="212" on="1"/>
        <pt x="169" y="212" on="1"/>
        <pt x="103" y="0" on="1"/>
        <pt x="5" y="0" on="1"/>
      </contour>
      <contour>
        <pt x="420" y="297" on="1"/>
        <pt x="344" y="540" on="1"/>
        <pt x="310" y="658" on="1"/>
        <pt x="301" y="658" on="1"/>
        <pt x="267" y="540" on="1"/>
        <pt x="192" y="297" on="1"/>
      </contour>
      <contour>
        <pt x="196" y="790" on="1"/>
        <pt x="95" y="945" on="1"/>
        <pt x="188" y="945" on="1"/>
        <pt x="261" y="802" on="1"/>
      </contour>
      <contour>
        <pt x="358" y="790" on="1"/>
        <pt x="256" y="945" on="1"/>
        <pt x="349" y="945" on="1"/>
        <pt x="422" y="802" on="1"/>
      </contour>
    </TTGlyph>
    <TTGlyph name="Adblgrave.sc" xMin="9" yMin="0" xMax="548" yMax="746">
      <contour>
        <pt x="9" y="6" on="1"/>
        <pt x="206" y="577" on="1"/>
        <pt x="351" y="577" on="1"/>
        <pt x="548" y="6" on="1"/>
        <pt x="548" y="0" on="1"/>
        <pt x="454" y="0" on="1"/>
        <pt x="399" y="154" on="1"/>
        <pt x="158" y="154" on="1"/>
        <pt x="103" y="0" on="1"/>
        <pt x="9" y="0" on="1"/>
      </contour>
      <contour>
        <pt x="379" y="225" on="1"/>
        <pt x="312" y="414" on="1"/>
        <pt x="283" y="503" on="1"/>
        <pt x="274" y="503" on="1"/>
        <pt x="245" y="414" on="1"/>
        <pt x="177" y="225" on="1"/>
      </contour>
      <contour>
        <pt x="87" y="746" on="1"/>
        <pt x="176" y="746" on="1"/>
        <pt x="239" y="627" on="1"/>
        <pt x="177" y="617" on="1"/>
      </contour>
      <contour>
        <pt x="232" y="746" on="1"/>
        <pt x="321" y="746" on="1"/>
        <pt x="384" y="627" on="1"/>
        <pt x="323" y="617" on="1"/>
      </contour>
    </TTGlyph>
    <TTGlyph name="Adieresis" xMin="5" yMin="0" xMax="607" yMax="930">
      <contour>
        <pt x="5" y="7" on="1"/>
        <pt x="230" y="740" on="1"/>
        <pt x="382" y="740" on="1"/>
        <pt x="607" y="7" on="1"/>
        <pt x="607" y="0" on="1"/>
        <pt x="509" y="0" on="1"/>
        <pt x="442" y="212" on="1"/>
        <pt x="169" y="212" on="1"/>
        <pt x="103" y="0" on="1"/>
        <pt x="5" y="0" on="1"/>
      </contour>
      <contour>
        <pt x="420" y="297" on="1"/>
        <pt x="344" y="540" on="1"/>
        <pt x="310" y="658" on="1"/>
        <pt x="301" y="658" on="1"/>
        <pt x="267" y="540" on="1"/>
        <pt x="192" y="297" on="1"/>
      </contour>
      <contour>
        <pt x="193" y="810" on="1"/>
        <pt x="132" y="810" on="0"/>
        <pt x="132" y="871" on="1"/>
        <pt x="132" y="930" on="0"/>
        <pt x="193" y="930" on="1"/>
        <pt x="254" y="930" on="0"/>
        <pt x="254" y="871" on="1"/>
        <pt x="254" y="839" on="0"/>
        <pt x="223" y="810" on="0"/>
      </contour>
      <contour>
        <pt x="419" y="810" on="1"/>
        <pt x="358" y="810" on="0"/>
        <pt x="358" y="871" on="1"/>
        <pt x="358" y="930" on="0"/>
        <pt x="419" y="930" on="1"/>
        <pt x="481" y="930" on="0"/>
        <pt x="481" y="871" on="1"/>
        <pt x="481" y="839" on="0"/>
        <pt x="449" y="810" on="0"/>
      </contour>
    </TTGlyph>
    <TTGlyph name="Adieresis.sc" xMin="9" yMin="0" xMax="548" yMax="740">
      <contour>
        <pt x="176" y="630" on="1"/>
        <pt x="120" y="630" on="0"/>
        <pt x="120" y="685" on="1"/>
        <pt x="120" y="740" on="0"/>
        <pt x="176" y="740" on="1"/>
        <pt x="235" y="740" on="0"/>
        <pt x="235" y="685" on="1"/>
        <pt x="235" y="630" on="0"/>
      </contour>
      <contour>
        <pt x="381" y="630" on="1"/>
        <pt x="324" y="630" on="0"/>
        <pt x="324" y="685" on="1"/>
        <pt x="324" y="740" on="0"/>
        <pt x="381" y="740" on="1"/>
        <pt x="439" y="740" on="0"/>
        <pt x="439" y="685" on="1"/>
        <pt x="439" y="630" on="0"/>
      </contour>
      <contour>
        <pt x="9" y="6" on="1"/>
        <pt x="206" y="577" on="1"/>
        <pt x="351" y="577" on="1"/>
        <pt x="548" y="6" on="1"/>
        <pt x="548" y="0" on="1"/>
        <pt x="454" y="0" on="1"/>
        <pt x="399" y="154" on="1"/>
        <pt x="158" y="154" on="1"/>
        <pt x="103" y="0" on="1"/>
        <pt x="9" y="0" on="1"/>
      </contour>
      <contour>
        <pt x="379" y="225" on="1"/>
        <pt x="312" y="414" on="1"/>
        <pt x="283" y="503" on="1"/>
        <pt x="274" y="503" on="1"/>
        <pt x="245" y="414" on="1"/>
        <pt x="177" y="225" on="1"/>
      </contour>
    </TTGlyph>
    <TTGlyph name="Agrave" xMin="5" yMin="0" xMax="607" yMax="946">
      <contour>
        <pt x="5" y="7" on="1"/>
        <pt x="230" y="740" on="1"/>
        <pt x="382" y="740" on="1"/>
        <pt x="607" y="7" on="1"/>
        <pt x="607" y="0" on="1"/>
        <pt x="509" y="0" on="1"/>
        <pt x="442" y="212" on="1"/>
        <pt x="169" y="212" on="1"/>
        <pt x="103" y="0" on="1"/>
        <pt x="5" y="0" on="1"/>
      </contour>
      <contour>
        <pt x="420" y="297" on="1"/>
        <pt x="344" y="540" on="1"/>
        <pt x="310" y="658" on="1"/>
        <pt x="301" y="658" on="1"/>
        <pt x="267" y="540" on="1"/>
        <pt x="192" y="297" on="1"/>
      </contour>
      <contour>
        <pt x="264" y="791" on="1"/>
        <pt x="163" y="946" on="1"/>
        <pt x="268" y="946" on="1"/>
        <pt x="340" y="804" on="1"/>
      </contour>
    </TTGlyph>
    <TTGlyph name="Agrave.sc" xMin="9" yMin="0" xMax="548" yMax="747">
      <contour>
        <pt x="9" y="6" on="1"/>
        <pt x="206" y="577" on="1"/>
        <pt x="351" y="577" on="1"/>
        <pt x="548" y="6" on="1"/>
        <pt x="548" y="0" on="1"/>
        <pt x="454" y="0" on="1"/>
        <pt x="399" y="154" on="1"/>
        <pt x="158" y="154" on="1"/>
        <pt x="103" y="0" on="1"/>
        <pt x="9" y="0" on="1"/>
      </contour>
      <contour>
        <pt x="379" y="225" on="1"/>
        <pt x="312" y="414" on="1"/>
        <pt x="283" y="503" on="1"/>
        <pt x="274" y="503" on="1"/>
        <pt x="245" y="414" on="1"/>
        <pt x="177" y="225" on="1"/>
      </contour>
      <contour>
        <pt x="239" y="619" on="1"/>
        <pt x="148" y="747" on="1"/>
        <pt x="249" y="747" on="1"/>
        <pt x="311" y="628" on="1"/>
      </contour>
    </TTGlyph>
    <TTGlyph name="Ainvertedbreve" xMin="5" yMin="0" xMax="607" yMax="970">
      <contour>
        <pt x="5" y="7" on="1"/>
        <pt x="230" y="740" on="1"/>
        <pt x="382" y="740" on="1"/>
        <pt x="607" y="7" on="1"/>
        <pt x="607" y="0" on="1"/>
        <pt x="509" y="0" on="1"/>
        <pt x="442" y="212" on="1"/>
        <pt x="169" y="212" on="1"/>
        <pt x="103" y="0" on="1"/>
        <pt x="5" y="0" on="1"/>
      </contour>
      <contour>
        <pt x="420" y="297" on="1"/>
        <pt x="344" y="540" on="1"/>
        <pt x="310" y="658" on="1"/>
        <pt x="301" y="658" on="1"/>
        <pt x="267" y="540" on="1"/>
        <pt x="192" y="297" on="1"/>
      </contour>
      <contour>
        <pt x="400" y="816" on="1"/>
        <pt x="400" y="914" on="0"/>
        <pt x="306" y="914" on="1"/>
        <pt x="211" y="914" on="0"/>
        <pt x="211" y="816" on="1"/>
        <pt x="138" y="816" on="1"/>
        <pt x="138" y="888" on="0"/>
        <pt x="223" y="970" on="0"/>
        <pt x="306" y="970" on="1"/>
        <pt x="389" y="970" on="0"/>
        <pt x="474" y="888" on="0"/>
        <pt x="474" y="816" on="1"/>
      </contour>
    </TTGlyph>
    <TTGlyph name="Ainvertedbreve.sc" xMin="9" yMin="0" xMax="548" yMax="761">
      <contour>
        <pt x="128" y="635" on="1"/>
        <pt x="128" y="693" on="0"/>
        <pt x="204" y="761" on="0"/>
        <pt x="279" y="761" on="1"/>
        <pt x="355" y="761" on="0"/>
        <pt x="431" y="693" on="0"/>
        <pt x="431" y="635" on="1"/>
        <pt x="361" y="635" on="1"/>
        <pt x="361" y="673" on="0"/>
        <pt x="322" y="711" on="0"/>
        <pt x="279" y="711" on="1"/>
        <pt x="237" y="711" on="0"/>
        <pt x="198" y="673" on="0"/>
        <pt x="198" y="635" on="1"/>
      </contour>
      <contour>
        <pt x="9" y="6" on="1"/>
        <pt x="206" y="577" on="1"/>
        <pt x="351" y="577" on="1"/>
        <pt x="548" y="6" on="1"/>
        <pt x="548" y="0" on="1"/>
        <pt x="454" y="0" on="1"/>
        <pt x="399" y="154" on="1"/>
        <pt x="158" y="154" on="1"/>
        <pt x="103" y="0" on="1"/>
        <pt x="9" y="0" on="1"/>
      </contour>
      <contour>
        <pt x="379" y="225" on="1"/>
        <pt x="312" y="414" on="1"/>
        <pt x="283" y="503" on="1"/>
        <pt x="274" y="503" on="1"/>
        <pt x="245" y="414" on="1"/>
        <pt x="177" y="225" on="1"/>
      </contour>
    </TTGlyph>
    <TTGlyph name="Amacron" xMin="5" yMin="0" xMax="607" yMax="913">
      <contour>
        <pt x="5" y="7" on="1"/>
        <pt x="230" y="740" on="1"/>
        <pt x="382" y="740" on="1"/>
        <pt x="607" y="7" on="1"/>
        <pt x="607" y="0" on="1"/>
        <pt x="509" y="0" on="1"/>
        <pt x="442" y="212" on="1"/>
        <pt x="169" y="212" on="1"/>
        <pt x="103" y="0" on="1"/>
        <pt x="5" y="0" on="1"/>
      </contour>
      <contour>
        <pt x="420" y="297" on="1"/>
        <pt x="344" y="540" on="1"/>
        <pt x="310" y="658" on="1"/>
        <pt x="301" y="658" on="1"/>
        <pt x="267" y="540" on="1"/>
        <pt x="192" y="297" on="1"/>
      </contour>
      <contour>
        <pt x="158" y="913" on="1"/>
        <pt x="446" y="913" on="1"/>
        <pt x="446" y="840" on="1"/>
        <pt x="158" y="840" on="1"/>
      </contour>
    </TTGlyph>
    <TTGlyph name="Amacron.sc" xMin="9" yMin="0" xMax="548" yMax="722">
      <contour>
        <pt x="9" y="6" on="1"/>
        <pt x="206" y="577" on="1"/>
        <pt x="351" y="577" on="1"/>
        <pt x="548" y="6" on="1"/>
        <pt x="548" y="0" on="1"/>
        <pt x="454" y="0" on="1"/>
        <pt x="399" y="154" on="1"/>
        <pt x="158" y="154" on="1"/>
        <pt x="103" y="0" on="1"/>
        <pt x="9" y="0" on="1"/>
      </contour>
      <contour>
        <pt x="379" y="225" on="1"/>
        <pt x="312" y="414" on="1"/>
        <pt x="283" y="503" on="1"/>
        <pt x="274" y="503" on="1"/>
        <pt x="245" y="414" on="1"/>
        <pt x="177" y="225" on="1"/>
      </contour>
      <contour>
        <pt x="145" y="722" on="1"/>
        <pt x="407" y="722" on="1"/>
        <pt x="407" y="655" on="1"/>
        <pt x="145" y="655" on="1"/>
      </contour>
    </TTGlyph>
    <TTGlyph name="Aogonek" xMin="5" yMin="-220" xMax="607" yMax="740">
      <contour>
        <pt x="539" y="-220" on="1"/>
        <pt x="432" y="-220" on="0"/>
        <pt x="432" y="-130" on="1"/>
        <pt x="432" y="-93" on="0"/>
        <pt x="476" y="-30" on="0"/>
        <pt x="524" y="0" on="1"/>
        <pt x="509" y="0" on="1"/>
        <pt x="442" y="212" on="1"/>
        <pt x="169" y="212" on="1"/>
        <pt x="103" y="0" on="1"/>
        <pt x="5" y="0" on="1"/>
        <pt x="5" y="7" on="1"/>
        <pt x="230" y="740" on="1"/>
        <pt x="382" y="740" on="1"/>
        <pt x="607" y="7" on="1"/>
        <pt x="607" y="-14" on="1"/>
        <pt x="553" y="-37" on="0"/>
        <pt x="503" y="-94" on="0"/>
        <pt x="503" y="-122" on="1"/>
        <pt x="503" y="-156" on="0"/>
        <pt x="546" y="-156" on="1"/>
        <pt x="577" y="-156" on="0"/>
        <pt x="607" y="-145" on="1"/>
        <pt x="607" y="-208" on="1"/>
        <pt x="574" y="-220" on="0"/>
      </contour>
      <contour>
        <pt x="420" y="297" on="1"/>
        <pt x="344" y="540" on="1"/>
        <pt x="310" y="658" on="1"/>
        <pt x="301" y="658" on="1"/>
        <pt x="267" y="540" on="1"/>
        <pt x="192" y="297" on="1"/>
      </contour>
    </TTGlyph>
    <TTGlyph name="Aogonek.sc" xMin="8" yMin="-169" xMax="548" yMax="577">
      <contour>
        <pt x="485" y="-169" on="1"/>
        <pt x="389" y="-169" on="0"/>
        <pt x="389" y="-98" on="1"/>
        <pt x="389" y="-70" on="0"/>
        <pt x="424" y="-23" on="0"/>
        <pt x="462" y="0" on="1"/>
        <pt x="453" y="0" on="1"/>
        <pt x="398" y="154" on="1"/>
        <pt x="158" y="154" on="1"/>
        <pt x="102" y="0" on="1"/>
        <pt x="8" y="0" on="1"/>
        <pt x="8" y="6" on="1"/>
        <pt x="205" y="577" on="1"/>
        <pt x="351" y="577" on="1"/>
        <pt x="548" y="6" on="1"/>
        <pt x="548" y="-9" on="1"/>
        <pt x="497" y="-26" on="0"/>
        <pt x="456" y="-67" on="0"/>
        <pt x="456" y="-86" on="1"/>
        <pt x="456" y="-100" on="0"/>
        <pt x="475" y="-111" on="0"/>
        <pt x="492" y="-111" on="1"/>
        <pt x="505" y="-111" on="0"/>
        <pt x="536" y="-107" on="0"/>
        <pt x="548" y="-102" on="1"/>
        <pt x="548" y="-160" on="1"/>
        <pt x="516" y="-169" on="0"/>
      </contour>
      <contour>
        <pt x="377" y="225" on="1"/>
        <pt x="312" y="418" on="1"/>
        <pt x="282" y="503" on="1"/>
        <pt x="273" y="503" on="1"/>
        <pt x="244" y="418" on="1"/>
        <pt x="176" y="225" on="1"/>
      </contour>
    </TTGlyph>
    <TTGlyph name="Aring" xMin="5" yMin="0" xMax="607" yMax="962">
      <contour>
        <pt x="5" y="7" on="1"/>
        <pt x="230" y="740" on="1"/>
        <pt x="382" y="740" on="1"/>
        <pt x="607" y="7" on="1"/>
        <pt x="607" y="0" on="1"/>
        <pt x="509" y="0" on="1"/>
        <pt x="442" y="212" on="1"/>
        <pt x="169" y="212" on="1"/>
        <pt x="103" y="0" on="1"/>
        <pt x="5" y="0" on="1"/>
      </contour>
      <contour>
        <pt x="420" y="297" on="1"/>
        <pt x="344" y="540" on="1"/>
        <pt x="310" y="658" on="1"/>
        <pt x="301" y="658" on="1"/>
        <pt x="267" y="540" on="1"/>
        <pt x="192" y="297" on="1"/>
      </contour>
      <contour>
        <pt x="306" y="747" on="1"/>
        <pt x="256" y="747" on="0"/>
        <pt x="197" y="809" on="0"/>
        <pt x="197" y="854" on="1"/>
        <pt x="197" y="901" on="0"/>
        <pt x="256" y="962" on="0"/>
        <pt x="306" y="962" on="1"/>
        <pt x="356" y="962" on="0"/>
        <pt x="416" y="901" on="0"/>
        <pt x="416" y="854" on="1"/>
        <pt x="416" y="809" on="0"/>
        <pt x="356" y="747" on="0"/>
      </contour>
      <contour>
        <pt x="306" y="793" on="1"/>
        <pt x="336" y="793" on="0"/>
        <pt x="366" y="825" on="0"/>
        <pt x="366" y="854" on="1"/>
        <pt x="366" y="883" on="0"/>
        <pt x="337" y="916" on="0"/>
        <pt x="306" y="916" on="1"/>
        <pt x="275" y="916" on="0"/>
        <pt x="246" y="883" on="0"/>
        <pt x="246" y="854" on="1"/>
        <pt x="246" y="825" on="0"/>
        <pt x="275" y="793" on="0"/>
      </contour>
    </TTGlyph>
    <TTGlyph name="Aring.sc" xMin="9" yMin="0" xMax="548" yMax="785">
      <contour>
        <pt x="9" y="6" on="1"/>
        <pt x="206" y="577" on="1"/>
        <pt x="351" y="577" on="1"/>
        <pt x="548" y="6" on="1"/>
        <pt x="548" y="0" on="1"/>
        <pt x="454" y="0" on="1"/>
        <pt x="399" y="154" on="1"/>
        <pt x="158" y="154" on="1"/>
        <pt x="103" y="0" on="1"/>
        <pt x="9" y="0" on="1"/>
      </contour>
      <contour>
        <pt x="379" y="225" on="1"/>
        <pt x="312" y="414" on="1"/>
        <pt x="283" y="503" on="1"/>
        <pt x="274" y="503" on="1"/>
        <pt x="245" y="414" on="1"/>
        <pt x="177" y="225" on="1"/>
      </contour>
      <contour>
        <pt x="278" y="613" on="1"/>
        <pt x="233" y="613" on="0"/>
        <pt x="180" y="662" on="0"/>
        <pt x="180" y="698" on="1"/>
        <pt x="180" y="736" on="0"/>
        <pt x="233" y="785" on="0"/>
        <pt x="278" y="785" on="1"/>
        <pt x="323" y="785" on="0"/>
        <pt x="376" y="736" on="0"/>
        <pt x="376" y="698" on="1"/>
        <pt x="376" y="662" on="0"/>
        <pt x="323" y="613" on="0"/>
      </contour>
      <contour>
        <pt x="278" y="653" on="1"/>
        <pt x="331" y="653" on="0"/>
        <pt x="331" y="698" on="1"/>
        <pt x="331" y="745" on="0"/>
        <pt x="278" y="745" on="1"/>
        <pt x="225" y="745" on="0"/>
        <pt x="225" y="698" on="1"/>
        <pt x="225" y="653" on="0"/>
      </contour>
    </TTGlyph>
    <TTGlyph name="Aringacute" xMin="5" yMin="0" xMax="607" yMax="966">
      <contour>
        <pt x="5" y="7" on="1"/>
        <pt x="208" y="656" on="1"/>
        <pt x="173" y="686" on="0"/>
        <pt x="173" y="741" on="1"/>
        <pt x="173" y="787" on="0"/>
        <pt x="228" y="853" on="0"/>
        <pt x="276" y="861" on="1"/>
        <pt x="332" y="966" on="1"/>
        <pt x="437" y="966" on="1"/>
        <pt x="362" y="852" on="1"/>
        <pt x="397" y="839" on="0"/>
        <pt x="438" y="779" on="0"/>
        <pt x="438" y="741" on="1"/>
        <pt x="438" y="715" on="0"/>
        <pt x="420" y="673" on="0"/>
        <pt x="404" y="658" on="1"/>
        <pt x="607" y="7" on="1"/>
        <pt x="607" y="0" on="1"/>
        <pt x="509" y="0" on="1"/>
        <pt x="443" y="210" on="1"/>
        <pt x="169" y="210" on="1"/>
        <pt x="103" y="0" on="1"/>
        <pt x="5" y="0" on="1"/>
      </contour>
      <contour>
        <pt x="305" y="675" on="1"/>
        <pt x="336" y="675" on="0"/>
        <pt x="372" y="712" on="0"/>
        <pt x="372" y="741" on="1"/>
        <pt x="372" y="770" on="0"/>
        <pt x="337" y="807" on="0"/>
        <pt x="305" y="807" on="1"/>
        <pt x="273" y="807" on="0"/>
        <pt x="239" y="770" on="0"/>
        <pt x="239" y="741" on="1"/>
        <pt x="239" y="712" on="0"/>
        <pt x="274" y="675" on="0"/>
      </contour>
      <contour>
        <pt x="419" y="299" on="1"/>
        <pt x="346" y="540" on="1"/>
        <pt x="324" y="615" on="1"/>
        <pt x="288" y="615" on="1"/>
        <pt x="267" y="540" on="1"/>
        <pt x="192" y="299" on="1"/>
      </contour>
    </TTGlyph>
    <TTGlyph name="Aringacute.sc" xMin="9" yMin="0" xMax="548" yMax="765">
      <contour>
        <pt x="9" y="6" on="1"/>
        <pt x="187" y="516" on="1"/>
        <pt x="157" y="540" on="0"/>
        <pt x="157" y="581" on="1"/>
        <pt x="157" y="620" on="0"/>
        <pt x="206" y="674" on="0"/>
        <pt x="250" y="680" on="1"/>
        <pt x="298" y="765" on="1"/>
        <pt x="397" y="765" on="1"/>
        <pt x="331" y="672" on="1"/>
        <pt x="363" y="661" on="0"/>
        <pt x="398" y="613" on="0"/>
        <pt x="398" y="581" on="1"/>
        <pt x="398" y="562" on="0"/>
        <pt x="384" y="529" on="0"/>
        <pt x="369" y="517" on="1"/>
        <pt x="548" y="6" on="1"/>
        <pt x="548" y="0" on="1"/>
        <pt x="454" y="0" on="1"/>
        <pt x="398" y="154" on="1"/>
        <pt x="158" y="154" on="1"/>
        <pt x="102" y="0" on="1"/>
        <pt x="9" y="0" on="1"/>
      </contour>
      <contour>
        <pt x="277" y="531" on="1"/>
        <pt x="305" y="531" on="0"/>
        <pt x="337" y="559" on="0"/>
        <pt x="337" y="581" on="1"/>
        <pt x="337" y="604" on="0"/>
        <pt x="306" y="632" on="0"/>
        <pt x="277" y="632" on="1"/>
        <pt x="249" y="632" on="0"/>
        <pt x="218" y="604" on="0"/>
        <pt x="218" y="581" on="1"/>
        <pt x="218" y="559" on="0"/>
        <pt x="250" y="531" on="0"/>
      </contour>
      <contour>
        <pt x="379" y="225" on="1"/>
        <pt x="312" y="414" on="1"/>
        <pt x="293" y="477" on="1"/>
        <pt x="263" y="476" on="1"/>
        <pt x="245" y="414" on="1"/>
        <pt x="177" y="225" on="1"/>
      </contour>
    </TTGlyph>
    <TTGlyph name="Atilde" xMin="5" yMin="0" xMax="607" yMax="933">
      <contour>
        <pt x="5" y="7" on="1"/>
        <pt x="230" y="740" on="1"/>
        <pt x="382" y="740" on="1"/>
        <pt x="607" y="7" on="1"/>
        <pt x="607" y="0" on="1"/>
        <pt x="509" y="0" on="1"/>
        <pt x="442" y="212" on="1"/>
        <pt x="169" y="212" on="1"/>
        <pt x="103" y="0" on="1"/>
        <pt x="5" y="0" on="1"/>
      </contour>
      <contour>
        <pt x="420" y="297" on="1"/>
        <pt x="344" y="540" on="1"/>
        <pt x="310" y="658" on="1"/>
        <pt x="301" y="658" on="1"/>
        <pt x="267" y="540" on="1"/>
        <pt x="192" y="297" on="1"/>
      </contour>
      <contour>
        <pt x="131" y="849" on="1"/>
        <pt x="155" y="888" on="0"/>
        <pt x="218" y="933" on="0"/>
        <pt x="249" y="933" on="1"/>
        <pt x="270" y="933" on="0"/>
        <pt x="307" y="920" on="0"/>
        <pt x="343" y="904" on="0"/>
        <pt x="378" y="891" on="0"/>
        <pt x="397" y="891" on="1"/>
        <pt x="435" y="891" on="0"/>
        <pt x="469" y="931" on="1"/>
        <pt x="494" y="907" on="1"/>
        <pt x="473" y="865" on="0"/>
        <pt x="409" y="822" on="0"/>
        <pt x="377" y="822" on="1"/>
        <pt x="357" y="822" on="0"/>
        <pt x="320" y="834" on="0"/>
        <pt x="284" y="849" on="0"/>
        <pt x="249" y="862" on="0"/>
        <pt x="230" y="862" on="1"/>
        <pt x="192" y="862" on="0"/>
        <pt x="154" y="824" on="1"/>
      </contour>
    </TTGlyph>
    <TTGlyph name="Atilde.sc" xMin="9" yMin="0" xMax="548" yMax="736">
      <contour>
        <pt x="9" y="6" on="1"/>
        <pt x="206" y="577" on="1"/>
        <pt x="351" y="577" on="1"/>
        <pt x="548" y="6" on="1"/>
        <pt x="548" y="0" on="1"/>
        <pt x="454" y="0" on="1"/>
        <pt x="399" y="154" on="1"/>
        <pt x="158" y="154" on="1"/>
        <pt x="103" y="0" on="1"/>
        <pt x="9" y="0" on="1"/>
      </contour>
      <contour>
        <pt x="379" y="225" on="1"/>
        <pt x="312" y="414" on="1"/>
        <pt x="283" y="503" on="1"/>
        <pt x="274" y="503" on="1"/>
        <pt x="245" y="414" on="1"/>
        <pt x="177" y="225" on="1"/>
      </contour>
      <contour>
        <pt x="121" y="662" on="1"/>
        <pt x="143" y="697" on="0"/>
        <pt x="201" y="736" on="0"/>
        <pt x="229" y="736" on="1"/>
        <pt x="247" y="736" on="0"/>
        <pt x="280" y="726" on="0"/>
        <pt x="312" y="715" on="0"/>
        <pt x="344" y="705" on="0"/>
        <pt x="362" y="705" on="1"/>
        <pt x="395" y="705" on="0"/>
        <pt x="428" y="735" on="1"/>
        <pt x="450" y="716" on="1"/>
        <pt x="429" y="679" on="0"/>
        <pt x="371" y="640" on="0"/>
        <pt x="342" y="640" on="1"/>
        <pt x="324" y="640" on="0"/>
        <pt x="291" y="650" on="0"/>
        <pt x="258" y="662" on="0"/>
        <pt x="226" y="672" on="0"/>
        <pt x="210" y="672" on="1"/>
        <pt x="174" y="672" on="0"/>
        <pt x="141" y="642" on="1"/>
      </contour>
    </TTGlyph>
    <TTGlyph name="B" xMin="74" yMin="-10" xMax="565" yMax="750">
      <contour>
        <pt x="286" y="-10" on="1"/>
        <pt x="235" y="-10" on="0"/>
        <pt x="121" y="-2" on="0"/>
        <pt x="74" y="5" on="1"/>
        <pt x="74" y="736" on="1"/>
        <pt x="108" y="739" on="0"/>
        <pt x="163" y="745" on="0"/>
        <pt x="212" y="748" on="0"/>
        <pt x="255" y="750" on="0"/>
        <pt x="277" y="750" on="1"/>
        <pt x="415" y="750" on="0"/>
        <pt x="542" y="652" on="0"/>
        <pt x="542" y="547" on="1"/>
        <pt x="542" y="479" on="0"/>
        <pt x="482" y="394" on="0"/>
        <pt x="426" y="381" on="1"/>
        <pt x="426" y="377" on="1"/>
        <pt x="492" y="365" on="0"/>
        <pt x="565" y="271" on="0"/>
        <pt x="565" y="196" on="1"/>
        <pt x="565" y="-10" on="0"/>
      </contour>
      <contour>
        <pt x="294" y="69" on="1"/>
        <pt x="460" y="70" on="0"/>
        <pt x="460" y="203" on="1"/>
        <pt x="460" y="273" on="0"/>
        <pt x="380" y="335" on="0"/>
        <pt x="287" y="335" on="1"/>
        <pt x="171" y="335" on="1"/>
        <pt x="171" y="77" on="1"/>
        <pt x="186" y="74" on="0"/>
        <pt x="256" y="69" on="0"/>
      </contour>
      <contour>
        <pt x="284" y="412" on="1"/>
        <pt x="326" y="412" on="0"/>
        <pt x="385" y="426" on="0"/>
        <pt x="421" y="457" on="0"/>
        <pt x="437" y="506" on="0"/>
        <pt x="437" y="542" on="1"/>
        <pt x="437" y="608" on="0"/>
        <pt x="365" y="669" on="0"/>
        <pt x="285" y="669" on="1"/>
        <pt x="253" y="669" on="0"/>
        <pt x="199" y="666" on="0"/>
        <pt x="171" y="662" on="1"/>
        <pt x="171" y="412" on="1"/>
      </contour>
    </TTGlyph>
    <TTGlyph name="B.sc" xMin="70" yMin="-8" xMax="509" yMax="585">
      <contour>
        <pt x="261" y="-8" on="1"/>
        <pt x="216" y="-8" on="0"/>
        <pt x="114" y="-1" on="0"/>
        <pt x="70" y="4" on="1"/>
        <pt x="70" y="574" on="1"/>
        <pt x="130" y="579" on="0"/>
        <pt x="214" y="585" on="0"/>
        <pt x="253" y="585" on="1"/>
        <pt x="377" y="585" on="0"/>
        <pt x="489" y="508" on="0"/>
        <pt x="489" y="425" on="1"/>
        <pt x="489" y="374" on="0"/>
        <pt x="436" y="308" on="0"/>
        <pt x="385" y="297" on="1"/>
        <pt x="385" y="294" on="1"/>
        <pt x="445" y="284" on="0"/>
        <pt x="509" y="213" on="0"/>
        <pt x="509" y="155" on="1"/>
        <pt x="509" y="-8" on="0"/>
      </contour>
      <contour>
        <pt x="269" y="65" on="1"/>
        <pt x="412" y="65" on="0"/>
        <pt x="412" y="162" on="1"/>
        <pt x="412" y="213" on="0"/>
        <pt x="344" y="257" on="0"/>
        <pt x="265" y="257" on="1"/>
        <pt x="162" y="257" on="1"/>
        <pt x="162" y="70" on="1"/>
        <pt x="176" y="68" on="0"/>
        <pt x="234" y="65" on="0"/>
      </contour>
      <contour>
        <pt x="262" y="325" on="1"/>
        <pt x="333" y="325" on="0"/>
        <pt x="392" y="367" on="0"/>
        <pt x="392" y="419" on="1"/>
        <pt x="392" y="468" on="0"/>
        <pt x="330" y="511" on="0"/>
        <pt x="261" y="511" on="1"/>
        <pt x="234" y="511" on="0"/>
        <pt x="186" y="509" on="0"/>
        <pt x="162" y="506" on="1"/>
        <pt x="162" y="325" on="1"/>
      </contour>
    </TTGlyph>
    <TTGlyph name="C" xMin="42" yMin="-10" xMax="494" yMax="749">
      <contour>
        <pt x="360" y="-10" on="1"/>
        <pt x="197" y="-9" on="0"/>
        <pt x="42" y="174" on="0"/>
        <pt x="42" y="369" on="1"/>
        <pt x="42" y="567" on="0"/>
        <pt x="197" y="749" on="0"/>
        <pt x="358" y="749" on="1"/>
        <pt x="387" y="749" on="0"/>
        <pt x="456" y="743" on="0"/>
        <pt x="494" y="736" on="1"/>
        <pt x="494" y="650" on="1"/>
        <pt x="462" y="656" on="0"/>
        <pt x="399" y="662" on="0"/>
        <pt x="372" y="662" on="1"/>
        <pt x="312" y="662" on="0"/>
        <pt x="227" y="632" on="0"/>
        <pt x="173" y="563" on="0"/>
        <pt x="148" y="451" on="0"/>
        <pt x="148" y="369" on="1"/>
        <pt x="148" y="289" on="0"/>
        <pt x="173" y="179" on="0"/>
        <pt x="227" y="109" on="0"/>
        <pt x="310" y="78" on="0"/>
        <pt x="368" y="78" on="1"/>
        <pt x="380" y="78" on="0"/>
        <pt x="412" y="80" on="0"/>
        <pt x="446" y="83" on="0"/>
        <pt x="480" y="87" on="0"/>
        <pt x="494" y="90" on="1"/>
        <pt x="494" y="7" on="1"/>
        <pt x="467" y="-1" on="0"/>
        <pt x="398" y="-10" on="0"/>
      </contour>
    </TTGlyph>
    <TTGlyph name="C.sc" xMin="42" yMin="-8" xMax="443" yMax="585">
      <contour>
        <pt x="323" y="-8" on="1"/>
        <pt x="179" y="-7" on="0"/>
        <pt x="42" y="136" on="0"/>
        <pt x="42" y="288" on="1"/>
        <pt x="42" y="442" on="0"/>
        <pt x="177" y="585" on="0"/>
        <pt x="320" y="585" on="1"/>
        <pt x="347" y="585" on="0"/>
        <pt x="410" y="579" on="0"/>
        <pt x="443" y="574" on="1"/>
        <pt x="443" y="494" on="1"/>
        <pt x="386" y="503" on="0"/>
        <pt x="333" y="503" on="1"/>
        <pt x="281" y="503" on="0"/>
        <pt x="209" y="481" on="0"/>
        <pt x="164" y="431" on="0"/>
        <pt x="143" y="348" on="0"/>
        <pt x="143" y="288" on="1"/>
        <pt x="143" y="229" on="0"/>
        <pt x="164" y="147" on="0"/>
        <pt x="209" y="97" on="0"/>
        <pt x="280" y="75" on="0"/>
        <pt x="330" y="75" on="1"/>
        <pt x="353" y="75" on="0"/>
        <pt x="418" y="80" on="0"/>
        <pt x="443" y="85" on="1"/>
        <pt x="443" y="7" on="1"/>
        <pt x="420" y="0" on="0"/>
        <pt x="356" y="-8" on="0"/>
      </contour>
    </TTGlyph>
    <TTGlyph name="Cacute" xMin="42" yMin="-10" xMax="494" yMax="946">
      <contour>
        <pt x="360" y="-10" on="1"/>
        <pt x="197" y="-9" on="0"/>
        <pt x="42" y="174" on="0"/>
        <pt x="42" y="369" on="1"/>
        <pt x="42" y="567" on="0"/>
        <pt x="197" y="749" on="0"/>
        <pt x="358" y="749" on="1"/>
        <pt x="387" y="749" on="0"/>
        <pt x="456" y="743" on="0"/>
        <pt x="494" y="736" on="1"/>
        <pt x="494" y="650" on="1"/>
        <pt x="462" y="656" on="0"/>
        <pt x="399" y="662" on="0"/>
        <pt x="372" y="662" on="1"/>
        <pt x="312" y="662" on="0"/>
        <pt x="227" y="632" on="0"/>
        <pt x="173" y="563" on="0"/>
        <pt x="148" y="451" on="0"/>
        <pt x="148" y="369" on="1"/>
        <pt x="148" y="289" on="0"/>
        <pt x="173" y="179" on="0"/>
        <pt x="227" y="109" on="0"/>
        <pt x="310" y="78" on="0"/>
        <pt x="368" y="78" on="1"/>
        <pt x="380" y="78" on="0"/>
        <pt x="412" y="80" on="0"/>
        <pt x="446" y="83" on="0"/>
        <pt x="480" y="87" on="0"/>
        <pt x="494" y="90" on="1"/>
        <pt x="494" y="7" on="1"/>
        <pt x="467" y="-1" on="0"/>
        <pt x="398" y="-10" on="0"/>
      </contour>
      <contour>
        <pt x="268" y="797" on="1"/>
        <pt x="340" y="946" on="1"/>
        <pt x="445" y="946" on="1"/>
        <pt x="344" y="791" on="1"/>
      </contour>
    </TTGlyph>
    <TTGlyph name="Cacute.sc" xMin="42" yMin="-8" xMax="443" yMax="747">
      <contour>
        <pt x="323" y="-8" on="1"/>
        <pt x="179" y="-7" on="0"/>
        <pt x="42" y="136" on="0"/>
        <pt x="42" y="288" on="1"/>
        <pt x="42" y="442" on="0"/>
        <pt x="177" y="585" on="0"/>
        <pt x="320" y="585" on="1"/>
        <pt x="346" y="585" on="0"/>
        <pt x="408" y="579" on="0"/>
        <pt x="443" y="574" on="1"/>
        <pt x="443" y="494" on="1"/>
        <pt x="381" y="503" on="0"/>
        <pt x="332" y="503" on="1"/>
        <pt x="281" y="503" on="0"/>
        <pt x="209" y="481" on="0"/>
        <pt x="164" y="431" on="0"/>
        <pt x="143" y="349" on="0"/>
        <pt x="143" y="288" on="1"/>
        <pt x="143" y="229" on="0"/>
        <pt x="164" y="147" on="0"/>
        <pt x="209" y="97" on="0"/>
        <pt x="280" y="75" on="0"/>
        <pt x="330" y="75" on="1"/>
        <pt x="353" y="75" on="0"/>
        <pt x="418" y="80" on="0"/>
        <pt x="443" y="85" on="1"/>
        <pt x="443" y="7" on="1"/>
        <pt x="419" y="0" on="0"/>
        <pt x="355" y="-8" on="0"/>
      </contour>
      <contour>
        <pt x="238" y="624" on="1"/>
        <pt x="301" y="747" on="1"/>
        <pt x="401" y="747" on="1"/>
        <pt x="310" y="619" on="1"/>
      </contour>
    </TTGlyph>
    <TTGlyph name="Ccaron" xMin="42" yMin="-10" xMax="494" yMax="948">
      <contour>
        <pt x="360" y="-10" on="1"/>
        <pt x="197" y="-9" on="0"/>
        <pt x="42" y="174" on="0"/>
        <pt x="42" y="369" on="1"/>
        <pt x="42" y="567" on="0"/>
        <pt x="197" y="749" on="0"/>
        <pt x="358" y="749" on="1"/>
        <pt x="387" y="749" on="0"/>
        <pt x="456" y="743" on="0"/>
        <pt x="494" y="736" on="1"/>
        <pt x="494" y="650" on="1"/>
        <pt x="462" y="656" on="0"/>
        <pt x="399" y="662" on="0"/>
        <pt x="372" y="662" on="1"/>
        <pt x="312" y="662" on="0"/>
        <pt x="227" y="632" on="0"/>
        <pt x="173" y="563" on="0"/>
        <pt x="148" y="451" on="0"/>
        <pt x="148" y="369" on="1"/>
        <pt x="148" y="289" on="0"/>
        <pt x="173" y="179" on="0"/>
        <pt x="227" y="109" on="0"/>
        <pt x="310" y="78" on="0"/>
        <pt x="368" y="78" on="1"/>
        <pt x="380" y="78" on="0"/>
        <pt x="412" y="80" on="0"/>
        <pt x="446" y="83" on="0"/>
        <pt x="480" y="87" on="0"/>
        <pt x="494" y="90" on="1"/>
        <pt x="494" y="7" on="1"/>
        <pt x="467" y="-1" on="0"/>
        <pt x="398" y="-10" on="0"/>
      </contour>
      <contour>
        <pt x="164" y="948" on="1"/>
        <pt x="316" y="875" on="1"/>
        <pt x="468" y="948" on="1"/>
        <pt x="468" y="871" on="1"/>
        <pt x="316" y="798" on="1"/>
        <pt x="164" y="871" on="1"/>
      </contour>
    </TTGlyph>
    <TTGlyph name="Ccaron.sc" xMin="42" yMin="-8" xMax="443" yMax="748">
      <contour>
        <pt x="323" y="-8" on="1"/>
        <pt x="179" y="-7" on="0"/>
        <pt x="42" y="136" on="0"/>
        <pt x="42" y="288" on="1"/>
        <pt x="42" y="442" on="0"/>
        <pt x="177" y="585" on="0"/>
        <pt x="320" y="585" on="1"/>
        <pt x="346" y="585" on="0"/>
        <pt x="408" y="579" on="0"/>
        <pt x="443" y="574" on="1"/>
        <pt x="443" y="494" on="1"/>
        <pt x="381" y="503" on="0"/>
        <pt x="332" y="503" on="1"/>
        <pt x="281" y="503" on="0"/>
        <pt x="209" y="481" on="0"/>
        <pt x="164" y="431" on="0"/>
        <pt x="143" y="349" on="0"/>
        <pt x="143" y="288" on="1"/>
        <pt x="143" y="229" on="0"/>
        <pt x="164" y="147" on="0"/>
        <pt x="209" y="97" on="0"/>
        <pt x="280" y="75" on="0"/>
        <pt x="330" y="75" on="1"/>
        <pt x="353" y="75" on="0"/>
        <pt x="418" y="80" on="0"/>
        <pt x="443" y="85" on="1"/>
        <pt x="443" y="7" on="1"/>
        <pt x="419" y="0" on="0"/>
        <pt x="355" y="-8" on="0"/>
      </contour>
      <contour>
        <pt x="146" y="748" on="1"/>
        <pt x="284" y="691" on="1"/>
        <pt x="421" y="748" on="1"/>
        <pt x="421" y="679" on="1"/>
        <pt x="283" y="621" on="1"/>
        <pt x="146" y="679" on="1"/>
      </contour>
    </TTGlyph>
    <TTGlyph name="Ccedilla" xMin="42" yMin="-220" xMax="494" yMax="749">
      <contour>
        <pt x="283" y="-220" on="1"/>
        <pt x="246" y="-220" on="0"/>
        <pt x="204" y="-209" on="1"/>
        <pt x="204" y="-142" on="1"/>
        <pt x="219" y="-147" on="0"/>
        <pt x="253" y="-152" on="0"/>
        <pt x="267" y="-152" on="1"/>
        <pt x="325" y="-152" on="0"/>
        <pt x="325" y="-99" on="1"/>
        <pt x="325" y="-60" on="0"/>
        <pt x="293" y="-5" on="1"/>
        <pt x="165" y="13" on="0"/>
        <pt x="42" y="195" on="0"/>
        <pt x="42" y="369" on="1"/>
        <pt x="42" y="567" on="0"/>
        <pt x="197" y="749" on="0"/>
        <pt x="358" y="749" on="1"/>
        <pt x="387" y="749" on="0"/>
        <pt x="456" y="743" on="0"/>
        <pt x="494" y="736" on="1"/>
        <pt x="494" y="650" on="1"/>
        <pt x="462" y="656" on="0"/>
        <pt x="399" y="662" on="0"/>
        <pt x="372" y="662" on="1"/>
        <pt x="312" y="662" on="0"/>
        <pt x="227" y="632" on="0"/>
        <pt x="173" y="563" on="0"/>
        <pt x="148" y="451" on="0"/>
        <pt x="148" y="369" on="1"/>
        <pt x="148" y="289" on="0"/>
        <pt x="173" y="179" on="0"/>
        <pt x="227" y="109" on="0"/>
        <pt x="310" y="78" on="0"/>
        <pt x="368" y="78" on="1"/>
        <pt x="380" y="78" on="0"/>
        <pt x="412" y="80" on="0"/>
        <pt x="446" y="83" on="0"/>
        <pt x="480" y="87" on="0"/>
        <pt x="494" y="90" on="1"/>
        <pt x="494" y="7" on="1"/>
        <pt x="468" y="0" on="0"/>
        <pt x="402" y="-9" on="0"/>
        <pt x="366" y="-10" on="1"/>
        <pt x="383" y="-39" on="0"/>
        <pt x="397" y="-87" on="0"/>
        <pt x="397" y="-111" on="1"/>
        <pt x="397" y="-163" on="0"/>
        <pt x="338" y="-220" on="0"/>
      </contour>
    </TTGlyph>
    <TTGlyph name="Ccedilla.sc" xMin="42" yMin="-172" xMax="443" yMax="585">
      <contour>
        <pt x="256" y="-172" on="1"/>
        <pt x="241" y="-172" on="0"/>
        <pt x="204" y="-168" on="0"/>
        <pt x="185" y="-163" on="1"/>
        <pt x="185" y="-103" on="1"/>
        <pt x="201" y="-107" on="0"/>
        <pt x="231" y="-110" on="0"/>
        <pt x="242" y="-110" on="1"/>
        <pt x="291" y="-110" on="0"/>
        <pt x="291" y="-72" on="1"/>
        <pt x="291" y="-58" on="0"/>
        <pt x="277" y="-24" on="0"/>
        <pt x="265" y="-4" on="1"/>
        <pt x="151" y="9" on="0"/>
        <pt x="42" y="151" on="0"/>
        <pt x="42" y="288" on="1"/>
        <pt x="42" y="442" on="0"/>
        <pt x="177" y="585" on="0"/>
        <pt x="320" y="585" on="1"/>
        <pt x="346" y="585" on="0"/>
        <pt x="408" y="579" on="0"/>
        <pt x="443" y="574" on="1"/>
        <pt x="443" y="494" on="1"/>
        <pt x="381" y="503" on="0"/>
        <pt x="333" y="503" on="1"/>
        <pt x="282" y="503" on="0"/>
        <pt x="209" y="481" on="0"/>
        <pt x="164" y="431" on="0"/>
        <pt x="143" y="349" on="0"/>
        <pt x="143" y="288" on="1"/>
        <pt x="143" y="229" on="0"/>
        <pt x="164" y="147" on="0"/>
        <pt x="209" y="97" on="0"/>
        <pt x="280" y="75" on="0"/>
        <pt x="330" y="75" on="1"/>
        <pt x="353" y="75" on="0"/>
        <pt x="418" y="80" on="0"/>
        <pt x="443" y="85" on="1"/>
        <pt x="443" y="7" on="1"/>
        <pt x="420" y="0" on="0"/>
        <pt x="362" y="-7" on="0"/>
        <pt x="333" y="-7" on="1"/>
        <pt x="358" y="-51" on="0"/>
        <pt x="358" y="-86" on="1"/>
        <pt x="358" y="-127" on="0"/>
        <pt x="306" y="-172" on="0"/>
      </contour>
    </TTGlyph>
    <TTGlyph name="Ccircumflex" xMin="42" yMin="-10" xMax="494" yMax="957">
      <contour>
        <pt x="360" y="-10" on="1"/>
        <pt x="197" y="-9" on="0"/>
        <pt x="42" y="174" on="0"/>
        <pt x="42" y="369" on="1"/>
        <pt x="42" y="567" on="0"/>
        <pt x="197" y="749" on="0"/>
        <pt x="358" y="749" on="1"/>
        <pt x="387" y="749" on="0"/>
        <pt x="456" y="743" on="0"/>
        <pt x="494" y="736" on="1"/>
        <pt x="494" y="650" on="1"/>
        <pt x="462" y="656" on="0"/>
        <pt x="399" y="662" on="0"/>
        <pt x="372" y="662" on="1"/>
        <pt x="312" y="662" on="0"/>
        <pt x="227" y="632" on="0"/>
        <pt x="173" y="563" on="0"/>
        <pt x="148" y="451" on="0"/>
        <pt x="148" y="369" on="1"/>
        <pt x="148" y="289" on="0"/>
        <pt x="173" y="179" on="0"/>
        <pt x="227" y="109" on="0"/>
        <pt x="310" y="78" on="0"/>
        <pt x="368" y="78" on="1"/>
        <pt x="380" y="78" on="0"/>
        <pt x="412" y="80" on="0"/>
        <pt x="446" y="83" on="0"/>
        <pt x="480" y="87" on="0"/>
        <pt x="494" y="90" on="1"/>
        <pt x="494" y="7" on="1"/>
        <pt x="467" y="-1" on="0"/>
        <pt x="398" y="-10" on="0"/>
      </contour>
      <contour>
        <pt x="160" y="884" on="1"/>
        <pt x="312" y="957" on="1"/>
        <pt x="464" y="884" on="1"/>
        <pt x="464" y="807" on="1"/>
        <pt x="312" y="880" on="1"/>
        <pt x="160" y="807" on="1"/>
      </contour>
    </TTGlyph>
    <TTGlyph name="Ccircumflex.sc" xMin="42" yMin="-8" xMax="443" yMax="753">
      <contour>
        <pt x="323" y="-8" on="1"/>
        <pt x="179" y="-7" on="0"/>
        <pt x="42" y="136" on="0"/>
        <pt x="42" y="288" on="1"/>
        <pt x="42" y="442" on="0"/>
        <pt x="177" y="585" on="0"/>
        <pt x="320" y="585" on="1"/>
        <pt x="346" y="585" on="0"/>
        <pt x="408" y="579" on="0"/>
        <pt x="443" y="574" on="1"/>
        <pt x="443" y="494" on="1"/>
        <pt x="381" y="503" on="0"/>
        <pt x="332" y="503" on="1"/>
        <pt x="281" y="503" on="0"/>
        <pt x="209" y="481" on="0"/>
        <pt x="164" y="431" on="0"/>
        <pt x="143" y="349" on="0"/>
        <pt x="143" y="288" on="1"/>
        <pt x="143" y="229" on="0"/>
        <pt x="164" y="147" on="0"/>
        <pt x="209" y="97" on="0"/>
        <pt x="280" y="75" on="0"/>
        <pt x="330" y="75" on="1"/>
        <pt x="353" y="75" on="0"/>
        <pt x="418" y="80" on="0"/>
        <pt x="443" y="85" on="1"/>
        <pt x="443" y="7" on="1"/>
        <pt x="419" y="0" on="0"/>
        <pt x="355" y="-8" on="0"/>
      </contour>
      <contour>
        <pt x="142" y="696" on="1"/>
        <pt x="279" y="753" on="1"/>
        <pt x="417" y="696" on="1"/>
        <pt x="417" y="626" on="1"/>
        <pt x="279" y="683" on="1"/>
        <pt x="142" y="626" on="1"/>
      </contour>
    </TTGlyph>
    <TTGlyph name="Cdotaccent" xMin="42" yMin="-10" xMax="494" yMax="923">
      <contour>
        <pt x="314" y="803" on="1"/>
        <pt x="253" y="803" on="0"/>
        <pt x="253" y="862" on="1"/>
        <pt x="253" y="894" on="0"/>
        <pt x="283" y="923" on="0"/>
        <pt x="314" y="923" on="1"/>
        <pt x="376" y="923" on="0"/>
        <pt x="376" y="862" on="1"/>
        <pt x="376" y="803" on="0"/>
      </contour>
      <contour>
        <pt x="360" y="-10" on="1"/>
        <pt x="197" y="-9" on="0"/>
        <pt x="42" y="174" on="0"/>
        <pt x="42" y="369" on="1"/>
        <pt x="42" y="567" on="0"/>
        <pt x="197" y="749" on="0"/>
        <pt x="358" y="749" on="1"/>
        <pt x="387" y="749" on="0"/>
        <pt x="456" y="743" on="0"/>
        <pt x="494" y="736" on="1"/>
        <pt x="494" y="650" on="1"/>
        <pt x="462" y="656" on="0"/>
        <pt x="399" y="662" on="0"/>
        <pt x="372" y="662" on="1"/>
        <pt x="312" y="662" on="0"/>
        <pt x="227" y="632" on="0"/>
        <pt x="173" y="563" on="0"/>
        <pt x="148" y="451" on="0"/>
        <pt x="148" y="369" on="1"/>
        <pt x="148" y="289" on="0"/>
        <pt x="173" y="179" on="0"/>
        <pt x="227" y="109" on="0"/>
        <pt x="310" y="78" on="0"/>
        <pt x="368" y="78" on="1"/>
        <pt x="380" y="78" on="0"/>
        <pt x="412" y="80" on="0"/>
        <pt x="446" y="83" on="0"/>
        <pt x="480" y="87" on="0"/>
        <pt x="494" y="90" on="1"/>
        <pt x="494" y="7" on="1"/>
        <pt x="467" y="-1" on="0"/>
        <pt x="398" y="-10" on="0"/>
      </contour>
    </TTGlyph>
    <TTGlyph name="Cdotaccent.sc" xMin="42" yMin="-8" xMax="443" yMax="735">
      <contour>
        <pt x="323" y="-8" on="1"/>
        <pt x="179" y="-7" on="0"/>
        <pt x="42" y="136" on="0"/>
        <pt x="42" y="288" on="1"/>
        <pt x="42" y="442" on="0"/>
        <pt x="177" y="585" on="0"/>
        <pt x="320" y="585" on="1"/>
        <pt x="346" y="585" on="0"/>
        <pt x="408" y="579" on="0"/>
        <pt x="443" y="574" on="1"/>
        <pt x="443" y="494" on="1"/>
        <pt x="381" y="503" on="0"/>
        <pt x="332" y="503" on="1"/>
        <pt x="281" y="503" on="0"/>
        <pt x="209" y="481" on="0"/>
        <pt x="164" y="431" on="0"/>
        <pt x="143" y="349" on="0"/>
        <pt x="143" y="288" on="1"/>
        <pt x="143" y="229" on="0"/>
        <pt x="164" y="147" on="0"/>
        <pt x="209" y="97" on="0"/>
        <pt x="280" y="75" on="0"/>
        <pt x="330" y="75" on="1"/>
        <pt x="353" y="75" on="0"/>
        <pt x="418" y="80" on="0"/>
        <pt x="443" y="85" on="1"/>
        <pt x="443" y="7" on="1"/>
        <pt x="419" y="0" on="0"/>
        <pt x="355" y="-8" on="0"/>
      </contour>
      <contour>
        <pt x="282" y="625" on="1"/>
        <pt x="226" y="625" on="0"/>
        <pt x="226" y="681" on="1"/>
        <pt x="226" y="710" on="0"/>
        <pt x="253" y="735" on="0"/>
        <pt x="282" y="735" on="1"/>
        <pt x="311" y="735" on="0"/>
        <pt x="341" y="710" on="0"/>
        <pt x="341" y="681" on="1"/>
        <pt x="341" y="625" on="0"/>
      </contour>
    </TTGlyph>
    <TTGlyph name="D" xMin="74" yMin="-14" xMax="604" yMax="750">
      <contour>
        <pt x="231" y="-14" on="1"/>
        <pt x="191" y="-14" on="0"/>
        <pt x="112" y="-9" on="0"/>
        <pt x="74" y="-4" on="1"/>
        <pt x="74" y="736" on="1"/>
        <pt x="130" y="743" on="0"/>
        <pt x="221" y="750" on="0"/>
        <pt x="257" y="750" on="1"/>
        <pt x="348" y="750" on="0"/>
        <pt x="479" y="705" on="0"/>
        <pt x="564" y="612" on="0"/>
        <pt x="604" y="468" on="0"/>
        <pt x="604" y="369" on="1"/>
        <pt x="604" y="268" on="0"/>
        <pt x="562" y="123" on="0"/>
        <pt x="471" y="30" on="0"/>
        <pt x="330" y="-14" on="0"/>
      </contour>
      <contour>
        <pt x="264" y="72" on="1"/>
        <pt x="325" y="72" on="0"/>
        <pt x="414" y="105" on="0"/>
        <pt x="471" y="177" on="0"/>
        <pt x="498" y="290" on="0"/>
        <pt x="498" y="369" on="1"/>
        <pt x="498" y="449" on="0"/>
        <pt x="473" y="561" on="0"/>
        <pt x="418" y="632" on="0"/>
        <pt x="331" y="664" on="0"/>
        <pt x="270" y="664" on="1"/>
        <pt x="247" y="664" on="0"/>
        <pt x="199" y="660" on="0"/>
        <pt x="176" y="657" on="1"/>
        <pt x="176" y="78" on="1"/>
        <pt x="202" y="75" on="0"/>
        <pt x="243" y="72" on="0"/>
      </contour>
    </TTGlyph>
    <TTGlyph name="D.sc" xMin="70" yMin="-10" xMax="545" yMax="585">
      <contour>
        <pt x="220" y="-10" on="1"/>
        <pt x="182" y="-10" on="0"/>
        <pt x="105" y="-6" on="0"/>
        <pt x="70" y="-1" on="1"/>
        <pt x="70" y="575" on="1"/>
        <pt x="120" y="580" on="0"/>
        <pt x="204" y="585" on="0"/>
        <pt x="236" y="585" on="1"/>
        <pt x="398" y="585" on="0"/>
        <pt x="545" y="443" on="0"/>
        <pt x="545" y="288" on="1"/>
        <pt x="545" y="209" on="0"/>
        <pt x="508" y="96" on="0"/>
        <pt x="429" y="24" on="0"/>
        <pt x="306" y="-10" on="0"/>
      </contour>
      <contour>
        <pt x="246" y="71" on="1"/>
        <pt x="298" y="71" on="0"/>
        <pt x="373" y="94" on="0"/>
        <pt x="421" y="146" on="0"/>
        <pt x="444" y="229" on="0"/>
        <pt x="444" y="288" on="1"/>
        <pt x="444" y="348" on="0"/>
        <pt x="423" y="430" on="0"/>
        <pt x="376" y="481" on="0"/>
        <pt x="302" y="504" on="0"/>
        <pt x="249" y="504" on="1"/>
        <pt x="229" y="504" on="0"/>
        <pt x="187" y="501" on="0"/>
        <pt x="167" y="499" on="1"/>
        <pt x="167" y="75" on="1"/>
        <pt x="191" y="73" on="0"/>
        <pt x="227" y="71" on="0"/>
      </contour>
    </TTGlyph>
    <TTGlyph name="Dcaron" xMin="74" yMin="-14" xMax="604" yMax="948">
      <contour>
        <pt x="151" y="948" on="1"/>
        <pt x="303" y="875" on="1"/>
        <pt x="455" y="948" on="1"/>
        <pt x="455" y="871" on="1"/>
        <pt x="303" y="798" on="1"/>
        <pt x="151" y="871" on="1"/>
      </contour>
      <contour>
        <pt x="231" y="-14" on="1"/>
        <pt x="191" y="-14" on="0"/>
        <pt x="112" y="-9" on="0"/>
        <pt x="74" y="-4" on="1"/>
        <pt x="74" y="736" on="1"/>
        <pt x="130" y="743" on="0"/>
        <pt x="221" y="750" on="0"/>
        <pt x="257" y="750" on="1"/>
        <pt x="348" y="750" on="0"/>
        <pt x="479" y="705" on="0"/>
        <pt x="564" y="612" on="0"/>
        <pt x="604" y="468" on="0"/>
        <pt x="604" y="369" on="1"/>
        <pt x="604" y="268" on="0"/>
        <pt x="562" y="123" on="0"/>
        <pt x="471" y="30" on="0"/>
        <pt x="330" y="-14" on="0"/>
      </contour>
      <contour>
        <pt x="264" y="72" on="1"/>
        <pt x="325" y="72" on="0"/>
        <pt x="414" y="105" on="0"/>
        <pt x="471" y="177" on="0"/>
        <pt x="498" y="290" on="0"/>
        <pt x="498" y="369" on="1"/>
        <pt x="498" y="449" on="0"/>
        <pt x="473" y="561" on="0"/>
        <pt x="418" y="632" on="0"/>
        <pt x="331" y="664" on="0"/>
        <pt x="270" y="664" on="1"/>
        <pt x="247" y="664" on="0"/>
        <pt x="199" y="660" on="0"/>
        <pt x="176" y="657" on="1"/>
        <pt x="176" y="78" on="1"/>
        <pt x="202" y="75" on="0"/>
        <pt x="243" y="72" on="0"/>
      </contour>
    </TTGlyph>
    <TTGlyph name="Dcaron.sc" xMin="70" yMin="-10" xMax="545" yMax="748">
      <contour>
        <pt x="220" y="-10" on="1"/>
        <pt x="182" y="-10" on="0"/>
        <pt x="105" y="-6" on="0"/>
        <pt x="70" y="-1" on="1"/>
        <pt x="70" y="575" on="1"/>
        <pt x="120" y="580" on="0"/>
        <pt x="204" y="585" on="0"/>
        <pt x="236" y="585" on="1"/>
        <pt x="398" y="585" on="0"/>
        <pt x="545" y="443" on="0"/>
        <pt x="545" y="288" on="1"/>
        <pt x="545" y="209" on="0"/>
        <pt x="508" y="96" on="0"/>
        <pt x="429" y="24" on="0"/>
        <pt x="306" y="-10" on="0"/>
      </contour>
      <contour>
        <pt x="246" y="71" on="1"/>
        <pt x="298" y="71" on="0"/>
        <pt x="373" y="94" on="0"/>
        <pt x="421" y="146" on="0"/>
        <pt x="444" y="229" on="0"/>
        <pt x="444" y="288" on="1"/>
        <pt x="444" y="348" on="0"/>
        <pt x="423" y="430" on="0"/>
        <pt x="376" y="481" on="0"/>
        <pt x="302" y="504" on="0"/>
        <pt x="249" y="504" on="1"/>
        <pt x="229" y="504" on="0"/>
        <pt x="187" y="501" on="0"/>
        <pt x="167" y="499" on="1"/>
        <pt x="167" y="75" on="1"/>
        <pt x="191" y="73" on="0"/>
        <pt x="227" y="71" on="0"/>
      </contour>
      <contour>
        <pt x="140" y="679" on="1"/>
        <pt x="140" y="748" on="1"/>
        <pt x="278" y="691" on="1"/>
        <pt x="415" y="748" on="1"/>
        <pt x="415" y="679" on="1"/>
        <pt x="278" y="621" on="1"/>
      </contour>
    </TTGlyph>
    <TTGlyph name="Dcroat" xMin="1" yMin="-14" xMax="619" yMax="750">
      <contour>
        <pt x="1" y="411" on="1"/>
        <pt x="89" y="411" on="1"/>
        <pt x="89" y="736" on="1"/>
        <pt x="145" y="743" on="0"/>
        <pt x="236" y="750" on="0"/>
        <pt x="272" y="750" on="1"/>
        <pt x="363" y="750" on="0"/>
        <pt x="494" y="705" on="0"/>
        <pt x="579" y="612" on="0"/>
        <pt x="619" y="468" on="0"/>
        <pt x="619" y="369" on="1"/>
        <pt x="619" y="268" on="0"/>
        <pt x="577" y="123" on="0"/>
        <pt x="486" y="30" on="0"/>
        <pt x="345" y="-14" on="0"/>
        <pt x="246" y="-14" on="1"/>
        <pt x="206" y="-14" on="0"/>
        <pt x="127" y="-9" on="0"/>
        <pt x="89" y="-4" on="1"/>
        <pt x="89" y="330" on="1"/>
        <pt x="1" y="330" on="1"/>
      </contour>
      <contour>
        <pt x="279" y="72" on="1"/>
        <pt x="340" y="72" on="0"/>
        <pt x="429" y="105" on="0"/>
        <pt x="486" y="177" on="0"/>
        <pt x="513" y="290" on="0"/>
        <pt x="513" y="369" on="1"/>
        <pt x="513" y="449" on="0"/>
        <pt x="488" y="561" on="0"/>
        <pt x="433" y="632" on="0"/>
        <pt x="346" y="664" on="0"/>
        <pt x="285" y="664" on="1"/>
        <pt x="262" y="664" on="0"/>
        <pt x="214" y="660" on="0"/>
        <pt x="191" y="657" on="1"/>
        <pt x="191" y="411" on="1"/>
        <pt x="331" y="411" on="1"/>
        <pt x="331" y="330" on="1"/>
        <pt x="191" y="330" on="1"/>
        <pt x="191" y="78" on="1"/>
        <pt x="217" y="75" on="0"/>
        <pt x="258" y="72" on="0"/>
      </contour>
    </TTGlyph>
    <TTGlyph name="Dcroat.sc" xMin="7" yMin="-10" xMax="560" yMax="585">
      <contour>
        <pt x="7" y="328" on="1"/>
        <pt x="84" y="328" on="1"/>
        <pt x="84" y="575" on="1"/>
        <pt x="135" y="580" on="0"/>
        <pt x="218" y="585" on="0"/>
        <pt x="250" y="585" on="1"/>
        <pt x="332" y="585" on="0"/>
        <pt x="449" y="551" on="0"/>
        <pt x="524" y="478" on="0"/>
        <pt x="560" y="366" on="0"/>
        <pt x="560" y="288" on="1"/>
        <pt x="560" y="208" on="0"/>
        <pt x="522" y="95" on="0"/>
        <pt x="442" y="23" on="0"/>
        <pt x="316" y="-10" on="0"/>
        <pt x="228" y="-10" on="1"/>
        <pt x="192" y="-10" on="0"/>
        <pt x="119" y="-6" on="0"/>
        <pt x="84" y="-1" on="1"/>
        <pt x="84" y="251" on="1"/>
        <pt x="7" y="251" on="1"/>
      </contour>
      <contour>
        <pt x="260" y="71" on="1"/>
        <pt x="312" y="71" on="0"/>
        <pt x="388" y="94" on="0"/>
        <pt x="436" y="146" on="0"/>
        <pt x="459" y="229" on="0"/>
        <pt x="459" y="288" on="1"/>
        <pt x="459" y="348" on="0"/>
        <pt x="437" y="430" on="0"/>
        <pt x="390" y="481" on="0"/>
        <pt x="316" y="504" on="0"/>
        <pt x="263" y="504" on="1"/>
        <pt x="243" y="504" on="0"/>
        <pt x="202" y="502" on="0"/>
        <pt x="182" y="499" on="1"/>
        <pt x="182" y="328" on="1"/>
        <pt x="300" y="328" on="1"/>
        <pt x="300" y="251" on="1"/>
        <pt x="182" y="251" on="1"/>
        <pt x="182" y="75" on="1"/>
        <pt x="205" y="73" on="0"/>
        <pt x="242" y="71" on="0"/>
      </contour>
    </TTGlyph>
    <TTGlyph name="Ddotbelow" xMin="74" yMin="-186" xMax="604" yMax="750">
      <contour>
        <pt x="305" y="-186" on="1"/>
        <pt x="277" y="-186" on="0"/>
        <pt x="251" y="-161" on="0"/>
        <pt x="251" y="-132" on="1"/>
        <pt x="251" y="-103" on="0"/>
        <pt x="277" y="-79" on="0"/>
        <pt x="305" y="-79" on="1"/>
        <pt x="332" y="-79" on="0"/>
        <pt x="359" y="-103" on="0"/>
        <pt x="359" y="-132" on="1"/>
        <pt x="359" y="-161" on="0"/>
        <pt x="332" y="-186" on="0"/>
      </contour>
      <contour>
        <pt x="231" y="-14" on="1"/>
        <pt x="191" y="-14" on="0"/>
        <pt x="112" y="-9" on="0"/>
        <pt x="74" y="-4" on="1"/>
        <pt x="74" y="736" on="1"/>
        <pt x="130" y="743" on="0"/>
        <pt x="221" y="750" on="0"/>
        <pt x="257" y="750" on="1"/>
        <pt x="348" y="750" on="0"/>
        <pt x="479" y="705" on="0"/>
        <pt x="564" y="612" on="0"/>
        <pt x="604" y="468" on="0"/>
        <pt x="604" y="369" on="1"/>
        <pt x="604" y="268" on="0"/>
        <pt x="562" y="123" on="0"/>
        <pt x="471" y="30" on="0"/>
        <pt x="330" y="-14" on="0"/>
      </contour>
      <contour>
        <pt x="264" y="72" on="1"/>
        <pt x="325" y="72" on="0"/>
        <pt x="414" y="105" on="0"/>
        <pt x="471" y="177" on="0"/>
        <pt x="498" y="290" on="0"/>
        <pt x="498" y="369" on="1"/>
        <pt x="498" y="449" on="0"/>
        <pt x="473" y="561" on="0"/>
        <pt x="418" y="632" on="0"/>
        <pt x="331" y="664" on="0"/>
        <pt x="270" y="664" on="1"/>
        <pt x="247" y="664" on="0"/>
        <pt x="199" y="660" on="0"/>
        <pt x="176" y="657" on="1"/>
        <pt x="176" y="78" on="1"/>
        <pt x="202" y="75" on="0"/>
        <pt x="243" y="72" on="0"/>
      </contour>
    </TTGlyph>
    <TTGlyph name="Ddotbelow.sc" xMin="70" yMin="-151" xMax="545" yMax="585">
      <contour>
        <pt x="220" y="-10" on="1"/>
        <pt x="182" y="-10" on="0"/>
        <pt x="105" y="-6" on="0"/>
        <pt x="70" y="-1" on="1"/>
        <pt x="70" y="575" on="1"/>
        <pt x="120" y="580" on="0"/>
        <pt x="204" y="585" on="0"/>
        <pt x="236" y="585" on="1"/>
        <pt x="398" y="585" on="0"/>
        <pt x="545" y="443" on="0"/>
        <pt x="545" y="288" on="1"/>
        <pt x="545" y="209" on="0"/>
        <pt x="508" y="96" on="0"/>
        <pt x="429" y="24" on="0"/>
        <pt x="306" y="-10" on="0"/>
      </contour>
      <contour>
        <pt x="246" y="71" on="1"/>
        <pt x="298" y="71" on="0"/>
        <pt x="373" y="94" on="0"/>
        <pt x="421" y="146" on="0"/>
        <pt x="444" y="229" on="0"/>
        <pt x="444" y="288" on="1"/>
        <pt x="444" y="348" on="0"/>
        <pt x="423" y="430" on="0"/>
        <pt x="376" y="481" on="0"/>
        <pt x="302" y="504" on="0"/>
        <pt x="249" y="504" on="1"/>
        <pt x="229" y="504" on="0"/>
        <pt x="187" y="501" on="0"/>
        <pt x="167" y="499" on="1"/>
        <pt x="167" y="75" on="1"/>
        <pt x="191" y="73" on="0"/>
        <pt x="227" y="71" on="0"/>
      </contour>
      <contour>
        <pt x="279" y="-151" on="1"/>
        <pt x="229" y="-151" on="0"/>
        <pt x="229" y="-105" on="1"/>
        <pt x="229" y="-58" on="0"/>
        <pt x="279" y="-58" on="1"/>
        <pt x="329" y="-58" on="0"/>
        <pt x="329" y="-105" on="1"/>
        <pt x="329" y="-151" on="0"/>
      </contour>
    </TTGlyph>
    <TTGlyph name="Delta" xMin="21" yMin="0" xMax="651" yMax="740">
      <contour>
        <pt x="271" y="740" on="1"/>
        <pt x="400" y="740" on="1"/>
        <pt x="651" y="0" on="1"/>
        <pt x="21" y="0" on="1"/>
      </contour>
      <contour>
        <pt x="526" y="87" on="1"/>
        <pt x="335" y="648" on="1"/>
        <pt x="145" y="87" on="1"/>
      </contour>
    </TTGlyph>
    <TTGlyph name="E" xMin="74" yMin="0" xMax="515" yMax="740">
      <contour>
        <pt x="74" y="740" on="1"/>
        <pt x="506" y="740" on="1"/>
        <pt x="506" y="653" on="1"/>
        <pt x="177" y="653" on="1"/>
        <pt x="177" y="417" on="1"/>
        <pt x="474" y="417" on="1"/>
        <pt x="474" y="330" on="1"/>
        <pt x="177" y="330" on="1"/>
        <pt x="177" y="87" on="1"/>
        <pt x="515" y="87" on="1"/>
        <pt x="515" y="0" on="1"/>
        <pt x="74" y="0" on="1"/>
      </contour>
    </TTGlyph>
    <TTGlyph name="E.sc" xMin="70" yMin="0" xMax="465" yMax="577">
      <contour>
        <pt x="70" y="577" on="1"/>
        <pt x="458" y="577" on="1"/>
        <pt x="458" y="498" on="1"/>
        <pt x="168" y="498" on="1"/>
        <pt x="168" y="329" on="1"/>
        <pt x="431" y="329" on="1"/>
        <pt x="431" y="254" on="1"/>
        <pt x="168" y="254" on="1"/>
        <pt x="168" y="80" on="1"/>
        <pt x="465" y="80" on="1"/>
        <pt x="465" y="0" on="1"/>
        <pt x="70" y="0" on="1"/>
      </contour>
    </TTGlyph>
    <TTGlyph name="Eacute" xMin="74" yMin="0" xMax="515" yMax="946">
      <contour>
        <pt x="247" y="797" on="1"/>
        <pt x="319" y="946" on="1"/>
        <pt x="424" y="946" on="1"/>
        <pt x="323" y="791" on="1"/>
      </contour>
      <contour>
        <pt x="74" y="740" on="1"/>
        <pt x="506" y="740" on="1"/>
        <pt x="506" y="653" on="1"/>
        <pt x="177" y="653" on="1"/>
        <pt x="177" y="417" on="1"/>
        <pt x="474" y="417" on="1"/>
        <pt x="474" y="330" on="1"/>
        <pt x="177" y="330" on="1"/>
        <pt x="177" y="87" on="1"/>
        <pt x="515" y="87" on="1"/>
        <pt x="515" y="0" on="1"/>
        <pt x="74" y="0" on="1"/>
      </contour>
    </TTGlyph>
    <TTGlyph name="Eacute.sc" xMin="70" yMin="0" xMax="465" yMax="747">
      <contour>
        <pt x="70" y="577" on="1"/>
        <pt x="458" y="577" on="1"/>
        <pt x="458" y="498" on="1"/>
        <pt x="168" y="498" on="1"/>
        <pt x="168" y="329" on="1"/>
        <pt x="431" y="329" on="1"/>
        <pt x="431" y="254" on="1"/>
        <pt x="168" y="254" on="1"/>
        <pt x="168" y="80" on="1"/>
        <pt x="465" y="80" on="1"/>
        <pt x="465" y="0" on="1"/>
        <pt x="70" y="0" on="1"/>
      </contour>
      <contour>
        <pt x="223" y="624" on="1"/>
        <pt x="286" y="747" on="1"/>
        <pt x="385" y="747" on="1"/>
        <pt x="296" y="619" on="1"/>
      </contour>
    </TTGlyph>
    <TTGlyph name="Ebreve" xMin="74" yMin="0" xMax="515" yMax="962">
      <contour>
        <pt x="291" y="808" on="1"/>
        <pt x="207" y="808" on="0"/>
        <pt x="122" y="890" on="0"/>
        <pt x="122" y="962" on="1"/>
        <pt x="196" y="962" on="1"/>
        <pt x="196" y="865" on="0"/>
        <pt x="291" y="865" on="1"/>
        <pt x="385" y="865" on="0"/>
        <pt x="385" y="962" on="1"/>
        <pt x="459" y="962" on="1"/>
        <pt x="459" y="891" on="0"/>
        <pt x="373" y="808" on="0"/>
      </contour>
      <contour>
        <pt x="74" y="740" on="1"/>
        <pt x="506" y="740" on="1"/>
        <pt x="506" y="653" on="1"/>
        <pt x="177" y="653" on="1"/>
        <pt x="177" y="417" on="1"/>
        <pt x="474" y="417" on="1"/>
        <pt x="474" y="330" on="1"/>
        <pt x="177" y="330" on="1"/>
        <pt x="177" y="87" on="1"/>
        <pt x="515" y="87" on="1"/>
        <pt x="515" y="0" on="1"/>
        <pt x="74" y="0" on="1"/>
      </contour>
    </TTGlyph>
    <TTGlyph name="Ebreve.sc" xMin="70" yMin="0" xMax="465" yMax="755">
      <contour>
        <pt x="264" y="628" on="1"/>
        <pt x="189" y="628" on="0"/>
        <pt x="113" y="697" on="0"/>
        <pt x="113" y="755" on="1"/>
        <pt x="182" y="755" on="1"/>
        <pt x="182" y="679" on="0"/>
        <pt x="264" y="679" on="1"/>
        <pt x="346" y="679" on="0"/>
        <pt x="346" y="755" on="1"/>
        <pt x="415" y="755" on="1"/>
        <pt x="415" y="697" on="0"/>
        <pt x="339" y="628" on="0"/>
      </contour>
      <contour>
        <pt x="70" y="577" on="1"/>
        <pt x="458" y="577" on="1"/>
        <pt x="458" y="498" on="1"/>
        <pt x="168" y="498" on="1"/>
        <pt x="168" y="329" on="1"/>
        <pt x="431" y="329" on="1"/>
        <pt x="431" y="254" on="1"/>
        <pt x="168" y="254" on="1"/>
        <pt x="168" y="80" on="1"/>
        <pt x="465" y="80" on="1"/>
        <pt x="465" y="0" on="1"/>
        <pt x="70" y="0" on="1"/>
      </contour>
    </TTGlyph>
    <TTGlyph name="Ecaron" xMin="74" yMin="0" xMax="515" yMax="948">
      <contour>
        <pt x="143" y="948" on="1"/>
        <pt x="295" y="875" on="1"/>
        <pt x="447" y="948" on="1"/>
        <pt x="447" y="871" on="1"/>
        <pt x="295" y="798" on="1"/>
        <pt x="143" y="871" on="1"/>
      </contour>
      <contour>
        <pt x="74" y="740" on="1"/>
        <pt x="506" y="740" on="1"/>
        <pt x="506" y="653" on="1"/>
        <pt x="177" y="653" on="1"/>
        <pt x="177" y="417" on="1"/>
        <pt x="474" y="417" on="1"/>
        <pt x="474" y="330" on="1"/>
        <pt x="177" y="330" on="1"/>
        <pt x="177" y="87" on="1"/>
        <pt x="515" y="87" on="1"/>
        <pt x="515" y="0" on="1"/>
        <pt x="74" y="0" on="1"/>
      </contour>
    </TTGlyph>
    <TTGlyph name="Ecaron.sc" xMin="70" yMin="0" xMax="465" yMax="748">
      <contour>
        <pt x="70" y="577" on="1"/>
        <pt x="458" y="577" on="1"/>
        <pt x="458" y="498" on="1"/>
        <pt x="168" y="498" on="1"/>
        <pt x="168" y="329" on="1"/>
        <pt x="431" y="329" on="1"/>
        <pt x="431" y="254" on="1"/>
        <pt x="168" y="254" on="1"/>
        <pt x="168" y="80" on="1"/>
        <pt x="465" y="80" on="1"/>
        <pt x="465" y="0" on="1"/>
        <pt x="70" y="0" on="1"/>
      </contour>
      <contour>
        <pt x="132" y="679" on="1"/>
        <pt x="132" y="748" on="1"/>
        <pt x="269" y="691" on="1"/>
        <pt x="406" y="748" on="1"/>
        <pt x="406" y="679" on="1"/>
        <pt x="269" y="621" on="1"/>
      </contour>
    </TTGlyph>
    <TTGlyph name="Ecircumflex" xMin="74" yMin="0" xMax="515" yMax="957">
      <contour>
        <pt x="74" y="740" on="1"/>
        <pt x="506" y="740" on="1"/>
        <pt x="506" y="653" on="1"/>
        <pt x="177" y="653" on="1"/>
        <pt x="177" y="417" on="1"/>
        <pt x="474" y="417" on="1"/>
        <pt x="474" y="330" on="1"/>
        <pt x="177" y="330" on="1"/>
        <pt x="177" y="87" on="1"/>
        <pt x="515" y="87" on="1"/>
        <pt x="515" y="0" on="1"/>
        <pt x="74" y="0" on="1"/>
      </contour>
      <contour>
        <pt x="141" y="884" on="1"/>
        <pt x="293" y="957" on="1"/>
        <pt x="445" y="884" on="1"/>
        <pt x="445" y="807" on="1"/>
        <pt x="293" y="880" on="1"/>
        <pt x="141" y="807" on="1"/>
      </contour>
    </TTGlyph>
    <TTGlyph name="Ecircumflex.sc" xMin="70" yMin="0" xMax="465" yMax="753">
      <contour>
        <pt x="70" y="577" on="1"/>
        <pt x="458" y="577" on="1"/>
        <pt x="458" y="498" on="1"/>
        <pt x="168" y="498" on="1"/>
        <pt x="168" y="329" on="1"/>
        <pt x="431" y="329" on="1"/>
        <pt x="431" y="254" on="1"/>
        <pt x="168" y="254" on="1"/>
        <pt x="168" y="80" on="1"/>
        <pt x="465" y="80" on="1"/>
        <pt x="465" y="0" on="1"/>
        <pt x="70" y="0" on="1"/>
      </contour>
      <contour>
        <pt x="130" y="696" on="1"/>
        <pt x="267" y="753" on="1"/>
        <pt x="405" y="696" on="1"/>
        <pt x="405" y="626" on="1"/>
        <pt x="268" y="683" on="1"/>
        <pt x="130" y="626" on="1"/>
      </contour>
    </TTGlyph>
    <TTGlyph name="Edblgrave" xMin="74" yMin="0" xMax="515" yMax="945">
      <contour>
        <pt x="74" y="740" on="1"/>
        <pt x="506" y="740" on="1"/>
        <pt x="506" y="653" on="1"/>
        <pt x="177" y="653" on="1"/>
        <pt x="177" y="417" on="1"/>
        <pt x="474" y="417" on="1"/>
        <pt x="474" y="330" on="1"/>
        <pt x="177" y="330" on="1"/>
        <pt x="177" y="87" on="1"/>
        <pt x="515" y="87" on="1"/>
        <pt x="515" y="0" on="1"/>
        <pt x="74" y="0" on="1"/>
      </contour>
      <contour>
        <pt x="181" y="790" on="1"/>
        <pt x="80" y="945" on="1"/>
        <pt x="173" y="945" on="1"/>
        <pt x="246" y="802" on="1"/>
      </contour>
      <contour>
        <pt x="343" y="790" on="1"/>
        <pt x="241" y="945" on="1"/>
        <pt x="334" y="945" on="1"/>
        <pt x="407" y="802" on="1"/>
      </contour>
    </TTGlyph>
    <TTGlyph name="Edblgrave.sc" xMin="70" yMin="0" xMax="465" yMax="746">
      <contour>
        <pt x="70" y="577" on="1"/>
        <pt x="458" y="577" on="1"/>
        <pt x="458" y="498" on="1"/>
        <pt x="168" y="498" on="1"/>
        <pt x="168" y="329" on="1"/>
        <pt x="431" y="329" on="1"/>
        <pt x="431" y="254" on="1"/>
        <pt x="168" y="254" on="1"/>
        <pt x="168" y="80" on="1"/>
        <pt x="465" y="80" on="1"/>
        <pt x="465" y="0" on="1"/>
        <pt x="70" y="0" on="1"/>
      </contour>
      <contour>
        <pt x="74" y="746" on="1"/>
        <pt x="164" y="746" on="1"/>
        <pt x="226" y="627" on="1"/>
        <pt x="165" y="617" on="1"/>
      </contour>
      <contour>
        <pt x="220" y="746" on="1"/>
        <pt x="309" y="746" on="1"/>
        <pt x="371" y="627" on="1"/>
        <pt x="310" y="617" on="1"/>
      </contour>
    </TTGlyph>
    <TTGlyph name="Edieresis" xMin="74" yMin="0" xMax="515" yMax="930">
      <contour>
        <pt x="178" y="810" on="1"/>
        <pt x="117" y="810" on="0"/>
        <pt x="117" y="871" on="1"/>
        <pt x="117" y="930" on="0"/>
        <pt x="178" y="930" on="1"/>
        <pt x="239" y="930" on="0"/>
        <pt x="239" y="871" on="1"/>
        <pt x="239" y="839" on="0"/>
        <pt x="208" y="810" on="0"/>
      </contour>
      <contour>
        <pt x="404" y="810" on="1"/>
        <pt x="343" y="810" on="0"/>
        <pt x="343" y="871" on="1"/>
        <pt x="343" y="930" on="0"/>
        <pt x="404" y="930" on="1"/>
        <pt x="466" y="930" on="0"/>
        <pt x="466" y="871" on="1"/>
        <pt x="466" y="839" on="0"/>
        <pt x="434" y="810" on="0"/>
      </contour>
      <contour>
        <pt x="74" y="740" on="1"/>
        <pt x="506" y="740" on="1"/>
        <pt x="506" y="653" on="1"/>
        <pt x="177" y="653" on="1"/>
        <pt x="177" y="417" on="1"/>
        <pt x="474" y="417" on="1"/>
        <pt x="474" y="330" on="1"/>
        <pt x="177" y="330" on="1"/>
        <pt x="177" y="87" on="1"/>
        <pt x="515" y="87" on="1"/>
        <pt x="515" y="0" on="1"/>
        <pt x="74" y="0" on="1"/>
      </contour>
    </TTGlyph>
    <TTGlyph name="Edieresis.sc" xMin="70" yMin="0" xMax="465" yMax="740">
      <contour>
        <pt x="164" y="630" on="1"/>
        <pt x="107" y="630" on="0"/>
        <pt x="107" y="685" on="1"/>
        <pt x="107" y="740" on="0"/>
        <pt x="164" y="740" on="1"/>
        <pt x="222" y="740" on="0"/>
        <pt x="222" y="685" on="1"/>
        <pt x="222" y="630" on="0"/>
      </contour>
      <contour>
        <pt x="369" y="630" on="1"/>
        <pt x="311" y="630" on="0"/>
        <pt x="311" y="685" on="1"/>
        <pt x="311" y="740" on="0"/>
        <pt x="369" y="740" on="1"/>
        <pt x="427" y="740" on="0"/>
        <pt x="427" y="685" on="1"/>
        <pt x="427" y="630" on="0"/>
      </contour>
      <contour>
        <pt x="70" y="577" on="1"/>
        <pt x="458" y="577" on="1"/>
        <pt x="458" y="498" on="1"/>
        <pt x="168" y="498" on="1"/>
        <pt x="168" y="329" on="1"/>
        <pt x="431" y="329" on="1"/>
        <pt x="431" y="254" on="1"/>
        <pt x="168" y="254" on="1"/>
        <pt x="168" y="80" on="1"/>
        <pt x="465" y="80" on="1"/>
        <pt x="465" y="0" on="1"/>
        <pt x="70" y="0" on="1"/>
      </contour>
    </TTGlyph>
    <TTGlyph name="Edotaccent" xMin="74" yMin="0" xMax="515" yMax="923">
      <contour>
        <pt x="290" y="803" on="1"/>
        <pt x="229" y="803" on="0"/>
        <pt x="229" y="862" on="1"/>
        <pt x="229" y="894" on="0"/>
        <pt x="259" y="923" on="0"/>
        <pt x="290" y="923" on="1"/>
        <pt x="352" y="923" on="0"/>
        <pt x="352" y="862" on="1"/>
        <pt x="352" y="803" on="0"/>
      </contour>
      <contour>
        <pt x="74" y="740" on="1"/>
        <pt x="506" y="740" on="1"/>
        <pt x="506" y="653" on="1"/>
        <pt x="177" y="653" on="1"/>
        <pt x="177" y="417" on="1"/>
        <pt x="474" y="417" on="1"/>
        <pt x="474" y="330" on="1"/>
        <pt x="177" y="330" on="1"/>
        <pt x="177" y="87" on="1"/>
        <pt x="515" y="87" on="1"/>
        <pt x="515" y="0" on="1"/>
        <pt x="74" y="0" on="1"/>
      </contour>
    </TTGlyph>
    <TTGlyph name="Edotaccent.sc" xMin="70" yMin="0" xMax="465" yMax="735">
      <contour>
        <pt x="264" y="625" on="1"/>
        <pt x="207" y="625" on="0"/>
        <pt x="207" y="681" on="1"/>
        <pt x="207" y="710" on="0"/>
        <pt x="235" y="735" on="0"/>
        <pt x="264" y="735" on="1"/>
        <pt x="293" y="735" on="0"/>
        <pt x="321" y="710" on="0"/>
        <pt x="321" y="681" on="1"/>
        <pt x="321" y="625" on="0"/>
      </contour>
      <contour>
        <pt x="70" y="577" on="1"/>
        <pt x="458" y="577" on="1"/>
        <pt x="458" y="498" on="1"/>
        <pt x="168" y="498" on="1"/>
        <pt x="168" y="329" on="1"/>
        <pt x="431" y="329" on="1"/>
        <pt x="431" y="254" on="1"/>
        <pt x="168" y="254" on="1"/>
        <pt x="168" y="80" on="1"/>
        <pt x="465" y="80" on="1"/>
        <pt x="465" y="0" on="1"/>
        <pt x="70" y="0" on="1"/>
      </contour>
    </TTGlyph>
    <TTGlyph name="Edotbelow" xMin="74" yMin="-186" xMax="515" yMax="740">
      <contour>
        <pt x="74" y="740" on="1"/>
        <pt x="506" y="740" on="1"/>
        <pt x="506" y="653" on="1"/>
        <pt x="177" y="653" on="1"/>
        <pt x="177" y="417" on="1"/>
        <pt x="474" y="417" on="1"/>
        <pt x="474" y="330" on="1"/>
        <pt x="177" y="330" on="1"/>
        <pt x="177" y="87" on="1"/>
        <pt x="515" y="87" on="1"/>
        <pt x="515" y="0" on="1"/>
        <pt x="74" y="0" on="1"/>
      </contour>
      <contour>
        <pt x="305" y="-186" on="1"/>
        <pt x="277" y="-186" on="0"/>
        <pt x="251" y="-161" on="0"/>
        <pt x="251" y="-132" on="1"/>
        <pt x="251" y="-103" on="0"/>
        <pt x="277" y="-79" on="0"/>
        <pt x="305" y="-79" on="1"/>
        <pt x="332" y="-79" on="0"/>
        <pt x="359" y="-103" on="0"/>
        <pt x="359" y="-132" on="1"/>
        <pt x="359" y="-161" on="0"/>
        <pt x="332" y="-186" on="0"/>
      </contour>
    </TTGlyph>
    <TTGlyph name="Edotbelow.sc" xMin="70" yMin="-151" xMax="465" yMax="577">
      <contour>
        <pt x="277" y="-151" on="1"/>
        <pt x="251" y="-151" on="0"/>
        <pt x="228" y="-130" on="0"/>
        <pt x="228" y="-105" on="1"/>
        <pt x="228" y="-58" on="0"/>
        <pt x="277" y="-58" on="1"/>
        <pt x="327" y="-58" on="0"/>
        <pt x="327" y="-105" on="1"/>
        <pt x="327" y="-151" on="0"/>
      </contour>
      <contour>
        <pt x="70" y="577" on="1"/>
        <pt x="458" y="577" on="1"/>
        <pt x="458" y="498" on="1"/>
        <pt x="168" y="498" on="1"/>
        <pt x="168" y="329" on="1"/>
        <pt x="431" y="329" on="1"/>
        <pt x="431" y="254" on="1"/>
        <pt x="168" y="254" on="1"/>
        <pt x="168" y="80" on="1"/>
        <pt x="465" y="80" on="1"/>
        <pt x="465" y="0" on="1"/>
        <pt x="70" y="0" on="1"/>
      </contour>
    </TTGlyph>
    <TTGlyph name="Egrave" xMin="74" yMin="0" xMax="515" yMax="946">
      <contour>
        <pt x="253" y="791" on="1"/>
        <pt x="152" y="946" on="1"/>
        <pt x="257" y="946" on="1"/>
        <pt x="329" y="804" on="1"/>
      </contour>
      <contour>
        <pt x="74" y="740" on="1"/>
        <pt x="506" y="740" on="1"/>
        <pt x="506" y="653" on="1"/>
        <pt x="177" y="653" on="1"/>
        <pt x="177" y="417" on="1"/>
        <pt x="474" y="417" on="1"/>
        <pt x="474" y="330" on="1"/>
        <pt x="177" y="330" on="1"/>
        <pt x="177" y="87" on="1"/>
        <pt x="515" y="87" on="1"/>
        <pt x="515" y="0" on="1"/>
        <pt x="74" y="0" on="1"/>
      </contour>
    </TTGlyph>
    <TTGlyph name="Egrave.sc" xMin="70" yMin="0" xMax="465" yMax="747">
      <contour>
        <pt x="70" y="577" on="1"/>
        <pt x="458" y="577" on="1"/>
        <pt x="458" y="498" on="1"/>
        <pt x="168" y="498" on="1"/>
        <pt x="168" y="329" on="1"/>
        <pt x="431" y="329" on="1"/>
        <pt x="431" y="254" on="1"/>
        <pt x="168" y="254" on="1"/>
        <pt x="168" y="80" on="1"/>
        <pt x="465" y="80" on="1"/>
        <pt x="465" y="0" on="1"/>
        <pt x="70" y="0" on="1"/>
      </contour>
      <contour>
        <pt x="141" y="747" on="1"/>
        <pt x="240" y="747" on="1"/>
        <pt x="303" y="628" on="1"/>
        <pt x="231" y="619" on="1"/>
      </contour>
    </TTGlyph>
    <TTGlyph name="Einvertedbreve" xMin="74" yMin="0" xMax="515" yMax="970">
      <contour>
        <pt x="74" y="740" on="1"/>
        <pt x="506" y="740" on="1"/>
        <pt x="506" y="653" on="1"/>
        <pt x="177" y="653" on="1"/>
        <pt x="177" y="417" on="1"/>
        <pt x="474" y="417" on="1"/>
        <pt x="474" y="330" on="1"/>
        <pt x="177" y="330" on="1"/>
        <pt x="177" y="87" on="1"/>
        <pt x="515" y="87" on="1"/>
        <pt x="515" y="0" on="1"/>
        <pt x="74" y="0" on="1"/>
      </contour>
      <contour>
        <pt x="385" y="816" on="1"/>
        <pt x="385" y="914" on="0"/>
        <pt x="291" y="914" on="1"/>
        <pt x="196" y="914" on="0"/>
        <pt x="196" y="816" on="1"/>
        <pt x="123" y="816" on="1"/>
        <pt x="123" y="888" on="0"/>
        <pt x="208" y="970" on="0"/>
        <pt x="291" y="970" on="1"/>
        <pt x="374" y="970" on="0"/>
        <pt x="459" y="888" on="0"/>
        <pt x="459" y="816" on="1"/>
      </contour>
    </TTGlyph>
    <TTGlyph name="Einvertedbreve.sc" xMin="70" yMin="0" xMax="465" yMax="761">
      <contour>
        <pt x="114" y="635" on="1"/>
        <pt x="114" y="693" on="0"/>
        <pt x="189" y="761" on="0"/>
        <pt x="266" y="761" on="1"/>
        <pt x="341" y="761" on="0"/>
        <pt x="417" y="693" on="0"/>
        <pt x="417" y="635" on="1"/>
        <pt x="348" y="635" on="1"/>
        <pt x="348" y="711" on="0"/>
        <pt x="266" y="711" on="1"/>
        <pt x="183" y="711" on="0"/>
        <pt x="183" y="635" on="1"/>
      </contour>
      <contour>
        <pt x="70" y="577" on="1"/>
        <pt x="458" y="577" on="1"/>
        <pt x="458" y="498" on="1"/>
        <pt x="168" y="498" on="1"/>
        <pt x="168" y="329" on="1"/>
        <pt x="431" y="329" on="1"/>
        <pt x="431" y="254" on="1"/>
        <pt x="168" y="254" on="1"/>
        <pt x="168" y="80" on="1"/>
        <pt x="465" y="80" on="1"/>
        <pt x="465" y="0" on="1"/>
        <pt x="70" y="0" on="1"/>
      </contour>
    </TTGlyph>
    <TTGlyph name="Emacron" xMin="74" yMin="0" xMax="515" yMax="913">
      <contour>
        <pt x="143" y="913" on="1"/>
        <pt x="431" y="913" on="1"/>
        <pt x="431" y="840" on="1"/>
        <pt x="143" y="840" on="1"/>
      </contour>
      <contour>
        <pt x="74" y="740" on="1"/>
        <pt x="506" y="740" on="1"/>
        <pt x="506" y="653" on="1"/>
        <pt x="177" y="653" on="1"/>
        <pt x="177" y="417" on="1"/>
        <pt x="474" y="417" on="1"/>
        <pt x="474" y="330" on="1"/>
        <pt x="177" y="330" on="1"/>
        <pt x="177" y="87" on="1"/>
        <pt x="515" y="87" on="1"/>
        <pt x="515" y="0" on="1"/>
        <pt x="74" y="0" on="1"/>
      </contour>
    </TTGlyph>
    <TTGlyph name="Emacron.sc" xMin="70" yMin="0" xMax="465" yMax="722">
      <contour>
        <pt x="70" y="577" on="1"/>
        <pt x="458" y="577" on="1"/>
        <pt x="458" y="498" on="1"/>
        <pt x="168" y="498" on="1"/>
        <pt x="168" y="329" on="1"/>
        <pt x="431" y="329" on="1"/>
        <pt x="431" y="254" on="1"/>
        <pt x="168" y="254" on="1"/>
        <pt x="168" y="80" on="1"/>
        <pt x="465" y="80" on="1"/>
        <pt x="465" y="0" on="1"/>
        <pt x="70" y="0" on="1"/>
      </contour>
      <contour>
        <pt x="131" y="722" on="1"/>
        <pt x="393" y="722" on="1"/>
        <pt x="393" y="655" on="1"/>
        <pt x="131" y="655" on="1"/>
      </contour>
    </TTGlyph>
    <TTGlyph name="Eng" xMin="74" yMin="-192" xMax="629" yMax="740">
      <contour>
        <pt x="455" y="-170" on="1"/>
        <pt x="478" y="-118" on="0"/>
        <pt x="512" y="-16" on="0"/>
        <pt x="520" y="29" on="1"/>
        <pt x="223" y="484" on="1"/>
        <pt x="174" y="571" on="1"/>
        <pt x="167" y="570" on="1"/>
        <pt x="167" y="0" on="1"/>
        <pt x="74" y="0" on="1"/>
        <pt x="74" y="740" on="1"/>
        <pt x="162" y="740" on="1"/>
        <pt x="481" y="254" on="1"/>
        <pt x="529" y="170" on="1"/>
        <pt x="535" y="170" on="1"/>
        <pt x="535" y="740" on="1"/>
        <pt x="629" y="740" on="1"/>
        <pt x="629" y="85" on="1"/>
        <pt x="629" y="59" on="0"/>
        <pt x="613" y="-9" on="0"/>
        <pt x="585" y="-84" on="0"/>
        <pt x="547" y="-159" on="0"/>
        <pt x="526" y="-192" on="1"/>
      </contour>
    </TTGlyph>
    <TTGlyph name="Eng.sc" xMin="71" yMin="-154" xMax="562" yMax="577">
      <contour>
        <pt x="405" y="-133" on="1"/>
        <pt x="426" y="-90" on="0"/>
        <pt x="455" y="-9" on="0"/>
        <pt x="462" y="27" on="1"/>
        <pt x="209" y="352" on="1"/>
        <pt x="165" y="419" on="1"/>
        <pt x="159" y="419" on="1"/>
        <pt x="159" y="0" on="1"/>
        <pt x="71" y="0" on="1"/>
        <pt x="71" y="577" on="1"/>
        <pt x="153" y="577" on="1"/>
        <pt x="425" y="225" on="1"/>
        <pt x="468" y="159" on="1"/>
        <pt x="474" y="159" on="1"/>
        <pt x="474" y="577" on="1"/>
        <pt x="562" y="577" on="1"/>
        <pt x="562" y="75" on="1"/>
        <pt x="562" y="54" on="0"/>
        <pt x="548" y="-2" on="0"/>
        <pt x="524" y="-64" on="0"/>
        <pt x="490" y="-126" on="0"/>
        <pt x="471" y="-154" on="1"/>
      </contour>
    </TTGlyph>
    <TTGlyph name="Eogonek" xMin="74" yMin="-220" xMax="515" yMax="740">
      <contour>
        <pt x="74" y="740" on="1"/>
        <pt x="506" y="740" on="1"/>
        <pt x="506" y="653" on="1"/>
        <pt x="177" y="653" on="1"/>
        <pt x="177" y="417" on="1"/>
        <pt x="474" y="417" on="1"/>
        <pt x="474" y="330" on="1"/>
        <pt x="177" y="330" on="1"/>
        <pt x="177" y="87" on="1"/>
        <pt x="515" y="87" on="1"/>
        <pt x="515" y="-14" on="1"/>
        <pt x="461" y="-37" on="0"/>
        <pt x="411" y="-94" on="0"/>
        <pt x="411" y="-122" on="1"/>
        <pt x="411" y="-156" on="0"/>
        <pt x="454" y="-156" on="1"/>
        <pt x="485" y="-156" on="0"/>
        <pt x="515" y="-145" on="1"/>
        <pt x="515" y="-208" on="1"/>
        <pt x="482" y="-220" on="0"/>
        <pt x="447" y="-220" on="1"/>
        <pt x="340" y="-220" on="0"/>
        <pt x="340" y="-130" on="1"/>
        <pt x="340" y="-93" on="0"/>
        <pt x="384" y="-30" on="0"/>
        <pt x="432" y="0" on="1"/>
        <pt x="74" y="0" on="1"/>
      </contour>
    </TTGlyph>
    <TTGlyph name="Eogonek.sc" xMin="71" yMin="-172" xMax="465" yMax="577">
      <contour>
        <pt x="403" y="-172" on="1"/>
        <pt x="306" y="-172" on="0"/>
        <pt x="306" y="-100" on="1"/>
        <pt x="306" y="-71" on="0"/>
        <pt x="343" y="-24" on="0"/>
        <pt x="384" y="0" on="1"/>
        <pt x="71" y="0" on="1"/>
        <pt x="71" y="577" on="1"/>
        <pt x="458" y="577" on="1"/>
        <pt x="458" y="498" on="1"/>
        <pt x="168" y="498" on="1"/>
        <pt x="168" y="329" on="1"/>
        <pt x="431" y="329" on="1"/>
        <pt x="431" y="254" on="1"/>
        <pt x="168" y="254" on="1"/>
        <pt x="168" y="80" on="1"/>
        <pt x="465" y="80" on="1"/>
        <pt x="465" y="-9" on="1"/>
        <pt x="416" y="-28" on="0"/>
        <pt x="374" y="-70" on="0"/>
        <pt x="374" y="-90" on="1"/>
        <pt x="374" y="-114" on="0"/>
        <pt x="410" y="-114" on="1"/>
        <pt x="423" y="-114" on="0"/>
        <pt x="454" y="-109" on="0"/>
        <pt x="465" y="-105" on="1"/>
        <pt x="465" y="-162" on="1"/>
        <pt x="449" y="-167" on="0"/>
        <pt x="420" y="-172" on="0"/>
      </contour>
    </TTGlyph>
    <TTGlyph name="Eth" xMin="1" yMin="-14" xMax="619" yMax="750">
      <contour>
        <pt x="1" y="411" on="1"/>
        <pt x="89" y="411" on="1"/>
        <pt x="89" y="736" on="1"/>
        <pt x="145" y="743" on="0"/>
        <pt x="236" y="750" on="0"/>
        <pt x="272" y="750" on="1"/>
        <pt x="363" y="750" on="0"/>
        <pt x="494" y="705" on="0"/>
        <pt x="579" y="612" on="0"/>
        <pt x="619" y="468" on="0"/>
        <pt x="619" y="369" on="1"/>
        <pt x="619" y="268" on="0"/>
        <pt x="577" y="123" on="0"/>
        <pt x="486" y="30" on="0"/>
        <pt x="345" y="-14" on="0"/>
        <pt x="246" y="-14" on="1"/>
        <pt x="206" y="-14" on="0"/>
        <pt x="127" y="-9" on="0"/>
        <pt x="89" y="-4" on="1"/>
        <pt x="89" y="330" on="1"/>
        <pt x="1" y="330" on="1"/>
      </contour>
      <contour>
        <pt x="279" y="72" on="1"/>
        <pt x="340" y="72" on="0"/>
        <pt x="429" y="105" on="0"/>
        <pt x="486" y="177" on="0"/>
        <pt x="513" y="290" on="0"/>
        <pt x="513" y="369" on="1"/>
        <pt x="513" y="449" on="0"/>
        <pt x="488" y="561" on="0"/>
        <pt x="433" y="632" on="0"/>
        <pt x="346" y="664" on="0"/>
        <pt x="285" y="664" on="1"/>
        <pt x="262" y="664" on="0"/>
        <pt x="214" y="660" on="0"/>
        <pt x="191" y="657" on="1"/>
        <pt x="191" y="411" on="1"/>
        <pt x="331" y="411" on="1"/>
        <pt x="331" y="330" on="1"/>
        <pt x="191" y="330" on="1"/>
        <pt x="191" y="78" on="1"/>
        <pt x="217" y="75" on="0"/>
        <pt x="258" y="72" on="0"/>
      </contour>
    </TTGlyph>
    <TTGlyph name="Eth.sc" xMin="7" yMin="-10" xMax="560" yMax="585">
      <contour>
        <pt x="7" y="326" on="1"/>
        <pt x="84" y="326" on="1"/>
        <pt x="84" y="575" on="1"/>
        <pt x="135" y="580" on="0"/>
        <pt x="218" y="585" on="0"/>
        <pt x="250" y="585" on="1"/>
        <pt x="331" y="585" on="0"/>
        <pt x="449" y="551" on="0"/>
        <pt x="524" y="478" on="0"/>
        <pt x="560" y="366" on="0"/>
        <pt x="560" y="288" on="1"/>
        <pt x="560" y="208" on="0"/>
        <pt x="522" y="95" on="0"/>
        <pt x="442" y="23" on="0"/>
        <pt x="316" y="-10" on="0"/>
        <pt x="228" y="-10" on="1"/>
        <pt x="191" y="-10" on="0"/>
        <pt x="118" y="-6" on="0"/>
        <pt x="84" y="-1" on="1"/>
        <pt x="84" y="252" on="1"/>
        <pt x="7" y="252" on="1"/>
      </contour>
      <contour>
        <pt x="260" y="71" on="1"/>
        <pt x="312" y="71" on="0"/>
        <pt x="388" y="94" on="0"/>
        <pt x="436" y="146" on="0"/>
        <pt x="459" y="229" on="0"/>
        <pt x="459" y="288" on="1"/>
        <pt x="459" y="348" on="0"/>
        <pt x="437" y="430" on="0"/>
        <pt x="390" y="481" on="0"/>
        <pt x="316" y="504" on="0"/>
        <pt x="263" y="504" on="1"/>
        <pt x="243" y="504" on="0"/>
        <pt x="201" y="502" on="0"/>
        <pt x="181" y="499" on="1"/>
        <pt x="181" y="326" on="1"/>
        <pt x="300" y="326" on="1"/>
        <pt x="300" y="252" on="1"/>
        <pt x="181" y="252" on="1"/>
        <pt x="181" y="75" on="1"/>
        <pt x="204" y="73" on="0"/>
        <pt x="241" y="71" on="0"/>
      </contour>
    </TTGlyph>
    <TTGlyph name="Etilde" xMin="74" yMin="0" xMax="515" yMax="933">
      <contour>
        <pt x="115" y="849" on="1"/>
        <pt x="139" y="888" on="0"/>
        <pt x="202" y="933" on="0"/>
        <pt x="233" y="933" on="1"/>
        <pt x="254" y="933" on="0"/>
        <pt x="291" y="920" on="0"/>
        <pt x="327" y="904" on="0"/>
        <pt x="362" y="891" on="0"/>
        <pt x="381" y="891" on="1"/>
        <pt x="419" y="891" on="0"/>
        <pt x="453" y="931" on="1"/>
        <pt x="478" y="907" on="1"/>
        <pt x="457" y="865" on="0"/>
        <pt x="393" y="822" on="0"/>
        <pt x="361" y="822" on="1"/>
        <pt x="341" y="822" on="0"/>
        <pt x="304" y="834" on="0"/>
        <pt x="268" y="849" on="0"/>
        <pt x="233" y="862" on="0"/>
        <pt x="214" y="862" on="1"/>
        <pt x="176" y="862" on="0"/>
        <pt x="138" y="824" on="1"/>
      </contour>
      <contour>
        <pt x="74" y="740" on="1"/>
        <pt x="506" y="740" on="1"/>
        <pt x="506" y="653" on="1"/>
        <pt x="177" y="653" on="1"/>
        <pt x="177" y="417" on="1"/>
        <pt x="474" y="417" on="1"/>
        <pt x="474" y="330" on="1"/>
        <pt x="177" y="330" on="1"/>
        <pt x="177" y="87" on="1"/>
        <pt x="515" y="87" on="1"/>
        <pt x="515" y="0" on="1"/>
        <pt x="74" y="0" on="1"/>
      </contour>
    </TTGlyph>
    <TTGlyph name="Etilde.sc" xMin="70" yMin="0" xMax="465" yMax="736">
      <contour>
        <pt x="107" y="662" on="1"/>
        <pt x="129" y="697" on="0"/>
        <pt x="187" y="736" on="0"/>
        <pt x="215" y="736" on="1"/>
        <pt x="233" y="736" on="0"/>
        <pt x="266" y="726" on="0"/>
        <pt x="298" y="715" on="0"/>
        <pt x="330" y="705" on="0"/>
        <pt x="348" y="705" on="1"/>
        <pt x="383" y="705" on="0"/>
        <pt x="413" y="735" on="1"/>
        <pt x="435" y="716" on="1"/>
        <pt x="415" y="679" on="0"/>
        <pt x="357" y="640" on="0"/>
        <pt x="328" y="640" on="1"/>
        <pt x="310" y="640" on="0"/>
        <pt x="277" y="650" on="0"/>
        <pt x="244" y="662" on="0"/>
        <pt x="212" y="672" on="0"/>
        <pt x="195" y="672" on="1"/>
        <pt x="160" y="672" on="0"/>
        <pt x="127" y="642" on="1"/>
      </contour>
      <contour>
        <pt x="70" y="577" on="1"/>
        <pt x="458" y="577" on="1"/>
        <pt x="458" y="498" on="1"/>
        <pt x="168" y="498" on="1"/>
        <pt x="168" y="329" on="1"/>
        <pt x="431" y="329" on="1"/>
        <pt x="431" y="254" on="1"/>
        <pt x="168" y="254" on="1"/>
        <pt x="168" y="80" on="1"/>
        <pt x="465" y="80" on="1"/>
        <pt x="465" y="0" on="1"/>
        <pt x="70" y="0" on="1"/>
      </contour>
    </TTGlyph>
    <TTGlyph name="Euro" xMin="37" yMin="-10" xMax="534" yMax="749">
      <contour>
        <pt x="37" y="486" on="1"/>
        <pt x="119" y="486" on="1"/>
        <pt x="140" y="622" on="0"/>
        <pt x="294" y="749" on="0"/>
        <pt x="437" y="749" on="1"/>
        <pt x="469" y="749" on="0"/>
        <pt x="514" y="744" on="0"/>
        <pt x="534" y="739" on="1"/>
        <pt x="509" y="656" on="1"/>
        <pt x="496" y="658" on="0"/>
        <pt x="468" y="660" on="0"/>
        <pt x="452" y="660" on="1"/>
        <pt x="399" y="660" on="0"/>
        <pt x="320" y="642" on="0"/>
        <pt x="264" y="600" on="0"/>
        <pt x="231" y="534" on="0"/>
        <pt x="223" y="486" on="1"/>
        <pt x="460" y="486" on="1"/>
        <pt x="441" y="422" on="1"/>
        <pt x="216" y="422" on="1"/>
        <pt x="215" y="409" on="0"/>
        <pt x="215" y="383" on="0"/>
        <pt x="215" y="369" on="1"/>
        <pt x="215" y="355" on="0"/>
        <pt x="215" y="330" on="0"/>
        <pt x="216" y="318" on="1"/>
        <pt x="427" y="318" on="1"/>
        <pt x="408" y="254" on="1"/>
        <pt x="223" y="254" on="1"/>
        <pt x="231" y="207" on="0"/>
        <pt x="265" y="140" on="0"/>
        <pt x="320" y="98" on="0"/>
        <pt x="397" y="78" on="0"/>
        <pt x="449" y="78" on="1"/>
        <pt x="466" y="78" on="0"/>
        <pt x="505" y="83" on="0"/>
        <pt x="524" y="87" on="1"/>
        <pt x="524" y="-1" on="1"/>
        <pt x="492" y="-10" on="0"/>
        <pt x="439" y="-10" on="1"/>
        <pt x="297" y="-9" on="0"/>
        <pt x="141" y="120" on="0"/>
        <pt x="119" y="254" on="1"/>
        <pt x="37" y="254" on="1"/>
        <pt x="37" y="318" on="1"/>
        <pt x="112" y="318" on="1"/>
        <pt x="111" y="330" on="0"/>
        <pt x="111" y="355" on="0"/>
        <pt x="111" y="369" on="1"/>
        <pt x="111" y="383" on="0"/>
        <pt x="111" y="409" on="0"/>
        <pt x="112" y="422" on="1"/>
        <pt x="37" y="422" on="1"/>
      </contour>
    </TTGlyph>
    <TTGlyph name="Euro.tab" xMin="26" yMin="-10" xMax="519" yMax="749">
      <contour>
        <pt x="26" y="486" on="1"/>
        <pt x="108" y="486" on="1"/>
        <pt x="129" y="623" on="0"/>
        <pt x="282" y="749" on="0"/>
        <pt x="422" y="749" on="1"/>
        <pt x="454" y="749" on="0"/>
        <pt x="499" y="744" on="0"/>
        <pt x="519" y="739" on="1"/>
        <pt x="495" y="656" on="1"/>
        <pt x="482" y="658" on="0"/>
        <pt x="453" y="660" on="0"/>
        <pt x="437" y="660" on="1"/>
        <pt x="335" y="660" on="0"/>
        <pt x="229" y="580" on="0"/>
        <pt x="214" y="486" on="1"/>
        <pt x="446" y="486" on="1"/>
        <pt x="428" y="422" on="1"/>
        <pt x="204" y="422" on="1"/>
        <pt x="203" y="412" on="0"/>
        <pt x="202" y="380" on="0"/>
        <pt x="202" y="369" on="1"/>
        <pt x="202" y="358" on="0"/>
        <pt x="203" y="327" on="0"/>
        <pt x="204" y="318" on="1"/>
        <pt x="413" y="318" on="1"/>
        <pt x="394" y="254" on="1"/>
        <pt x="213" y="254" on="1"/>
        <pt x="229" y="161" on="0"/>
        <pt x="336" y="78" on="0"/>
        <pt x="435" y="78" on="1"/>
        <pt x="452" y="78" on="0"/>
        <pt x="490" y="83" on="0"/>
        <pt x="509" y="87" on="1"/>
        <pt x="509" y="-1" on="1"/>
        <pt x="479" y="-10" on="0"/>
        <pt x="425" y="-10" on="1"/>
        <pt x="285" y="-8" on="0"/>
        <pt x="130" y="118" on="0"/>
        <pt x="108" y="254" on="1"/>
        <pt x="26" y="254" on="1"/>
        <pt x="26" y="318" on="1"/>
        <pt x="100" y="318" on="1"/>
        <pt x="99" y="329" on="0"/>
        <pt x="99" y="356" on="0"/>
        <pt x="99" y="369" on="1"/>
        <pt x="99" y="383" on="0"/>
        <pt x="99" y="410" on="0"/>
        <pt x="100" y="422" on="1"/>
        <pt x="26" y="422" on="1"/>
      </contour>
    </TTGlyph>
    <TTGlyph name="F" xMin="74" yMin="0" xMax="494" yMax="740">
      <contour>
        <pt x="74" y="740" on="1"/>
        <pt x="494" y="740" on="1"/>
        <pt x="494" y="653" on="1"/>
        <pt x="177" y="653" on="1"/>
        <pt x="177" y="408" on="1"/>
        <pt x="467" y="408" on="1"/>
        <pt x="467" y="321" on="1"/>
        <pt x="177" y="321" on="1"/>
        <pt x="177" y="0" on="1"/>
        <pt x="74" y="0" on="1"/>
      </contour>
    </TTGlyph>
    <TTGlyph name="F.sc" xMin="70" yMin="0" xMax="448" yMax="577">
      <contour>
        <pt x="70" y="577" on="1"/>
        <pt x="448" y="577" on="1"/>
        <pt x="448" y="496" on="1"/>
        <pt x="168" y="496" on="1"/>
        <pt x="168" y="321" on="1"/>
        <pt x="424" y="321" on="1"/>
        <pt x="424" y="242" on="1"/>
        <pt x="168" y="242" on="1"/>
        <pt x="168" y="0" on="1"/>
        <pt x="70" y="0" on="1"/>
      </contour>
    </TTGlyph>
    <TTGlyph name="F_B.sc" xMin="70" yMin="-8" xMax="976" yMax="585">
      <contour>
        <pt x="70" y="577" on="1"/>
        <pt x="448" y="577" on="1"/>
        <pt x="448" y="496" on="1"/>
        <pt x="168" y="496" on="1"/>
        <pt x="168" y="321" on="1"/>
        <pt x="424" y="321" on="1"/>
        <pt x="424" y="242" on="1"/>
        <pt x="168" y="242" on="1"/>
        <pt x="168" y="0" on="1"/>
        <pt x="70" y="0" on="1"/>
      </contour>
      <contour>
        <pt x="728" y="-8" on="1"/>
        <pt x="683" y="-8" on="0"/>
        <pt x="581" y="-1" on="0"/>
        <pt x="537" y="4" on="1"/>
        <pt x="537" y="574" on="1"/>
        <pt x="597" y="579" on="0"/>
        <pt x="681" y="585" on="0"/>
        <pt x="720" y="585" on="1"/>
        <pt x="844" y="585" on="0"/>
        <pt x="956" y="508" on="0"/>
        <pt x="956" y="425" on="1"/>
        <pt x="956" y="374" on="0"/>
        <pt x="903" y="308" on="0"/>
        <pt x="852" y="297" on="1"/>
        <pt x="852" y="294" on="1"/>
        <pt x="912" y="284" on="0"/>
        <pt x="976" y="213" on="0"/>
        <pt x="976" y="155" on="1"/>
        <pt x="976" y="-8" on="0"/>
      </contour>
      <contour>
        <pt x="736" y="65" on="1"/>
        <pt x="879" y="65" on="0"/>
        <pt x="879" y="162" on="1"/>
        <pt x="879" y="213" on="0"/>
        <pt x="811" y="257" on="0"/>
        <pt x="732" y="257" on="1"/>
        <pt x="629" y="257" on="1"/>
        <pt x="629" y="70" on="1"/>
        <pt x="643" y="68" on="0"/>
        <pt x="701" y="65" on="0"/>
      </contour>
      <contour>
        <pt x="729" y="325" on="1"/>
        <pt x="800" y="325" on="0"/>
        <pt x="859" y="367" on="0"/>
        <pt x="859" y="419" on="1"/>
        <pt x="859" y="468" on="0"/>
        <pt x="797" y="511" on="0"/>
        <pt x="728" y="511" on="1"/>
        <pt x="701" y="511" on="0"/>
        <pt x="653" y="509" on="0"/>
        <pt x="629" y="506" on="1"/>
        <pt x="629" y="325" on="1"/>
      </contour>
    </TTGlyph>
    <TTGlyph name="F_F.sc" xMin="70" yMin="0" xMax="914" yMax="577">
      <contour>
        <pt x="70" y="577" on="1"/>
        <pt x="448" y="577" on="1"/>
        <pt x="448" y="496" on="1"/>
        <pt x="168" y="496" on="1"/>
        <pt x="168" y="321" on="1"/>
        <pt x="424" y="321" on="1"/>
        <pt x="424" y="242" on="1"/>
        <pt x="168" y="242" on="1"/>
        <pt x="168" y="0" on="1"/>
        <pt x="70" y="0" on="1"/>
      </contour>
      <contour>
        <pt x="536" y="577" on="1"/>
        <pt x="914" y="577" on="1"/>
        <pt x="914" y="496" on="1"/>
        <pt x="634" y="496" on="1"/>
        <pt x="634" y="321" on="1"/>
        <pt x="890" y="321" on="1"/>
        <pt x="890" y="242" on="1"/>
        <pt x="634" y="242" on="1"/>
        <pt x="634" y="0" on="1"/>
        <pt x="536" y="0" on="1"/>
      </contour>
    </TTGlyph>
    <TTGlyph name="F_F_B.sc" xMin="70" yMin="-8" xMax="1442" yMax="585">
      <contour>
        <pt x="70" y="577" on="1"/>
        <pt x="448" y="577" on="1"/>
        <pt x="448" y="496" on="1"/>
        <pt x="168" y="496" on="1"/>
        <pt x="168" y="321" on="1"/>
        <pt x="424" y="321" on="1"/>
        <pt x="424" y="242" on="1"/>
        <pt x="168" y="242" on="1"/>
        <pt x="168" y="0" on="1"/>
        <pt x="70" y="0" on="1"/>
      </contour>
      <contour>
        <pt x="536" y="577" on="1"/>
        <pt x="914" y="577" on="1"/>
        <pt x="914" y="496" on="1"/>
        <pt x="634" y="496" on="1"/>
        <pt x="634" y="321" on="1"/>
        <pt x="890" y="321" on="1"/>
        <pt x="890" y="242" on="1"/>
        <pt x="634" y="242" on="1"/>
        <pt x="634" y="0" on="1"/>
        <pt x="536" y="0" on="1"/>
      </contour>
      <contour>
        <pt x="1194" y="-8" on="1"/>
        <pt x="1149" y="-8" on="0"/>
        <pt x="1047" y="-1" on="0"/>
        <pt x="1003" y="4" on="1"/>
        <pt x="1003" y="574" on="1"/>
        <pt x="1063" y="579" on="0"/>
        <pt x="1147" y="585" on="0"/>
        <pt x="1186" y="585" on="1"/>
        <pt x="1310" y="585" on="0"/>
        <pt x="1422" y="508" on="0"/>
        <pt x="1422" y="425" on="1"/>
        <pt x="1422" y="374" on="0"/>
        <pt x="1369" y="308" on="0"/>
        <pt x="1318" y="297" on="1"/>
        <pt x="1318" y="294" on="1"/>
        <pt x="1378" y="284" on="0"/>
        <pt x="1442" y="213" on="0"/>
        <pt x="1442" y="155" on="1"/>
        <pt x="1442" y="-8" on="0"/>
      </contour>
      <contour>
        <pt x="1202" y="65" on="1"/>
        <pt x="1345" y="65" on="0"/>
        <pt x="1345" y="162" on="1"/>
        <pt x="1345" y="213" on="0"/>
        <pt x="1277" y="257" on="0"/>
        <pt x="1198" y="257" on="1"/>
        <pt x="1095" y="257" on="1"/>
        <pt x="1095" y="70" on="1"/>
        <pt x="1109" y="68" on="0"/>
        <pt x="1167" y="65" on="0"/>
      </contour>
      <contour>
        <pt x="1195" y="325" on="1"/>
        <pt x="1266" y="325" on="0"/>
        <pt x="1325" y="367" on="0"/>
        <pt x="1325" y="419" on="1"/>
        <pt x="1325" y="468" on="0"/>
        <pt x="1263" y="511" on="0"/>
        <pt x="1194" y="511" on="1"/>
        <pt x="1167" y="511" on="0"/>
        <pt x="1119" y="509" on="0"/>
        <pt x="1095" y="506" on="1"/>
        <pt x="1095" y="325" on="1"/>
      </contour>
    </TTGlyph>
    <TTGlyph name="F_F_H.sc" xMin="70" yMin="0" xMax="1484" yMax="577">
      <contour>
        <pt x="70" y="577" on="1"/>
        <pt x="448" y="577" on="1"/>
        <pt x="448" y="496" on="1"/>
        <pt x="168" y="496" on="1"/>
        <pt x="168" y="321" on="1"/>
        <pt x="424" y="321" on="1"/>
        <pt x="424" y="242" on="1"/>
        <pt x="168" y="242" on="1"/>
        <pt x="168" y="0" on="1"/>
        <pt x="70" y="0" on="1"/>
      </contour>
      <contour>
        <pt x="536" y="577" on="1"/>
        <pt x="914" y="577" on="1"/>
        <pt x="914" y="496" on="1"/>
        <pt x="634" y="496" on="1"/>
        <pt x="634" y="321" on="1"/>
        <pt x="890" y="321" on="1"/>
        <pt x="890" y="242" on="1"/>
        <pt x="634" y="242" on="1"/>
        <pt x="634" y="0" on="1"/>
        <pt x="536" y="0" on="1"/>
      </contour>
      <contour>
        <pt x="1002" y="577" on="1"/>
        <pt x="1100" y="577" on="1"/>
        <pt x="1100" y="336" on="1"/>
        <pt x="1386" y="336" on="1"/>
        <pt x="1386" y="577" on="1"/>
        <pt x="1484" y="577" on="1"/>
        <pt x="1484" y="0" on="1"/>
        <pt x="1386" y="0" on="1"/>
        <pt x="1386" y="255" on="1"/>
        <pt x="1100" y="255" on="1"/>
        <pt x="1100" y="0" on="1"/>
        <pt x="1002" y="0" on="1"/>
      </contour>
    </TTGlyph>
    <TTGlyph name="F_F_I.sc" xMin="70" yMin="0" xMax="1100" yMax="577">
      <contour>
        <pt x="70" y="577" on="1"/>
        <pt x="448" y="577" on="1"/>
        <pt x="448" y="496" on="1"/>
        <pt x="168" y="496" on="1"/>
        <pt x="168" y="321" on="1"/>
        <pt x="424" y="321" on="1"/>
        <pt x="424" y="242" on="1"/>
        <pt x="168" y="242" on="1"/>
        <pt x="168" y="0" on="1"/>
        <pt x="70" y="0" on="1"/>
      </contour>
      <contour>
        <pt x="536" y="577" on="1"/>
        <pt x="914" y="577" on="1"/>
        <pt x="914" y="496" on="1"/>
        <pt x="634" y="496" on="1"/>
        <pt x="634" y="321" on="1"/>
        <pt x="890" y="321" on="1"/>
        <pt x="890" y="242" on="1"/>
        <pt x="634" y="242" on="1"/>
        <pt x="634" y="0" on="1"/>
        <pt x="536" y="0" on="1"/>
      </contour>
      <contour>
        <pt x="1002" y="577" on="1"/>
        <pt x="1100" y="577" on="1"/>
        <pt x="1100" y="0" on="1"/>
        <pt x="1002" y="0" on="1"/>
      </contour>
    </TTGlyph>
    <TTGlyph name="F_F_J.sc" xMin="70" yMin="-154" xMax="1111" yMax="577">
      <contour>
        <pt x="70" y="577" on="1"/>
        <pt x="448" y="577" on="1"/>
        <pt x="448" y="496" on="1"/>
        <pt x="168" y="496" on="1"/>
        <pt x="168" y="321" on="1"/>
        <pt x="424" y="321" on="1"/>
        <pt x="424" y="242" on="1"/>
        <pt x="168" y="242" on="1"/>
        <pt x="168" y="0" on="1"/>
        <pt x="70" y="0" on="1"/>
      </contour>
      <contour>
        <pt x="536" y="577" on="1"/>
        <pt x="914" y="577" on="1"/>
        <pt x="914" y="496" on="1"/>
        <pt x="634" y="496" on="1"/>
        <pt x="634" y="321" on="1"/>
        <pt x="890" y="321" on="1"/>
        <pt x="890" y="242" on="1"/>
        <pt x="634" y="242" on="1"/>
        <pt x="634" y="0" on="1"/>
        <pt x="536" y="0" on="1"/>
      </contour>
      <contour>
        <pt x="944" y="-124" on="1"/>
        <pt x="964" y="-84" on="0"/>
        <pt x="991" y="-19" on="0"/>
        <pt x="1007" y="43" on="0"/>
        <pt x="1013" y="108" on="0"/>
        <pt x="1013" y="148" on="1"/>
        <pt x="1013" y="577" on="1"/>
        <pt x="1111" y="577" on="1"/>
        <pt x="1111" y="141" on="1"/>
        <pt x="1111" y="102" on="0"/>
        <pt x="1100" y="31" on="0"/>
        <pt x="1076" y="-39" on="0"/>
        <pt x="1036" y="-112" on="0"/>
        <pt x="1008" y="-154" on="1"/>
      </contour>
    </TTGlyph>
    <TTGlyph name="F_F_K.sc" xMin="70" yMin="0" xMax="1485" yMax="577">
      <contour>
        <pt x="70" y="577" on="1"/>
        <pt x="448" y="577" on="1"/>
        <pt x="448" y="496" on="1"/>
        <pt x="168" y="496" on="1"/>
        <pt x="168" y="321" on="1"/>
        <pt x="424" y="321" on="1"/>
        <pt x="424" y="242" on="1"/>
        <pt x="168" y="242" on="1"/>
        <pt x="168" y="0" on="1"/>
        <pt x="70" y="0" on="1"/>
      </contour>
      <contour>
        <pt x="536" y="577" on="1"/>
        <pt x="914" y="577" on="1"/>
        <pt x="914" y="496" on="1"/>
        <pt x="634" y="496" on="1"/>
        <pt x="634" y="321" on="1"/>
        <pt x="890" y="321" on="1"/>
        <pt x="890" y="242" on="1"/>
        <pt x="634" y="242" on="1"/>
        <pt x="634" y="0" on="1"/>
        <pt x="536" y="0" on="1"/>
      </contour>
      <contour>
        <pt x="1002" y="577" on="1"/>
        <pt x="1100" y="577" on="1"/>
        <pt x="1100" y="334" on="1"/>
        <pt x="1186" y="334" on="1"/>
        <pt x="1357" y="577" on="1"/>
        <pt x="1468" y="577" on="1"/>
        <pt x="1287" y="319" on="1"/>
        <pt x="1248" y="298" on="1"/>
        <pt x="1248" y="293" on="1"/>
        <pt x="1288" y="274" on="1"/>
        <pt x="1485" y="0" on="1"/>
        <pt x="1375" y="0" on="1"/>
        <pt x="1190" y="253" on="1"/>
        <pt x="1100" y="253" on="1"/>
        <pt x="1100" y="0" on="1"/>
        <pt x="1002" y="0" on="1"/>
      </contour>
    </TTGlyph>
    <TTGlyph name="F_F_L.sc" xMin="70" yMin="0" xMax="1343" yMax="577">
      <contour>
        <pt x="1002" y="577" on="1"/>
        <pt x="1100" y="577" on="1"/>
        <pt x="1100" y="81" on="1"/>
        <pt x="1343" y="81" on="1"/>
        <pt x="1343" y="0" on="1"/>
        <pt x="1002" y="0" on="1"/>
      </contour>
      <contour>
        <pt x="70" y="577" on="1"/>
        <pt x="448" y="577" on="1"/>
        <pt x="448" y="496" on="1"/>
        <pt x="168" y="496" on="1"/>
        <pt x="168" y="321" on="1"/>
        <pt x="424" y="321" on="1"/>
        <pt x="424" y="242" on="1"/>
        <pt x="168" y="242" on="1"/>
        <pt x="168" y="0" on="1"/>
        <pt x="70" y="0" on="1"/>
      </contour>
      <contour>
        <pt x="536" y="577" on="1"/>
        <pt x="914" y="577" on="1"/>
        <pt x="914" y="496" on="1"/>
        <pt x="634" y="496" on="1"/>
        <pt x="634" y="321" on="1"/>
        <pt x="890" y="321" on="1"/>
        <pt x="890" y="242" on="1"/>
        <pt x="634" y="242" on="1"/>
        <pt x="634" y="0" on="1"/>
        <pt x="536" y="0" on="1"/>
      </contour>
    </TTGlyph>
    <TTGlyph name="F_F_T.sc" xMin="70" yMin="0" xMax="1378" yMax="577">
      <contour>
        <pt x="1106" y="495" on="1"/>
        <pt x="932" y="495" on="1"/>
        <pt x="932" y="577" on="1"/>
        <pt x="1378" y="577" on="1"/>
        <pt x="1378" y="495" on="1"/>
        <pt x="1204" y="495" on="1"/>
        <pt x="1204" y="0" on="1"/>
        <pt x="1106" y="0" on="1"/>
      </contour>
      <contour>
        <pt x="70" y="577" on="1"/>
        <pt x="448" y="577" on="1"/>
        <pt x="448" y="496" on="1"/>
        <pt x="168" y="496" on="1"/>
        <pt x="168" y="321" on="1"/>
        <pt x="424" y="321" on="1"/>
        <pt x="424" y="242" on="1"/>
        <pt x="168" y="242" on="1"/>
        <pt x="168" y="0" on="1"/>
        <pt x="70" y="0" on="1"/>
      </contour>
      <contour>
        <pt x="536" y="577" on="1"/>
        <pt x="914" y="577" on="1"/>
        <pt x="914" y="496" on="1"/>
        <pt x="634" y="496" on="1"/>
        <pt x="634" y="321" on="1"/>
        <pt x="890" y="321" on="1"/>
        <pt x="890" y="242" on="1"/>
        <pt x="634" y="242" on="1"/>
        <pt x="634" y="0" on="1"/>
        <pt x="536" y="0" on="1"/>
      </contour>
    </TTGlyph>
    <TTGlyph name="F_H.sc" xMin="70" yMin="0" xMax="1018" yMax="577">
      <contour>
        <pt x="70" y="577" on="1"/>
        <pt x="448" y="577" on="1"/>
        <pt x="448" y="496" on="1"/>
        <pt x="168" y="496" on="1"/>
        <pt x="168" y="321" on="1"/>
        <pt x="424" y="321" on="1"/>
        <pt x="424" y="242" on="1"/>
        <pt x="168" y="242" on="1"/>
        <pt x="168" y="0" on="1"/>
        <pt x="70" y="0" on="1"/>
      </contour>
      <contour>
        <pt x="536" y="577" on="1"/>
        <pt x="634" y="577" on="1"/>
        <pt x="634" y="336" on="1"/>
        <pt x="920" y="336" on="1"/>
        <pt x="920" y="577" on="1"/>
        <pt x="1018" y="577" on="1"/>
        <pt x="1018" y="0" on="1"/>
        <pt x="920" y="0" on="1"/>
        <pt x="920" y="255" on="1"/>
        <pt x="634" y="255" on="1"/>
        <pt x="634" y="0" on="1"/>
        <pt x="536" y="0" on="1"/>
      </contour>
    </TTGlyph>
    <TTGlyph name="F_I.sc" xMin="70" yMin="0" xMax="634" yMax="577">
      <contour>
        <pt x="70" y="577" on="1"/>
        <pt x="448" y="577" on="1"/>
        <pt x="448" y="496" on="1"/>
        <pt x="168" y="496" on="1"/>
        <pt x="168" y="321" on="1"/>
        <pt x="424" y="321" on="1"/>
        <pt x="424" y="242" on="1"/>
        <pt x="168" y="242" on="1"/>
        <pt x="168" y="0" on="1"/>
        <pt x="70" y="0" on="1"/>
      </contour>
      <contour>
        <pt x="536" y="577" on="1"/>
        <pt x="634" y="577" on="1"/>
        <pt x="634" y="0" on="1"/>
        <pt x="536" y="0" on="1"/>
      </contour>
    </TTGlyph>
    <TTGlyph name="F_J.sc" xMin="70" yMin="-154" xMax="645" yMax="577">
      <contour>
        <pt x="70" y="577" on="1"/>
        <pt x="448" y="577" on="1"/>
        <pt x="448" y="496" on="1"/>
        <pt x="168" y="496" on="1"/>
        <pt x="168" y="321" on="1"/>
        <pt x="424" y="321" on="1"/>
        <pt x="424" y="242" on="1"/>
        <pt x="168" y="242" on="1"/>
        <pt x="168" y="0" on="1"/>
        <pt x="70" y="0" on="1"/>
      </contour>
      <contour>
        <pt x="478" y="-124" on="1"/>
        <pt x="498" y="-84" on="0"/>
        <pt x="525" y="-19" on="0"/>
        <pt x="541" y="43" on="0"/>
        <pt x="547" y="108" on="0"/>
        <pt x="547" y="148" on="1"/>
        <pt x="547" y="577" on="1"/>
        <pt x="645" y="577" on="1"/>
        <pt x="645" y="141" on="1"/>
        <pt x="645" y="102" on="0"/>
        <pt x="634" y="31" on="0"/>
        <pt x="610" y="-39" on="0"/>
        <pt x="570" y="-112" on="0"/>
        <pt x="542" y="-154" on="1"/>
      </contour>
    </TTGlyph>
    <TTGlyph name="F_K.sc" xMin="70" yMin="0" xMax="1019" yMax="577">
      <contour>
        <pt x="70" y="577" on="1"/>
        <pt x="448" y="577" on="1"/>
        <pt x="448" y="496" on="1"/>
        <pt x="168" y="496" on="1"/>
        <pt x="168" y="321" on="1"/>
        <pt x="424" y="321" on="1"/>
        <pt x="424" y="242" on="1"/>
        <pt x="168" y="242" on="1"/>
        <pt x="168" y="0" on="1"/>
        <pt x="70" y="0" on="1"/>
      </contour>
      <contour>
        <pt x="536" y="577" on="1"/>
        <pt x="634" y="577" on="1"/>
        <pt x="634" y="334" on="1"/>
        <pt x="720" y="334" on="1"/>
        <pt x="891" y="577" on="1"/>
        <pt x="1002" y="577" on="1"/>
        <pt x="821" y="319" on="1"/>
        <pt x="782" y="298" on="1"/>
        <pt x="782" y="293" on="1"/>
        <pt x="822" y="274" on="1"/>
        <pt x="1019" y="0" on="1"/>
        <pt x="909" y="0" on="1"/>
        <pt x="724" y="253" on="1"/>
        <pt x="634" y="253" on="1"/>
        <pt x="634" y="0" on="1"/>
        <pt x="536" y="0" on="1"/>
      </contour>
    </TTGlyph>
    <TTGlyph name="F_L.sc" xMin="70" yMin="0" xMax="877" yMax="577">
      <contour>
        <pt x="536" y="577" on="1"/>
        <pt x="634" y="577" on="1"/>
        <pt x="634" y="81" on="1"/>
        <pt x="877" y="81" on="1"/>
        <pt x="877" y="0" on="1"/>
        <pt x="536" y="0" on="1"/>
      </contour>
      <contour>
        <pt x="70" y="577" on="1"/>
        <pt x="448" y="577" on="1"/>
        <pt x="448" y="496" on="1"/>
        <pt x="168" y="496" on="1"/>
        <pt x="168" y="321" on="1"/>
        <pt x="424" y="321" on="1"/>
        <pt x="424" y="242" on="1"/>
        <pt x="168" y="242" on="1"/>
        <pt x="168" y="0" on="1"/>
        <pt x="70" y="0" on="1"/>
      </contour>
    </TTGlyph>
    <TTGlyph name="F_T.sc" xMin="70" yMin="0" xMax="912" yMax="577">
      <contour>
        <pt x="640" y="495" on="1"/>
        <pt x="466" y="495" on="1"/>
        <pt x="466" y="577" on="1"/>
        <pt x="912" y="577" on="1"/>
        <pt x="912" y="495" on="1"/>
        <pt x="738" y="495" on="1"/>
        <pt x="738" y="0" on="1"/>
        <pt x="640" y="0" on="1"/>
      </contour>
      <contour>
        <pt x="70" y="577" on="1"/>
        <pt x="448" y="577" on="1"/>
        <pt x="448" y="496" on="1"/>
        <pt x="168" y="496" on="1"/>
        <pt x="168" y="321" on="1"/>
        <pt x="424" y="321" on="1"/>
        <pt x="424" y="242" on="1"/>
        <pt x="168" y="242" on="1"/>
        <pt x="168" y="0" on="1"/>
        <pt x="70" y="0" on="1"/>
      </contour>
    </TTGlyph>
    <TTGlyph name="G" xMin="42" yMin="-10" xMax="546" yMax="749">
      <contour>
        <pt x="362" y="-10" on="1"/>
        <pt x="198" y="-9" on="0"/>
        <pt x="42" y="176" on="0"/>
        <pt x="42" y="369" on="1"/>
        <pt x="42" y="565" on="0"/>
        <pt x="206" y="749" on="0"/>
        <pt x="379" y="749" on="1"/>
        <pt x="413" y="749" on="0"/>
        <pt x="500" y="739" on="0"/>
        <pt x="541" y="730" on="1"/>
        <pt x="541" y="644" on="1"/>
        <pt x="493" y="654" on="0"/>
        <pt x="420" y="662" on="0"/>
        <pt x="388" y="662" on="1"/>
        <pt x="323" y="662" on="0"/>
        <pt x="231" y="630" on="0"/>
        <pt x="174" y="560" on="0"/>
        <pt x="148" y="449" on="0"/>
        <pt x="148" y="369" on="1"/>
        <pt x="148" y="291" on="0"/>
        <pt x="173" y="180" on="0"/>
        <pt x="227" y="110" on="0"/>
        <pt x="311" y="78" on="0"/>
        <pt x="370" y="78" on="1"/>
        <pt x="386" y="78" on="0"/>
        <pt x="428" y="81" on="0"/>
        <pt x="451" y="84" on="1"/>
        <pt x="451" y="376" on="1"/>
        <pt x="546" y="376" on="1"/>
        <pt x="546" y="11" on="1"/>
        <pt x="492" y="0" on="0"/>
        <pt x="402" y="-10" on="0"/>
      </contour>
    </TTGlyph>
    <TTGlyph name="G.sc" xMin="42" yMin="-8" xMax="491" yMax="585">
      <contour>
        <pt x="324" y="-8" on="1"/>
        <pt x="179" y="-7" on="0"/>
        <pt x="42" y="137" on="0"/>
        <pt x="42" y="288" on="1"/>
        <pt x="42" y="440" on="0"/>
        <pt x="186" y="585" on="0"/>
        <pt x="340" y="585" on="1"/>
        <pt x="372" y="585" on="0"/>
        <pt x="450" y="576" on="0"/>
        <pt x="487" y="568" on="1"/>
        <pt x="487" y="489" on="1"/>
        <pt x="443" y="497" on="0"/>
        <pt x="377" y="503" on="0"/>
        <pt x="349" y="503" on="1"/>
        <pt x="292" y="503" on="0"/>
        <pt x="213" y="480" on="0"/>
        <pt x="165" y="429" on="0"/>
        <pt x="143" y="347" on="0"/>
        <pt x="143" y="288" on="1"/>
        <pt x="143" y="230" on="0"/>
        <pt x="164" y="149" on="0"/>
        <pt x="209" y="98" on="0"/>
        <pt x="281" y="75" on="0"/>
        <pt x="332" y="75" on="1"/>
        <pt x="342" y="75" on="0"/>
        <pt x="386" y="77" on="0"/>
        <pt x="401" y="80" on="1"/>
        <pt x="401" y="293" on="1"/>
        <pt x="491" y="293" on="1"/>
        <pt x="491" y="10" on="1"/>
        <pt x="395" y="-8" on="0"/>
      </contour>
    </TTGlyph>
    <TTGlyph name="Gacute" xMin="42" yMin="-10" xMax="546" yMax="946">
      <contour>
        <pt x="298" y="797" on="1"/>
        <pt x="370" y="946" on="1"/>
        <pt x="475" y="946" on="1"/>
        <pt x="374" y="791" on="1"/>
      </contour>
      <contour>
        <pt x="362" y="-10" on="1"/>
        <pt x="198" y="-9" on="0"/>
        <pt x="42" y="176" on="0"/>
        <pt x="42" y="369" on="1"/>
        <pt x="42" y="565" on="0"/>
        <pt x="206" y="749" on="0"/>
        <pt x="379" y="749" on="1"/>
        <pt x="413" y="749" on="0"/>
        <pt x="500" y="739" on="0"/>
        <pt x="541" y="730" on="1"/>
        <pt x="541" y="644" on="1"/>
        <pt x="493" y="654" on="0"/>
        <pt x="420" y="662" on="0"/>
        <pt x="388" y="662" on="1"/>
        <pt x="323" y="662" on="0"/>
        <pt x="231" y="630" on="0"/>
        <pt x="174" y="560" on="0"/>
        <pt x="148" y="449" on="0"/>
        <pt x="148" y="369" on="1"/>
        <pt x="148" y="291" on="0"/>
        <pt x="173" y="180" on="0"/>
        <pt x="227" y="110" on="0"/>
        <pt x="311" y="78" on="0"/>
        <pt x="370" y="78" on="1"/>
        <pt x="386" y="78" on="0"/>
        <pt x="428" y="81" on="0"/>
        <pt x="451" y="84" on="1"/>
        <pt x="451" y="376" on="1"/>
        <pt x="546" y="376" on="1"/>
        <pt x="546" y="11" on="1"/>
        <pt x="492" y="0" on="0"/>
        <pt x="402" y="-10" on="0"/>
      </contour>
    </TTGlyph>
    <TTGlyph name="Gacute.sc" xMin="42" yMin="-8" xMax="491" yMax="747">
      <contour>
        <pt x="324" y="-8" on="1"/>
        <pt x="179" y="-7" on="0"/>
        <pt x="42" y="137" on="0"/>
        <pt x="42" y="288" on="1"/>
        <pt x="42" y="440" on="0"/>
        <pt x="186" y="585" on="0"/>
        <pt x="340" y="585" on="1"/>
        <pt x="372" y="585" on="0"/>
        <pt x="450" y="576" on="0"/>
        <pt x="487" y="568" on="1"/>
        <pt x="487" y="488" on="1"/>
        <pt x="443" y="496" on="0"/>
        <pt x="377" y="503" on="0"/>
        <pt x="349" y="503" on="1"/>
        <pt x="292" y="503" on="0"/>
        <pt x="214" y="480" on="0"/>
        <pt x="165" y="429" on="0"/>
        <pt x="143" y="347" on="0"/>
        <pt x="143" y="288" on="1"/>
        <pt x="143" y="229" on="0"/>
        <pt x="164" y="148" on="0"/>
        <pt x="209" y="98" on="0"/>
        <pt x="281" y="75" on="0"/>
        <pt x="332" y="75" on="1"/>
        <pt x="342" y="75" on="0"/>
        <pt x="386" y="77" on="0"/>
        <pt x="401" y="80" on="1"/>
        <pt x="401" y="293" on="1"/>
        <pt x="491" y="293" on="1"/>
        <pt x="491" y="10" on="1"/>
        <pt x="395" y="-8" on="0"/>
      </contour>
      <contour>
        <pt x="265" y="624" on="1"/>
        <pt x="327" y="747" on="1"/>
        <pt x="427" y="747" on="1"/>
        <pt x="337" y="619" on="1"/>
      </contour>
    </TTGlyph>
    <TTGlyph name="Gbreve" xMin="42" yMin="-10" xMax="546" yMax="962">
      <contour>
        <pt x="345" y="808" on="1"/>
        <pt x="261" y="808" on="0"/>
        <pt x="176" y="890" on="0"/>
        <pt x="176" y="962" on="1"/>
        <pt x="250" y="962" on="1"/>
        <pt x="250" y="865" on="0"/>
        <pt x="345" y="865" on="1"/>
        <pt x="439" y="865" on="0"/>
        <pt x="439" y="962" on="1"/>
        <pt x="513" y="962" on="1"/>
        <pt x="513" y="891" on="0"/>
        <pt x="427" y="808" on="0"/>
      </contour>
      <contour>
        <pt x="362" y="-10" on="1"/>
        <pt x="198" y="-9" on="0"/>
        <pt x="42" y="176" on="0"/>
        <pt x="42" y="369" on="1"/>
        <pt x="42" y="565" on="0"/>
        <pt x="206" y="749" on="0"/>
        <pt x="379" y="749" on="1"/>
        <pt x="413" y="749" on="0"/>
        <pt x="500" y="739" on="0"/>
        <pt x="541" y="730" on="1"/>
        <pt x="541" y="644" on="1"/>
        <pt x="493" y="654" on="0"/>
        <pt x="420" y="662" on="0"/>
        <pt x="388" y="662" on="1"/>
        <pt x="323" y="662" on="0"/>
        <pt x="231" y="630" on="0"/>
        <pt x="174" y="560" on="0"/>
        <pt x="148" y="449" on="0"/>
        <pt x="148" y="369" on="1"/>
        <pt x="148" y="291" on="0"/>
        <pt x="173" y="180" on="0"/>
        <pt x="227" y="110" on="0"/>
        <pt x="311" y="78" on="0"/>
        <pt x="370" y="78" on="1"/>
        <pt x="386" y="78" on="0"/>
        <pt x="428" y="81" on="0"/>
        <pt x="451" y="84" on="1"/>
        <pt x="451" y="376" on="1"/>
        <pt x="546" y="376" on="1"/>
        <pt x="546" y="11" on="1"/>
        <pt x="492" y="0" on="0"/>
        <pt x="402" y="-10" on="0"/>
      </contour>
    </TTGlyph>
    <TTGlyph name="Gbreve.sc" xMin="42" yMin="-8" xMax="491" yMax="755">
      <contour>
        <pt x="324" y="-8" on="1"/>
        <pt x="179" y="-7" on="0"/>
        <pt x="42" y="137" on="0"/>
        <pt x="42" y="288" on="1"/>
        <pt x="42" y="440" on="0"/>
        <pt x="186" y="585" on="0"/>
        <pt x="340" y="585" on="1"/>
        <pt x="372" y="585" on="0"/>
        <pt x="450" y="576" on="0"/>
        <pt x="487" y="568" on="1"/>
        <pt x="487" y="488" on="1"/>
        <pt x="443" y="496" on="0"/>
        <pt x="377" y="503" on="0"/>
        <pt x="349" y="503" on="1"/>
        <pt x="292" y="503" on="0"/>
        <pt x="214" y="480" on="0"/>
        <pt x="165" y="429" on="0"/>
        <pt x="143" y="347" on="0"/>
        <pt x="143" y="288" on="1"/>
        <pt x="143" y="229" on="0"/>
        <pt x="164" y="148" on="0"/>
        <pt x="209" y="98" on="0"/>
        <pt x="281" y="75" on="0"/>
        <pt x="332" y="75" on="1"/>
        <pt x="342" y="75" on="0"/>
        <pt x="386" y="77" on="0"/>
        <pt x="401" y="80" on="1"/>
        <pt x="401" y="293" on="1"/>
        <pt x="491" y="293" on="1"/>
        <pt x="491" y="10" on="1"/>
        <pt x="395" y="-8" on="0"/>
      </contour>
      <contour>
        <pt x="308" y="628" on="1"/>
        <pt x="233" y="628" on="0"/>
        <pt x="157" y="697" on="0"/>
        <pt x="157" y="755" on="1"/>
        <pt x="226" y="755" on="1"/>
        <pt x="226" y="716" on="0"/>
        <pt x="265" y="679" on="0"/>
        <pt x="308" y="679" on="1"/>
        <pt x="390" y="679" on="0"/>
        <pt x="390" y="755" on="1"/>
        <pt x="460" y="755" on="1"/>
        <pt x="460" y="697" on="0"/>
        <pt x="383" y="628" on="0"/>
      </contour>
    </TTGlyph>
    <TTGlyph name="Gcircumflex" xMin="42" yMin="-10" xMax="546" yMax="957">
      <contour>
        <pt x="362" y="-10" on="1"/>
        <pt x="198" y="-9" on="0"/>
        <pt x="42" y="176" on="0"/>
        <pt x="42" y="369" on="1"/>
        <pt x="42" y="565" on="0"/>
        <pt x="206" y="749" on="0"/>
        <pt x="379" y="749" on="1"/>
        <pt x="413" y="749" on="0"/>
        <pt x="500" y="739" on="0"/>
        <pt x="541" y="730" on="1"/>
        <pt x="541" y="644" on="1"/>
        <pt x="493" y="654" on="0"/>
        <pt x="420" y="662" on="0"/>
        <pt x="388" y="662" on="1"/>
        <pt x="323" y="662" on="0"/>
        <pt x="231" y="630" on="0"/>
        <pt x="174" y="560" on="0"/>
        <pt x="148" y="449" on="0"/>
        <pt x="148" y="369" on="1"/>
        <pt x="148" y="291" on="0"/>
        <pt x="173" y="180" on="0"/>
        <pt x="227" y="110" on="0"/>
        <pt x="311" y="78" on="0"/>
        <pt x="370" y="78" on="1"/>
        <pt x="386" y="78" on="0"/>
        <pt x="428" y="81" on="0"/>
        <pt x="451" y="84" on="1"/>
        <pt x="451" y="376" on="1"/>
        <pt x="546" y="376" on="1"/>
        <pt x="546" y="11" on="1"/>
        <pt x="492" y="0" on="0"/>
        <pt x="402" y="-10" on="0"/>
      </contour>
      <contour>
        <pt x="190" y="884" on="1"/>
        <pt x="342" y="957" on="1"/>
        <pt x="494" y="884" on="1"/>
        <pt x="494" y="807" on="1"/>
        <pt x="342" y="880" on="1"/>
        <pt x="190" y="807" on="1"/>
      </contour>
    </TTGlyph>
    <TTGlyph name="Gcircumflex.sc" xMin="42" yMin="-8" xMax="491" yMax="753">
      <contour>
        <pt x="324" y="-8" on="1"/>
        <pt x="179" y="-7" on="0"/>
        <pt x="42" y="137" on="0"/>
        <pt x="42" y="288" on="1"/>
        <pt x="42" y="440" on="0"/>
        <pt x="186" y="585" on="0"/>
        <pt x="340" y="585" on="1"/>
        <pt x="372" y="585" on="0"/>
        <pt x="450" y="576" on="0"/>
        <pt x="487" y="568" on="1"/>
        <pt x="487" y="488" on="1"/>
        <pt x="443" y="496" on="0"/>
        <pt x="377" y="503" on="0"/>
        <pt x="349" y="503" on="1"/>
        <pt x="292" y="503" on="0"/>
        <pt x="214" y="480" on="0"/>
        <pt x="165" y="429" on="0"/>
        <pt x="143" y="347" on="0"/>
        <pt x="143" y="288" on="1"/>
        <pt x="143" y="229" on="0"/>
        <pt x="164" y="148" on="0"/>
        <pt x="209" y="98" on="0"/>
        <pt x="281" y="75" on="0"/>
        <pt x="332" y="75" on="1"/>
        <pt x="342" y="75" on="0"/>
        <pt x="386" y="77" on="0"/>
        <pt x="401" y="80" on="1"/>
        <pt x="401" y="293" on="1"/>
        <pt x="491" y="293" on="1"/>
        <pt x="491" y="10" on="1"/>
        <pt x="395" y="-8" on="0"/>
      </contour>
      <contour>
        <pt x="169" y="696" on="1"/>
        <pt x="306" y="753" on="1"/>
        <pt x="443" y="696" on="1"/>
        <pt x="443" y="626" on="1"/>
        <pt x="306" y="683" on="1"/>
        <pt x="169" y="626" on="1"/>
      </contour>
    </TTGlyph>
    <TTGlyph name="Gcommaaccent" xMin="42" yMin="-220" xMax="546" yMax="749">
      <contour>
        <pt x="301" y="-68" on="1"/>
        <pt x="405" y="-68" on="1"/>
        <pt x="334" y="-220" on="1"/>
        <pt x="254" y="-220" on="1"/>
      </contour>
      <contour>
        <pt x="362" y="-10" on="1"/>
        <pt x="198" y="-9" on="0"/>
        <pt x="42" y="176" on="0"/>
        <pt x="42" y="369" on="1"/>
        <pt x="42" y="565" on="0"/>
        <pt x="206" y="749" on="0"/>
        <pt x="379" y="749" on="1"/>
        <pt x="413" y="749" on="0"/>
        <pt x="500" y="739" on="0"/>
        <pt x="541" y="730" on="1"/>
        <pt x="541" y="644" on="1"/>
        <pt x="493" y="654" on="0"/>
        <pt x="420" y="662" on="0"/>
        <pt x="388" y="662" on="1"/>
        <pt x="323" y="662" on="0"/>
        <pt x="231" y="630" on="0"/>
        <pt x="174" y="560" on="0"/>
        <pt x="148" y="449" on="0"/>
        <pt x="148" y="369" on="1"/>
        <pt x="148" y="291" on="0"/>
        <pt x="173" y="180" on="0"/>
        <pt x="227" y="110" on="0"/>
        <pt x="311" y="78" on="0"/>
        <pt x="370" y="78" on="1"/>
        <pt x="386" y="78" on="0"/>
        <pt x="428" y="81" on="0"/>
        <pt x="451" y="84" on="1"/>
        <pt x="451" y="376" on="1"/>
        <pt x="546" y="376" on="1"/>
        <pt x="546" y="11" on="1"/>
        <pt x="492" y="0" on="0"/>
        <pt x="402" y="-10" on="0"/>
      </contour>
    </TTGlyph>
    <TTGlyph name="Gcommaaccent.sc" xMin="42" yMin="-172" xMax="491" yMax="585">
      <contour>
        <pt x="324" y="-8" on="1"/>
        <pt x="179" y="-7" on="0"/>
        <pt x="42" y="137" on="0"/>
        <pt x="42" y="288" on="1"/>
        <pt x="42" y="440" on="0"/>
        <pt x="186" y="585" on="0"/>
        <pt x="340" y="585" on="1"/>
        <pt x="372" y="585" on="0"/>
        <pt x="450" y="576" on="0"/>
        <pt x="487" y="568" on="1"/>
        <pt x="487" y="488" on="1"/>
        <pt x="443" y="496" on="0"/>
        <pt x="377" y="503" on="0"/>
        <pt x="349" y="503" on="1"/>
        <pt x="292" y="503" on="0"/>
        <pt x="214" y="480" on="0"/>
        <pt x="165" y="429" on="0"/>
        <pt x="143" y="347" on="0"/>
        <pt x="143" y="288" on="1"/>
        <pt x="143" y="229" on="0"/>
        <pt x="164" y="148" on="0"/>
        <pt x="209" y="98" on="0"/>
        <pt x="281" y="75" on="0"/>
        <pt x="332" y="75" on="1"/>
        <pt x="342" y="75" on="0"/>
        <pt x="386" y="77" on="0"/>
        <pt x="401" y="80" on="1"/>
        <pt x="401" y="293" on="1"/>
        <pt x="491" y="293" on="1"/>
        <pt x="491" y="10" on="1"/>
        <pt x="395" y="-8" on="0"/>
      </contour>
      <contour>
        <pt x="266" y="-54" on="1"/>
        <pt x="365" y="-54" on="1"/>
        <pt x="302" y="-172" on="1"/>
        <pt x="226" y="-172" on="1"/>
      </contour>
    </TTGlyph>
    <TTGlyph name="Gdotaccent" xMin="42" yMin="-10" xMax="546" yMax="923">
      <contour>
        <pt x="343" y="803" on="1"/>
        <pt x="282" y="803" on="0"/>
        <pt x="282" y="862" on="1"/>
        <pt x="282" y="894" on="0"/>
        <pt x="312" y="923" on="0"/>
        <pt x="343" y="923" on="1"/>
        <pt x="405" y="923" on="0"/>
        <pt x="405" y="862" on="1"/>
        <pt x="405" y="803" on="0"/>
      </contour>
      <contour>
        <pt x="362" y="-10" on="1"/>
        <pt x="198" y="-9" on="0"/>
        <pt x="42" y="176" on="0"/>
        <pt x="42" y="369" on="1"/>
        <pt x="42" y="565" on="0"/>
        <pt x="206" y="749" on="0"/>
        <pt x="379" y="749" on="1"/>
        <pt x="413" y="749" on="0"/>
        <pt x="500" y="739" on="0"/>
        <pt x="541" y="730" on="1"/>
        <pt x="541" y="644" on="1"/>
        <pt x="493" y="654" on="0"/>
        <pt x="420" y="662" on="0"/>
        <pt x="388" y="662" on="1"/>
        <pt x="323" y="662" on="0"/>
        <pt x="231" y="630" on="0"/>
        <pt x="174" y="560" on="0"/>
        <pt x="148" y="449" on="0"/>
        <pt x="148" y="369" on="1"/>
        <pt x="148" y="291" on="0"/>
        <pt x="173" y="180" on="0"/>
        <pt x="227" y="110" on="0"/>
        <pt x="311" y="78" on="0"/>
        <pt x="370" y="78" on="1"/>
        <pt x="386" y="78" on="0"/>
        <pt x="428" y="81" on="0"/>
        <pt x="451" y="84" on="1"/>
        <pt x="451" y="376" on="1"/>
        <pt x="546" y="376" on="1"/>
        <pt x="546" y="11" on="1"/>
        <pt x="492" y="0" on="0"/>
        <pt x="402" y="-10" on="0"/>
      </contour>
    </TTGlyph>
    <TTGlyph name="Gdotaccent.sc" xMin="42" yMin="-8" xMax="491" yMax="735">
      <contour>
        <pt x="324" y="-8" on="1"/>
        <pt x="179" y="-7" on="0"/>
        <pt x="42" y="137" on="0"/>
        <pt x="42" y="288" on="1"/>
        <pt x="42" y="440" on="0"/>
        <pt x="186" y="585" on="0"/>
        <pt x="340" y="585" on="1"/>
        <pt x="372" y="585" on="0"/>
        <pt x="450" y="576" on="0"/>
        <pt x="487" y="568" on="1"/>
        <pt x="487" y="488" on="1"/>
        <pt x="443" y="496" on="0"/>
        <pt x="377" y="503" on="0"/>
        <pt x="349" y="503" on="1"/>
        <pt x="292" y="503" on="0"/>
        <pt x="214" y="480" on="0"/>
        <pt x="165" y="429" on="0"/>
        <pt x="143" y="347" on="0"/>
        <pt x="143" y="288" on="1"/>
        <pt x="143" y="229" on="0"/>
        <pt x="164" y="148" on="0"/>
        <pt x="209" y="98" on="0"/>
        <pt x="281" y="75" on="0"/>
        <pt x="332" y="75" on="1"/>
        <pt x="342" y="75" on="0"/>
        <pt x="386" y="77" on="0"/>
        <pt x="401" y="80" on="1"/>
        <pt x="401" y="293" on="1"/>
        <pt x="491" y="293" on="1"/>
        <pt x="491" y="10" on="1"/>
        <pt x="395" y="-8" on="0"/>
      </contour>
      <contour>
        <pt x="308" y="625" on="1"/>
        <pt x="251" y="625" on="0"/>
        <pt x="251" y="681" on="1"/>
        <pt x="251" y="710" on="0"/>
        <pt x="279" y="735" on="0"/>
        <pt x="308" y="735" on="1"/>
        <pt x="337" y="735" on="0"/>
        <pt x="366" y="710" on="0"/>
        <pt x="366" y="681" on="1"/>
        <pt x="366" y="625" on="0"/>
      </contour>
    </TTGlyph>
    <TTGlyph name="H" xMin="74" yMin="0" xMax="611" yMax="740">
      <contour>
        <pt x="74" y="740" on="1"/>
        <pt x="177" y="740" on="1"/>
        <pt x="177" y="422" on="1"/>
        <pt x="508" y="422" on="1"/>
        <pt x="508" y="740" on="1"/>
        <pt x="611" y="740" on="1"/>
        <pt x="611" y="0" on="1"/>
        <pt x="508" y="0" on="1"/>
        <pt x="508" y="335" on="1"/>
        <pt x="177" y="335" on="1"/>
        <pt x="177" y="0" on="1"/>
        <pt x="74" y="0" on="1"/>
      </contour>
    </TTGlyph>
    <TTGlyph name="H.sc" xMin="70" yMin="0" xMax="552" yMax="577">
      <contour>
        <pt x="70" y="577" on="1"/>
        <pt x="168" y="577" on="1"/>
        <pt x="168" y="336" on="1"/>
        <pt x="454" y="336" on="1"/>
        <pt x="454" y="577" on="1"/>
        <pt x="552" y="577" on="1"/>
        <pt x="552" y="0" on="1"/>
        <pt x="454" y="0" on="1"/>
        <pt x="454" y="255" on="1"/>
        <pt x="168" y="255" on="1"/>
        <pt x="168" y="0" on="1"/>
        <pt x="70" y="0" on="1"/>
      </contour>
    </TTGlyph>
    <TTGlyph name="Hbar" xMin="2" yMin="0" xMax="712" yMax="740">
      <contour>
        <pt x="2" y="598" on="1"/>
        <pt x="87" y="598" on="1"/>
        <pt x="87" y="740" on="1"/>
        <pt x="190" y="740" on="1"/>
        <pt x="190" y="598" on="1"/>
        <pt x="521" y="598" on="1"/>
        <pt x="521" y="740" on="1"/>
        <pt x="624" y="740" on="1"/>
        <pt x="624" y="598" on="1"/>
        <pt x="712" y="598" on="1"/>
        <pt x="712" y="544" on="1"/>
        <pt x="624" y="544" on="1"/>
        <pt x="624" y="0" on="1"/>
        <pt x="521" y="0" on="1"/>
        <pt x="521" y="335" on="1"/>
        <pt x="190" y="335" on="1"/>
        <pt x="190" y="0" on="1"/>
        <pt x="87" y="0" on="1"/>
        <pt x="87" y="544" on="1"/>
        <pt x="2" y="544" on="1"/>
      </contour>
      <contour>
        <pt x="521" y="422" on="1"/>
        <pt x="521" y="544" on="1"/>
        <pt x="190" y="544" on="1"/>
        <pt x="190" y="422" on="1"/>
      </contour>
    </TTGlyph>
    <TTGlyph name="Hbar.sc" xMin="8" yMin="0" xMax="638" yMax="577">
      <contour>
        <pt x="8" y="472" on="1"/>
        <pt x="80" y="472" on="1"/>
        <pt x="80" y="577" on="1"/>
        <pt x="178" y="577" on="1"/>
        <pt x="178" y="472" on="1"/>
        <pt x="464" y="472" on="1"/>
        <pt x="464" y="577" on="1"/>
        <pt x="562" y="577" on="1"/>
        <pt x="562" y="472" on="1"/>
        <pt x="638" y="472" on="1"/>
        <pt x="638" y="423" on="1"/>
        <pt x="562" y="423" on="1"/>
        <pt x="562" y="0" on="1"/>
        <pt x="464" y="0" on="1"/>
        <pt x="464" y="253" on="1"/>
        <pt x="178" y="253" on="1"/>
        <pt x="178" y="0" on="1"/>
        <pt x="80" y="0" on="1"/>
        <pt x="80" y="423" on="1"/>
        <pt x="8" y="423" on="1"/>
      </contour>
      <contour>
        <pt x="464" y="334" on="1"/>
        <pt x="464" y="423" on="1"/>
        <pt x="178" y="423" on="1"/>
        <pt x="178" y="334" on="1"/>
      </contour>
    </TTGlyph>
    <TTGlyph name="Hcircumflex" xMin="74" yMin="0" xMax="611" yMax="957">
      <contour>
        <pt x="74" y="740" on="1"/>
        <pt x="177" y="740" on="1"/>
        <pt x="177" y="422" on="1"/>
        <pt x="508" y="422" on="1"/>
        <pt x="508" y="740" on="1"/>
        <pt x="611" y="740" on="1"/>
        <pt x="611" y="0" on="1"/>
        <pt x="508" y="0" on="1"/>
        <pt x="508" y="335" on="1"/>
        <pt x="177" y="335" on="1"/>
        <pt x="177" y="0" on="1"/>
        <pt x="74" y="0" on="1"/>
      </contour>
      <contour>
        <pt x="183" y="884" on="1"/>
        <pt x="335" y="957" on="1"/>
        <pt x="487" y="884" on="1"/>
        <pt x="487" y="807" on="1"/>
        <pt x="335" y="880" on="1"/>
        <pt x="183" y="807" on="1"/>
      </contour>
    </TTGlyph>
    <TTGlyph name="Hcircumflex.sc" xMin="70" yMin="0" xMax="552" yMax="753">
      <contour>
        <pt x="70" y="577" on="1"/>
        <pt x="168" y="577" on="1"/>
        <pt x="168" y="336" on="1"/>
        <pt x="454" y="336" on="1"/>
        <pt x="454" y="577" on="1"/>
        <pt x="552" y="577" on="1"/>
        <pt x="552" y="0" on="1"/>
        <pt x="454" y="0" on="1"/>
        <pt x="454" y="255" on="1"/>
        <pt x="168" y="255" on="1"/>
        <pt x="168" y="0" on="1"/>
        <pt x="70" y="0" on="1"/>
      </contour>
      <contour>
        <pt x="169" y="696" on="1"/>
        <pt x="306" y="753" on="1"/>
        <pt x="443" y="696" on="1"/>
        <pt x="443" y="626" on="1"/>
        <pt x="306" y="683" on="1"/>
        <pt x="169" y="626" on="1"/>
      </contour>
    </TTGlyph>
    <TTGlyph name="Hdotbelow" xMin="74" yMin="-186" xMax="611" yMax="740">
      <contour>
        <pt x="74" y="740" on="1"/>
        <pt x="177" y="740" on="1"/>
        <pt x="177" y="422" on="1"/>
        <pt x="508" y="422" on="1"/>
        <pt x="508" y="740" on="1"/>
        <pt x="611" y="740" on="1"/>
        <pt x="611" y="0" on="1"/>
        <pt x="508" y="0" on="1"/>
        <pt x="508" y="335" on="1"/>
        <pt x="177" y="335" on="1"/>
        <pt x="177" y="0" on="1"/>
        <pt x="74" y="0" on="1"/>
      </contour>
      <contour>
        <pt x="347" y="-186" on="1"/>
        <pt x="319" y="-186" on="0"/>
        <pt x="293" y="-161" on="0"/>
        <pt x="293" y="-132" on="1"/>
        <pt x="293" y="-103" on="0"/>
        <pt x="319" y="-79" on="0"/>
        <pt x="347" y="-79" on="1"/>
        <pt x="374" y="-79" on="0"/>
        <pt x="401" y="-103" on="0"/>
        <pt x="401" y="-132" on="1"/>
        <pt x="401" y="-161" on="0"/>
        <pt x="374" y="-186" on="0"/>
      </contour>
    </TTGlyph>
    <TTGlyph name="Hdotbelow.sc" xMin="70" yMin="-151" xMax="552" yMax="577">
      <contour>
        <pt x="70" y="577" on="1"/>
        <pt x="168" y="577" on="1"/>
        <pt x="168" y="336" on="1"/>
        <pt x="454" y="336" on="1"/>
        <pt x="454" y="577" on="1"/>
        <pt x="552" y="577" on="1"/>
        <pt x="552" y="0" on="1"/>
        <pt x="454" y="0" on="1"/>
        <pt x="454" y="255" on="1"/>
        <pt x="168" y="255" on="1"/>
        <pt x="168" y="0" on="1"/>
        <pt x="70" y="0" on="1"/>
      </contour>
      <contour>
        <pt x="315" y="-151" on="1"/>
        <pt x="266" y="-151" on="0"/>
        <pt x="266" y="-105" on="1"/>
        <pt x="266" y="-58" on="0"/>
        <pt x="315" y="-58" on="1"/>
        <pt x="365" y="-58" on="0"/>
        <pt x="365" y="-105" on="1"/>
        <pt x="365" y="-151" on="0"/>
      </contour>
    </TTGlyph>
    <TTGlyph name="I" xMin="74" yMin="0" xMax="177" yMax="740">
      <contour>
        <pt x="74" y="740" on="1"/>
        <pt x="177" y="740" on="1"/>
        <pt x="177" y="0" on="1"/>
        <pt x="74" y="0" on="1"/>
      </contour>
    </TTGlyph>
    <TTGlyph name="I.sc" xMin="70" yMin="0" xMax="168" yMax="577">
      <contour>
        <pt x="70" y="577" on="1"/>
        <pt x="168" y="577" on="1"/>
        <pt x="168" y="0" on="1"/>
        <pt x="70" y="0" on="1"/>
      </contour>
    </TTGlyph>
    <TTGlyph name="IJ" xMin="74" yMin="-192" xMax="430" yMax="740">
      <contour>
        <pt x="74" y="740" on="1"/>
        <pt x="177" y="740" on="1"/>
        <pt x="177" y="0" on="1"/>
        <pt x="74" y="0" on="1"/>
      </contour>
      <contour>
        <pt x="247" y="-159" on="1"/>
        <pt x="271" y="-108" on="0"/>
        <pt x="302" y="-25" on="0"/>
        <pt x="320" y="54" on="0"/>
        <pt x="327" y="136" on="0"/>
        <pt x="327" y="187" on="1"/>
        <pt x="327" y="740" on="1"/>
        <pt x="430" y="740" on="1"/>
        <pt x="430" y="180" on="1"/>
        <pt x="430" y="131" on="0"/>
        <pt x="417" y="41" on="0"/>
        <pt x="390" y="-47" on="0"/>
        <pt x="345" y="-140" on="0"/>
        <pt x="314" y="-192" on="1"/>
      </contour>
    </TTGlyph>
    <TTGlyph name="Iacute" xMin="74" yMin="0" xMax="261" yMax="946">
      <contour>
        <pt x="74" y="740" on="1"/>
        <pt x="177" y="740" on="1"/>
        <pt x="177" y="0" on="1"/>
        <pt x="74" y="0" on="1"/>
      </contour>
      <contour>
        <pt x="84" y="797" on="1"/>
        <pt x="156" y="946" on="1"/>
        <pt x="261" y="946" on="1"/>
        <pt x="160" y="791" on="1"/>
      </contour>
    </TTGlyph>
    <TTGlyph name="Iacute.sc" xMin="70" yMin="0" xMax="242" yMax="747">
      <contour>
        <pt x="70" y="577" on="1"/>
        <pt x="168" y="577" on="1"/>
        <pt x="168" y="0" on="1"/>
        <pt x="70" y="0" on="1"/>
      </contour>
      <contour>
        <pt x="80" y="624" on="1"/>
        <pt x="143" y="747" on="1"/>
        <pt x="242" y="747" on="1"/>
        <pt x="152" y="619" on="1"/>
      </contour>
    </TTGlyph>
    <TTGlyph name="Ibreve" xMin="-41" yMin="0" xMax="296" yMax="962">
      <contour>
        <pt x="74" y="740" on="1"/>
        <pt x="177" y="740" on="1"/>
        <pt x="177" y="0" on="1"/>
        <pt x="74" y="0" on="1"/>
      </contour>
      <contour>
        <pt x="128" y="808" on="1"/>
        <pt x="44" y="808" on="0"/>
        <pt x="-41" y="890" on="0"/>
        <pt x="-41" y="962" on="1"/>
        <pt x="33" y="962" on="1"/>
        <pt x="33" y="865" on="0"/>
        <pt x="128" y="865" on="1"/>
        <pt x="222" y="865" on="0"/>
        <pt x="222" y="962" on="1"/>
        <pt x="296" y="962" on="1"/>
        <pt x="296" y="891" on="0"/>
        <pt x="210" y="808" on="0"/>
      </contour>
    </TTGlyph>
    <TTGlyph name="Ibreve.sc" xMin="-30" yMin="0" xMax="272" yMax="755">
      <contour>
        <pt x="70" y="577" on="1"/>
        <pt x="168" y="577" on="1"/>
        <pt x="168" y="0" on="1"/>
        <pt x="70" y="0" on="1"/>
      </contour>
      <contour>
        <pt x="121" y="628" on="1"/>
        <pt x="45" y="628" on="0"/>
        <pt x="-30" y="697" on="0"/>
        <pt x="-30" y="755" on="1"/>
        <pt x="39" y="755" on="1"/>
        <pt x="39" y="716" on="0"/>
        <pt x="78" y="679" on="0"/>
        <pt x="121" y="679" on="1"/>
        <pt x="203" y="679" on="0"/>
        <pt x="203" y="755" on="1"/>
        <pt x="272" y="755" on="1"/>
        <pt x="272" y="697" on="0"/>
        <pt x="196" y="628" on="0"/>
      </contour>
    </TTGlyph>
    <TTGlyph name="Icircumflex" xMin="-25" yMin="0" xMax="279" yMax="957">
      <contour>
        <pt x="74" y="740" on="1"/>
        <pt x="177" y="740" on="1"/>
        <pt x="177" y="0" on="1"/>
        <pt x="74" y="0" on="1"/>
      </contour>
      <contour>
        <pt x="-25" y="884" on="1"/>
        <pt x="127" y="957" on="1"/>
        <pt x="279" y="884" on="1"/>
        <pt x="279" y="807" on="1"/>
        <pt x="127" y="880" on="1"/>
        <pt x="-25" y="807" on="1"/>
      </contour>
    </TTGlyph>
    <TTGlyph name="Icircumflex.sc" xMin="-16" yMin="0" xMax="258" yMax="753">
      <contour>
        <pt x="70" y="577" on="1"/>
        <pt x="168" y="577" on="1"/>
        <pt x="168" y="0" on="1"/>
        <pt x="70" y="0" on="1"/>
      </contour>
      <contour>
        <pt x="-16" y="696" on="1"/>
        <pt x="121" y="753" on="1"/>
        <pt x="258" y="696" on="1"/>
        <pt x="258" y="626" on="1"/>
        <pt x="121" y="683" on="1"/>
        <pt x="-16" y="626" on="1"/>
      </contour>
    </TTGlyph>
    <TTGlyph name="Idblgrave" xMin="-81" yMin="0" xMax="246" yMax="945">
      <contour>
        <pt x="74" y="740" on="1"/>
        <pt x="177" y="740" on="1"/>
        <pt x="177" y="0" on="1"/>
        <pt x="74" y="0" on="1"/>
      </contour>
      <contour>
        <pt x="20" y="790" on="1"/>
        <pt x="-81" y="945" on="1"/>
        <pt x="12" y="945" on="1"/>
        <pt x="85" y="802" on="1"/>
      </contour>
      <contour>
        <pt x="182" y="790" on="1"/>
        <pt x="80" y="945" on="1"/>
        <pt x="173" y="945" on="1"/>
        <pt x="246" y="802" on="1"/>
      </contour>
    </TTGlyph>
    <TTGlyph name="Idblgrave.sc" xMin="-67" yMin="0" xMax="230" yMax="746">
      <contour>
        <pt x="70" y="577" on="1"/>
        <pt x="168" y="577" on="1"/>
        <pt x="168" y="0" on="1"/>
        <pt x="70" y="0" on="1"/>
      </contour>
      <contour>
        <pt x="24" y="617" on="1"/>
        <pt x="-67" y="746" on="1"/>
        <pt x="22" y="746" on="1"/>
        <pt x="84" y="627" on="1"/>
      </contour>
      <contour>
        <pt x="169" y="617" on="1"/>
        <pt x="78" y="746" on="1"/>
        <pt x="167" y="746" on="1"/>
        <pt x="230" y="627" on="1"/>
      </contour>
    </TTGlyph>
    <TTGlyph name="Idieresis" xMin="-47" yMin="0" xMax="302" yMax="930">
      <contour>
        <pt x="74" y="740" on="1"/>
        <pt x="177" y="740" on="1"/>
        <pt x="177" y="0" on="1"/>
        <pt x="74" y="0" on="1"/>
      </contour>
      <contour>
        <pt x="14" y="810" on="1"/>
        <pt x="-47" y="810" on="0"/>
        <pt x="-47" y="871" on="1"/>
        <pt x="-47" y="930" on="0"/>
        <pt x="14" y="930" on="1"/>
        <pt x="75" y="930" on="0"/>
        <pt x="75" y="871" on="1"/>
        <pt x="75" y="839" on="0"/>
        <pt x="44" y="810" on="0"/>
      </contour>
      <contour>
        <pt x="240" y="810" on="1"/>
        <pt x="179" y="810" on="0"/>
        <pt x="179" y="871" on="1"/>
        <pt x="179" y="930" on="0"/>
        <pt x="240" y="930" on="1"/>
        <pt x="302" y="930" on="0"/>
        <pt x="302" y="871" on="1"/>
        <pt x="302" y="839" on="0"/>
        <pt x="270" y="810" on="0"/>
      </contour>
    </TTGlyph>
    <TTGlyph name="Idieresis.sc" xMin="-38" yMin="0" xMax="281" yMax="740">
      <contour>
        <pt x="70" y="577" on="1"/>
        <pt x="168" y="577" on="1"/>
        <pt x="168" y="0" on="1"/>
        <pt x="70" y="0" on="1"/>
      </contour>
      <contour>
        <pt x="19" y="630" on="1"/>
        <pt x="-38" y="630" on="0"/>
        <pt x="-38" y="685" on="1"/>
        <pt x="-38" y="740" on="0"/>
        <pt x="19" y="740" on="1"/>
        <pt x="76" y="740" on="0"/>
        <pt x="76" y="685" on="1"/>
        <pt x="76" y="630" on="0"/>
      </contour>
      <contour>
        <pt x="223" y="630" on="1"/>
        <pt x="166" y="630" on="0"/>
        <pt x="166" y="685" on="1"/>
        <pt x="166" y="740" on="0"/>
        <pt x="223" y="740" on="1"/>
        <pt x="281" y="740" on="0"/>
        <pt x="281" y="685" on="1"/>
        <pt x="281" y="630" on="0"/>
      </contour>
    </TTGlyph>
    <TTGlyph name="Idotaccent" xMin="66" yMin="0" xMax="189" yMax="923">
      <contour>
        <pt x="74" y="740" on="1"/>
        <pt x="177" y="740" on="1"/>
        <pt x="177" y="0" on="1"/>
        <pt x="74" y="0" on="1"/>
      </contour>
      <contour>
        <pt x="127" y="803" on="1"/>
        <pt x="66" y="803" on="0"/>
        <pt x="66" y="862" on="1"/>
        <pt x="66" y="894" on="0"/>
        <pt x="96" y="923" on="0"/>
        <pt x="127" y="923" on="1"/>
        <pt x="189" y="923" on="0"/>
        <pt x="189" y="862" on="1"/>
        <pt x="189" y="803" on="0"/>
      </contour>
    </TTGlyph>
    <TTGlyph name="Idotaccent.sc" xMin="64" yMin="0" xMax="178" yMax="735">
      <contour>
        <pt x="70" y="577" on="1"/>
        <pt x="168" y="577" on="1"/>
        <pt x="168" y="0" on="1"/>
        <pt x="70" y="0" on="1"/>
      </contour>
      <contour>
        <pt x="120" y="625" on="1"/>
        <pt x="64" y="625" on="0"/>
        <pt x="64" y="681" on="1"/>
        <pt x="64" y="710" on="0"/>
        <pt x="91" y="735" on="0"/>
        <pt x="120" y="735" on="1"/>
        <pt x="149" y="735" on="0"/>
        <pt x="178" y="710" on="0"/>
        <pt x="178" y="681" on="1"/>
        <pt x="178" y="625" on="0"/>
      </contour>
    </TTGlyph>
    <TTGlyph name="Idotbelow" xMin="73" yMin="-186" xMax="181" yMax="740">
      <contour>
        <pt x="74" y="740" on="1"/>
        <pt x="177" y="740" on="1"/>
        <pt x="177" y="0" on="1"/>
        <pt x="74" y="0" on="1"/>
      </contour>
      <contour>
        <pt x="127" y="-186" on="1"/>
        <pt x="99" y="-186" on="0"/>
        <pt x="73" y="-161" on="0"/>
        <pt x="73" y="-132" on="1"/>
        <pt x="73" y="-103" on="0"/>
        <pt x="99" y="-79" on="0"/>
        <pt x="127" y="-79" on="1"/>
        <pt x="154" y="-79" on="0"/>
        <pt x="181" y="-103" on="0"/>
        <pt x="181" y="-132" on="1"/>
        <pt x="181" y="-161" on="0"/>
        <pt x="154" y="-186" on="0"/>
      </contour>
    </TTGlyph>
    <TTGlyph name="Idotbelow.sc" xMin="70" yMin="-151" xMax="171" yMax="577">
      <contour>
        <pt x="70" y="577" on="1"/>
        <pt x="168" y="577" on="1"/>
        <pt x="168" y="0" on="1"/>
        <pt x="70" y="0" on="1"/>
      </contour>
      <contour>
        <pt x="120" y="-151" on="1"/>
        <pt x="71" y="-151" on="0"/>
        <pt x="71" y="-105" on="1"/>
        <pt x="71" y="-58" on="0"/>
        <pt x="120" y="-58" on="1"/>
        <pt x="171" y="-58" on="0"/>
        <pt x="171" y="-105" on="1"/>
        <pt x="171" y="-151" on="0"/>
      </contour>
    </TTGlyph>
    <TTGlyph name="Igrave" xMin="-12" yMin="0" xMax="177" yMax="946">
      <contour>
        <pt x="74" y="740" on="1"/>
        <pt x="177" y="740" on="1"/>
        <pt x="177" y="0" on="1"/>
        <pt x="74" y="0" on="1"/>
      </contour>
      <contour>
        <pt x="89" y="791" on="1"/>
        <pt x="-12" y="946" on="1"/>
        <pt x="93" y="946" on="1"/>
        <pt x="165" y="804" on="1"/>
      </contour>
    </TTGlyph>
    <TTGlyph name="Igrave.sc" xMin="-5" yMin="0" xMax="169" yMax="747">
      <contour>
        <pt x="70" y="577" on="1"/>
        <pt x="169" y="577" on="1"/>
        <pt x="169" y="0" on="1"/>
        <pt x="70" y="0" on="1"/>
      </contour>
      <contour>
        <pt x="85" y="619" on="1"/>
        <pt x="-5" y="747" on="1"/>
        <pt x="95" y="747" on="1"/>
        <pt x="158" y="628" on="1"/>
      </contour>
    </TTGlyph>
    <TTGlyph name="Iinvertedbreve" xMin="-40" yMin="0" xMax="296" yMax="970">
      <contour>
        <pt x="74" y="740" on="1"/>
        <pt x="177" y="740" on="1"/>
        <pt x="177" y="0" on="1"/>
        <pt x="74" y="0" on="1"/>
      </contour>
      <contour>
        <pt x="222" y="816" on="1"/>
        <pt x="222" y="914" on="0"/>
        <pt x="128" y="914" on="1"/>
        <pt x="33" y="914" on="0"/>
        <pt x="33" y="816" on="1"/>
        <pt x="-40" y="816" on="1"/>
        <pt x="-40" y="888" on="0"/>
        <pt x="45" y="970" on="0"/>
        <pt x="128" y="970" on="1"/>
        <pt x="211" y="970" on="0"/>
        <pt x="296" y="888" on="0"/>
        <pt x="296" y="816" on="1"/>
      </contour>
    </TTGlyph>
    <TTGlyph name="Iinvertedbreve.sc" xMin="-30" yMin="0" xMax="273" yMax="761">
      <contour>
        <pt x="70" y="577" on="1"/>
        <pt x="168" y="577" on="1"/>
        <pt x="168" y="0" on="1"/>
        <pt x="70" y="0" on="1"/>
      </contour>
      <contour>
        <pt x="203" y="635" on="1"/>
        <pt x="203" y="673" on="0"/>
        <pt x="164" y="711" on="0"/>
        <pt x="121" y="711" on="1"/>
        <pt x="39" y="711" on="0"/>
        <pt x="39" y="635" on="1"/>
        <pt x="-30" y="635" on="1"/>
        <pt x="-30" y="693" on="0"/>
        <pt x="45" y="761" on="0"/>
        <pt x="121" y="761" on="1"/>
        <pt x="196" y="761" on="0"/>
        <pt x="273" y="693" on="0"/>
        <pt x="273" y="635" on="1"/>
      </contour>
    </TTGlyph>
    <TTGlyph name="Imacron" xMin="-20" yMin="0" xMax="268" yMax="913">
      <contour>
        <pt x="74" y="740" on="1"/>
        <pt x="177" y="740" on="1"/>
        <pt x="177" y="0" on="1"/>
        <pt x="74" y="0" on="1"/>
      </contour>
      <contour>
        <pt x="-20" y="913" on="1"/>
        <pt x="268" y="913" on="1"/>
        <pt x="268" y="840" on="1"/>
        <pt x="-20" y="840" on="1"/>
      </contour>
    </TTGlyph>
    <TTGlyph name="Imacron.sc" xMin="-13" yMin="0" xMax="249" yMax="722">
      <contour>
        <pt x="70" y="577" on="1"/>
        <pt x="168" y="577" on="1"/>
        <pt x="168" y="0" on="1"/>
        <pt x="70" y="0" on="1"/>
      </contour>
      <contour>
        <pt x="-13" y="722" on="1"/>
        <pt x="249" y="722" on="1"/>
        <pt x="249" y="655" on="1"/>
        <pt x="-13" y="655" on="1"/>
      </contour>
    </TTGlyph>
    <TTGlyph name="Iogonek" xMin="2" yMin="-220" xMax="177" yMax="740">
      <contour>
        <pt x="74" y="740" on="1"/>
        <pt x="177" y="740" on="1"/>
        <pt x="177" y="-14" on="1"/>
        <pt x="123" y="-37" on="0"/>
        <pt x="73" y="-94" on="0"/>
        <pt x="73" y="-122" on="1"/>
        <pt x="73" y="-156" on="0"/>
        <pt x="116" y="-156" on="1"/>
        <pt x="147" y="-156" on="0"/>
        <pt x="177" y="-145" on="1"/>
        <pt x="177" y="-208" on="1"/>
        <pt x="144" y="-220" on="0"/>
        <pt x="109" y="-220" on="1"/>
        <pt x="2" y="-220" on="0"/>
        <pt x="2" y="-130" on="1"/>
        <pt x="2" y="-93" on="0"/>
        <pt x="46" y="-30" on="0"/>
        <pt x="94" y="0" on="1"/>
        <pt x="74" y="0" on="1"/>
      </contour>
    </TTGlyph>
    <TTGlyph name="Iogonek.sc" xMin="10" yMin="-172" xMax="168" yMax="577">
      <contour>
        <pt x="71" y="577" on="1"/>
        <pt x="168" y="577" on="1"/>
        <pt x="168" y="-9" on="1"/>
        <pt x="119" y="-28" on="0"/>
        <pt x="76" y="-70" on="0"/>
        <pt x="76" y="-90" on="1"/>
        <pt x="76" y="-114" on="0"/>
        <pt x="113" y="-114" on="1"/>
        <pt x="126" y="-114" on="0"/>
        <pt x="157" y="-109" on="0"/>
        <pt x="168" y="-105" on="1"/>
        <pt x="168" y="-162" on="1"/>
        <pt x="153" y="-167" on="0"/>
        <pt x="123" y="-172" on="0"/>
        <pt x="106" y="-172" on="1"/>
        <pt x="10" y="-172" on="0"/>
        <pt x="10" y="-100" on="1"/>
        <pt x="10" y="-71" on="0"/>
        <pt x="46" y="-24" on="0"/>
        <pt x="87" y="0" on="1"/>
        <pt x="71" y="0" on="1"/>
      </contour>
    </TTGlyph>
    <TTGlyph name="Itilde" xMin="-48" yMin="0" xMax="315" yMax="933">
      <contour>
        <pt x="74" y="740" on="1"/>
        <pt x="177" y="740" on="1"/>
        <pt x="177" y="0" on="1"/>
        <pt x="74" y="0" on="1"/>
      </contour>
      <contour>
        <pt x="-48" y="849" on="1"/>
        <pt x="-24" y="888" on="0"/>
        <pt x="39" y="933" on="0"/>
        <pt x="70" y="933" on="1"/>
        <pt x="91" y="933" on="0"/>
        <pt x="128" y="920" on="0"/>
        <pt x="164" y="904" on="0"/>
        <pt x="199" y="891" on="0"/>
        <pt x="218" y="891" on="1"/>
        <pt x="256" y="891" on="0"/>
        <pt x="290" y="931" on="1"/>
        <pt x="315" y="907" on="1"/>
        <pt x="294" y="865" on="0"/>
        <pt x="230" y="822" on="0"/>
        <pt x="198" y="822" on="1"/>
        <pt x="178" y="822" on="0"/>
        <pt x="141" y="834" on="0"/>
        <pt x="105" y="849" on="0"/>
        <pt x="70" y="862" on="0"/>
        <pt x="51" y="862" on="1"/>
        <pt x="13" y="862" on="0"/>
        <pt x="-25" y="824" on="1"/>
      </contour>
    </TTGlyph>
    <TTGlyph name="Itilde.sc" xMin="-37" yMin="0" xMax="290" yMax="736">
      <contour>
        <pt x="70" y="577" on="1"/>
        <pt x="168" y="577" on="1"/>
        <pt x="168" y="0" on="1"/>
        <pt x="70" y="0" on="1"/>
      </contour>
      <contour>
        <pt x="-37" y="662" on="1"/>
        <pt x="-15" y="697" on="0"/>
        <pt x="41" y="736" on="0"/>
        <pt x="70" y="736" on="1"/>
        <pt x="89" y="736" on="0"/>
        <pt x="122" y="726" on="0"/>
        <pt x="154" y="715" on="0"/>
        <pt x="186" y="705" on="0"/>
        <pt x="204" y="705" on="1"/>
        <pt x="238" y="705" on="0"/>
        <pt x="269" y="735" on="1"/>
        <pt x="290" y="716" on="1"/>
        <pt x="270" y="679" on="0"/>
        <pt x="212" y="640" on="0"/>
        <pt x="183" y="640" on="1"/>
        <pt x="165" y="640" on="0"/>
        <pt x="132" y="650" on="0"/>
        <pt x="100" y="662" on="0"/>
        <pt x="67" y="672" on="0"/>
        <pt x="50" y="672" on="1"/>
        <pt x="33" y="672" on="0"/>
        <pt x="0" y="658" on="0"/>
        <pt x="-17" y="642" on="1"/>
      </contour>
    </TTGlyph>
    <TTGlyph name="J" xMin="-4" yMin="-192" xMax="179" yMax="740">
      <contour>
        <pt x="-4" y="-159" on="1"/>
        <pt x="20" y="-108" on="0"/>
        <pt x="51" y="-25" on="0"/>
        <pt x="69" y="54" on="0"/>
        <pt x="76" y="136" on="0"/>
        <pt x="76" y="187" on="1"/>
        <pt x="76" y="740" on="1"/>
        <pt x="179" y="740" on="1"/>
        <pt x="179" y="180" on="1"/>
        <pt x="179" y="131" on="0"/>
        <pt x="166" y="41" on="0"/>
        <pt x="139" y="-47" on="0"/>
        <pt x="94" y="-140" on="0"/>
        <pt x="63" y="-192" on="1"/>
      </contour>
    </TTGlyph>
    <TTGlyph name="J.sc" xMin="3" yMin="-154" xMax="170" yMax="577">
      <contour>
        <pt x="3" y="-124" on="1"/>
        <pt x="23" y="-84" on="0"/>
        <pt x="50" y="-19" on="0"/>
        <pt x="66" y="43" on="0"/>
        <pt x="72" y="108" on="0"/>
        <pt x="72" y="148" on="1"/>
        <pt x="72" y="577" on="1"/>
        <pt x="170" y="577" on="1"/>
        <pt x="170" y="141" on="1"/>
        <pt x="170" y="102" on="0"/>
        <pt x="159" y="31" on="0"/>
        <pt x="135" y="-39" on="0"/>
        <pt x="95" y="-112" on="0"/>
        <pt x="67" y="-154" on="1"/>
      </contour>
    </TTGlyph>
    <TTGlyph name="Jcircumflex" xMin="-25" yMin="-192" xMax="279" yMax="957">
      <contour>
        <pt x="-4" y="-159" on="1"/>
        <pt x="20" y="-108" on="0"/>
        <pt x="51" y="-25" on="0"/>
        <pt x="69" y="54" on="0"/>
        <pt x="76" y="136" on="0"/>
        <pt x="76" y="187" on="1"/>
        <pt x="76" y="740" on="1"/>
        <pt x="179" y="740" on="1"/>
        <pt x="179" y="180" on="1"/>
        <pt x="179" y="131" on="0"/>
        <pt x="166" y="41" on="0"/>
        <pt x="139" y="-47" on="0"/>
        <pt x="94" y="-140" on="0"/>
        <pt x="63" y="-192" on="1"/>
      </contour>
      <contour>
        <pt x="-25" y="884" on="1"/>
        <pt x="127" y="957" on="1"/>
        <pt x="279" y="884" on="1"/>
        <pt x="279" y="807" on="1"/>
        <pt x="127" y="880" on="1"/>
        <pt x="-25" y="807" on="1"/>
      </contour>
    </TTGlyph>
    <TTGlyph name="Jcircumflex.sc" xMin="-16" yMin="-154" xMax="258" yMax="753">
      <contour>
        <pt x="4" y="-124" on="1"/>
        <pt x="24" y="-84" on="0"/>
        <pt x="50" y="-19" on="0"/>
        <pt x="66" y="43" on="0"/>
        <pt x="72" y="108" on="0"/>
        <pt x="72" y="148" on="1"/>
        <pt x="72" y="577" on="1"/>
        <pt x="170" y="577" on="1"/>
        <pt x="170" y="141" on="1"/>
        <pt x="170" y="102" on="0"/>
        <pt x="159" y="31" on="0"/>
        <pt x="135" y="-39" on="0"/>
        <pt x="95" y="-112" on="0"/>
        <pt x="67" y="-154" on="1"/>
      </contour>
      <contour>
        <pt x="-16" y="696" on="1"/>
        <pt x="122" y="753" on="1"/>
        <pt x="258" y="696" on="1"/>
        <pt x="258" y="626" on="1"/>
        <pt x="122" y="683" on="1"/>
        <pt x="-16" y="626" on="1"/>
      </contour>
    </TTGlyph>
    <TTGlyph name="K" xMin="74" yMin="0" xMax="613" yMax="740">
      <contour>
        <pt x="74" y="740" on="1"/>
        <pt x="177" y="740" on="1"/>
        <pt x="177" y="420" on="1"/>
        <pt x="275" y="420" on="1"/>
        <pt x="477" y="740" on="1"/>
        <pt x="594" y="740" on="1"/>
        <pt x="381" y="408" on="1"/>
        <pt x="344" y="382" on="1"/>
        <pt x="344" y="376" on="1"/>
        <pt x="383" y="351" on="1"/>
        <pt x="613" y="0" on="1"/>
        <pt x="497" y="0" on="1"/>
        <pt x="278" y="333" on="1"/>
        <pt x="177" y="333" on="1"/>
        <pt x="177" y="0" on="1"/>
        <pt x="74" y="0" on="1"/>
      </contour>
    </TTGlyph>
    <TTGlyph name="K.sc" xMin="70" yMin="0" xMax="553" yMax="577">
      <contour>
        <pt x="70" y="577" on="1"/>
        <pt x="168" y="577" on="1"/>
        <pt x="168" y="334" on="1"/>
        <pt x="254" y="334" on="1"/>
        <pt x="425" y="577" on="1"/>
        <pt x="536" y="577" on="1"/>
        <pt x="355" y="319" on="1"/>
        <pt x="316" y="298" on="1"/>
        <pt x="316" y="293" on="1"/>
        <pt x="356" y="274" on="1"/>
        <pt x="553" y="0" on="1"/>
        <pt x="443" y="0" on="1"/>
        <pt x="258" y="253" on="1"/>
        <pt x="168" y="253" on="1"/>
        <pt x="168" y="0" on="1"/>
        <pt x="70" y="0" on="1"/>
      </contour>
    </TTGlyph>
    <TTGlyph name="Kcommaaccent" xMin="74" yMin="-220" xMax="613" yMax="740">
      <contour>
        <pt x="265" y="-68" on="1"/>
        <pt x="369" y="-68" on="1"/>
        <pt x="298" y="-220" on="1"/>
        <pt x="218" y="-220" on="1"/>
      </contour>
      <contour>
        <pt x="74" y="740" on="1"/>
        <pt x="177" y="740" on="1"/>
        <pt x="177" y="420" on="1"/>
        <pt x="275" y="420" on="1"/>
        <pt x="477" y="740" on="1"/>
        <pt x="594" y="740" on="1"/>
        <pt x="381" y="408" on="1"/>
        <pt x="344" y="382" on="1"/>
        <pt x="344" y="376" on="1"/>
        <pt x="383" y="351" on="1"/>
        <pt x="613" y="0" on="1"/>
        <pt x="497" y="0" on="1"/>
        <pt x="278" y="333" on="1"/>
        <pt x="177" y="333" on="1"/>
        <pt x="177" y="0" on="1"/>
        <pt x="74" y="0" on="1"/>
      </contour>
    </TTGlyph>
    <TTGlyph name="Kcommaaccent.sc" xMin="70" yMin="-172" xMax="553" yMax="577">
      <contour>
        <pt x="70" y="577" on="1"/>
        <pt x="168" y="577" on="1"/>
        <pt x="168" y="334" on="1"/>
        <pt x="254" y="334" on="1"/>
        <pt x="425" y="577" on="1"/>
        <pt x="536" y="577" on="1"/>
        <pt x="355" y="319" on="1"/>
        <pt x="316" y="298" on="1"/>
        <pt x="316" y="293" on="1"/>
        <pt x="356" y="274" on="1"/>
        <pt x="553" y="0" on="1"/>
        <pt x="443" y="0" on="1"/>
        <pt x="258" y="253" on="1"/>
        <pt x="168" y="253" on="1"/>
        <pt x="168" y="0" on="1"/>
        <pt x="70" y="0" on="1"/>
      </contour>
      <contour>
        <pt x="242" y="-54" on="1"/>
        <pt x="342" y="-54" on="1"/>
        <pt x="279" y="-172" on="1"/>
        <pt x="203" y="-172" on="1"/>
      </contour>
    </TTGlyph>
    <TTGlyph name="L" xMin="74" yMin="0" xMax="450" yMax="740">
      <contour>
        <pt x="74" y="740" on="1"/>
        <pt x="177" y="740" on="1"/>
        <pt x="177" y="87" on="1"/>
        <pt x="450" y="87" on="1"/>
        <pt x="450" y="0" on="1"/>
        <pt x="74" y="0" on="1"/>
      </contour>
    </TTGlyph>
    <TTGlyph name="L.sc" xMin="70" yMin="0" xMax="411" yMax="577">
      <contour>
        <pt x="70" y="577" on="1"/>
        <pt x="168" y="577" on="1"/>
        <pt x="168" y="81" on="1"/>
        <pt x="411" y="81" on="1"/>
        <pt x="411" y="0" on="1"/>
        <pt x="70" y="0" on="1"/>
      </contour>
    </TTGlyph>
    <TTGlyph name="Lacute" xMin="74" yMin="0" xMax="450" yMax="946">
      <contour>
        <pt x="92" y="797" on="1"/>
        <pt x="164" y="946" on="1"/>
        <pt x="269" y="946" on="1"/>
        <pt x="168" y="791" on="1"/>
      </contour>
      <contour>
        <pt x="74" y="740" on="1"/>
        <pt x="177" y="740" on="1"/>
        <pt x="177" y="87" on="1"/>
        <pt x="450" y="87" on="1"/>
        <pt x="450" y="0" on="1"/>
        <pt x="74" y="0" on="1"/>
      </contour>
    </TTGlyph>
    <TTGlyph name="Lacute.sc" xMin="70" yMin="0" xMax="411" yMax="747">
      <contour>
        <pt x="70" y="577" on="1"/>
        <pt x="168" y="577" on="1"/>
        <pt x="168" y="81" on="1"/>
        <pt x="411" y="81" on="1"/>
        <pt x="411" y="0" on="1"/>
        <pt x="70" y="0" on="1"/>
      </contour>
      <contour>
        <pt x="87" y="624" on="1"/>
        <pt x="149" y="747" on="1"/>
        <pt x="249" y="747" on="1"/>
        <pt x="159" y="619" on="1"/>
      </contour>
    </TTGlyph>
    <TTGlyph name="Lcaron" xMin="74" yMin="0" xMax="450" yMax="767">
      <contour>
        <pt x="359" y="767" on="1"/>
        <pt x="442" y="767" on="1"/>
        <pt x="411" y="539" on="1"/>
        <pt x="359" y="539" on="1"/>
      </contour>
      <contour>
        <pt x="74" y="740" on="1"/>
        <pt x="177" y="740" on="1"/>
        <pt x="177" y="87" on="1"/>
        <pt x="450" y="87" on="1"/>
        <pt x="450" y="0" on="1"/>
        <pt x="74" y="0" on="1"/>
      </contour>
    </TTGlyph>
    <TTGlyph name="Lcaron.sc" xMin="71" yMin="0" xMax="411" yMax="605">
      <contour>
        <pt x="71" y="577" on="1"/>
        <pt x="168" y="577" on="1"/>
        <pt x="168" y="81" on="1"/>
        <pt x="411" y="81" on="1"/>
        <pt x="411" y="0" on="1"/>
        <pt x="71" y="0" on="1"/>
      </contour>
      <contour>
        <pt x="326" y="605" on="1"/>
        <pt x="405" y="605" on="1"/>
        <pt x="376" y="428" on="1"/>
        <pt x="326" y="428" on="1"/>
      </contour>
    </TTGlyph>
    <TTGlyph name="Lcommaaccent" xMin="74" yMin="-220" xMax="450" yMax="740">
      <contour>
        <pt x="217" y="-68" on="1"/>
        <pt x="321" y="-68" on="1"/>
        <pt x="250" y="-220" on="1"/>
        <pt x="170" y="-220" on="1"/>
      </contour>
      <contour>
        <pt x="74" y="740" on="1"/>
        <pt x="177" y="740" on="1"/>
        <pt x="177" y="87" on="1"/>
        <pt x="450" y="87" on="1"/>
        <pt x="450" y="0" on="1"/>
        <pt x="74" y="0" on="1"/>
      </contour>
    </TTGlyph>
    <TTGlyph name="Lcommaaccent.sc" xMin="70" yMin="-172" xMax="411" yMax="577">
      <contour>
        <pt x="70" y="577" on="1"/>
        <pt x="168" y="577" on="1"/>
        <pt x="168" y="81" on="1"/>
        <pt x="411" y="81" on="1"/>
        <pt x="411" y="0" on="1"/>
        <pt x="70" y="0" on="1"/>
      </contour>
      <contour>
        <pt x="195" y="-54" on="1"/>
        <pt x="293" y="-54" on="1"/>
        <pt x="231" y="-172" on="1"/>
        <pt x="155" y="-172" on="1"/>
      </contour>
    </TTGlyph>
    <TTGlyph name="Ldot" xMin="74" yMin="0" xMax="450" yMax="740">
      <contour>
        <pt x="74" y="740" on="1"/>
        <pt x="177" y="740" on="1"/>
        <pt x="177" y="87" on="1"/>
        <pt x="450" y="87" on="1"/>
        <pt x="450" y="0" on="1"/>
        <pt x="74" y="0" on="1"/>
      </contour>
      <contour>
        <pt x="368" y="313" on="1"/>
        <pt x="337" y="313" on="0"/>
        <pt x="307" y="341" on="0"/>
        <pt x="307" y="373" on="1"/>
        <pt x="307" y="405" on="0"/>
        <pt x="337" y="434" on="0"/>
        <pt x="368" y="434" on="1"/>
        <pt x="429" y="434" on="0"/>
        <pt x="429" y="373" on="1"/>
        <pt x="429" y="341" on="0"/>
        <pt x="398" y="313" on="0"/>
      </contour>
    </TTGlyph>
    <TTGlyph name="Ldot.sc" xMin="70" yMin="0" xMax="411" yMax="577">
      <contour>
        <pt x="70" y="577" on="1"/>
        <pt x="168" y="577" on="1"/>
        <pt x="168" y="81" on="1"/>
        <pt x="411" y="81" on="1"/>
        <pt x="411" y="0" on="1"/>
        <pt x="70" y="0" on="1"/>
      </contour>
      <contour>
        <pt x="339" y="238" on="1"/>
        <pt x="282" y="238" on="0"/>
        <pt x="282" y="293" on="1"/>
        <pt x="282" y="348" on="0"/>
        <pt x="339" y="348" on="1"/>
        <pt x="368" y="348" on="0"/>
        <pt x="397" y="322" on="0"/>
        <pt x="397" y="293" on="1"/>
        <pt x="397" y="238" on="0"/>
      </contour>
    </TTGlyph>
    <TTGlyph name="Lslash" xMin="12" yMin="0" xMax="471" yMax="740">
      <contour>
        <pt x="12" y="308" on="1"/>
        <pt x="95" y="365" on="1"/>
        <pt x="95" y="740" on="1"/>
        <pt x="198" y="740" on="1"/>
        <pt x="198" y="436" on="1"/>
        <pt x="315" y="517" on="1"/>
        <pt x="315" y="432" on="1"/>
        <pt x="198" y="351" on="1"/>
        <pt x="198" y="87" on="1"/>
        <pt x="471" y="87" on="1"/>
        <pt x="471" y="0" on="1"/>
        <pt x="95" y="0" on="1"/>
        <pt x="95" y="280" on="1"/>
        <pt x="12" y="223" on="1"/>
      </contour>
    </TTGlyph>
    <TTGlyph name="Lslash.sc" xMin="17" yMin="0" xMax="429" yMax="577">
      <contour>
        <pt x="17" y="251" on="1"/>
        <pt x="89" y="299" on="1"/>
        <pt x="89" y="577" on="1"/>
        <pt x="187" y="577" on="1"/>
        <pt x="187" y="346" on="1"/>
        <pt x="291" y="411" on="1"/>
        <pt x="291" y="334" on="1"/>
        <pt x="187" y="270" on="1"/>
        <pt x="187" y="81" on="1"/>
        <pt x="429" y="81" on="1"/>
        <pt x="429" y="0" on="1"/>
        <pt x="89" y="0" on="1"/>
        <pt x="89" y="221" on="1"/>
        <pt x="17" y="175" on="1"/>
      </contour>
    </TTGlyph>
    <TTGlyph name="M" xMin="74" yMin="0" xMax="786" yMax="740">
      <contour>
        <pt x="74" y="740" on="1"/>
        <pt x="216" y="740" on="1"/>
        <pt x="388" y="279" on="1"/>
        <pt x="426" y="155" on="1"/>
        <pt x="433" y="155" on="1"/>
        <pt x="471" y="279" on="1"/>
        <pt x="643" y="740" on="1"/>
        <pt x="786" y="740" on="1"/>
        <pt x="786" y="0" on="1"/>
        <pt x="689" y="0" on="1"/>
        <pt x="689" y="599" on="1"/>
        <pt x="684" y="599" on="1"/>
        <pt x="635" y="457" on="1"/>
        <pt x="475" y="33" on="1"/>
        <pt x="383" y="33" on="1"/>
        <pt x="223" y="457" on="1"/>
        <pt x="174" y="599" on="1"/>
        <pt x="169" y="599" on="1"/>
        <pt x="169" y="0" on="1"/>
        <pt x="74" y="0" on="1"/>
      </contour>
    </TTGlyph>
    <TTGlyph name="M.sc" xMin="70" yMin="0" xMax="706" yMax="577">
      <contour>
        <pt x="70" y="577" on="1"/>
        <pt x="204" y="577" on="1"/>
        <pt x="351" y="233" on="1"/>
        <pt x="385" y="142" on="1"/>
        <pt x="391" y="142" on="1"/>
        <pt x="425" y="233" on="1"/>
        <pt x="572" y="577" on="1"/>
        <pt x="706" y="577" on="1"/>
        <pt x="706" y="0" on="1"/>
        <pt x="615" y="0" on="1"/>
        <pt x="615" y="455" on="1"/>
        <pt x="610" y="455" on="1"/>
        <pt x="561" y="334" on="1"/>
        <pt x="431" y="26" on="1"/>
        <pt x="345" y="26" on="1"/>
        <pt x="215" y="334" on="1"/>
        <pt x="166" y="455" on="1"/>
        <pt x="161" y="455" on="1"/>
        <pt x="161" y="0" on="1"/>
        <pt x="70" y="0" on="1"/>
      </contour>
    </TTGlyph>
    <TTGlyph name="N" xMin="74" yMin="0" xMax="629" yMax="740">
      <contour>
        <pt x="74" y="740" on="1"/>
        <pt x="164" y="740" on="1"/>
        <pt x="482" y="255" on="1"/>
        <pt x="529" y="172" on="1"/>
        <pt x="536" y="172" on="1"/>
        <pt x="536" y="740" on="1"/>
        <pt x="629" y="740" on="1"/>
        <pt x="629" y="0" on="1"/>
        <pt x="539" y="0" on="1"/>
        <pt x="222" y="483" on="1"/>
        <pt x="174" y="569" on="1"/>
        <pt x="166" y="568" on="1"/>
        <pt x="166" y="0" on="1"/>
        <pt x="74" y="0" on="1"/>
      </contour>
    </TTGlyph>
    <TTGlyph name="N.sc" xMin="70" yMin="0" xMax="562" yMax="577">
      <contour>
        <pt x="70" y="577" on="1"/>
        <pt x="153" y="577" on="1"/>
        <pt x="422" y="219" on="1"/>
        <pt x="468" y="152" on="1"/>
        <pt x="473" y="153" on="1"/>
        <pt x="473" y="577" on="1"/>
        <pt x="562" y="577" on="1"/>
        <pt x="562" y="0" on="1"/>
        <pt x="480" y="0" on="1"/>
        <pt x="212" y="358" on="1"/>
        <pt x="165" y="425" on="1"/>
        <pt x="159" y="425" on="1"/>
        <pt x="159" y="0" on="1"/>
        <pt x="70" y="0" on="1"/>
      </contour>
    </TTGlyph>
    <TTGlyph name="Nacute" xMin="74" yMin="0" xMax="629" yMax="946">
      <contour>
        <pt x="304" y="797" on="1"/>
        <pt x="376" y="946" on="1"/>
        <pt x="481" y="946" on="1"/>
        <pt x="380" y="791" on="1"/>
      </contour>
      <contour>
        <pt x="74" y="740" on="1"/>
        <pt x="164" y="740" on="1"/>
        <pt x="482" y="255" on="1"/>
        <pt x="529" y="172" on="1"/>
        <pt x="536" y="172" on="1"/>
        <pt x="536" y="740" on="1"/>
        <pt x="629" y="740" on="1"/>
        <pt x="629" y="0" on="1"/>
        <pt x="539" y="0" on="1"/>
        <pt x="222" y="483" on="1"/>
        <pt x="174" y="569" on="1"/>
        <pt x="166" y="568" on="1"/>
        <pt x="166" y="0" on="1"/>
        <pt x="74" y="0" on="1"/>
      </contour>
    </TTGlyph>
    <TTGlyph name="Nacute.sc" xMin="70" yMin="0" xMax="562" yMax="747">
      <contour>
        <pt x="70" y="577" on="1"/>
        <pt x="153" y="577" on="1"/>
        <pt x="422" y="219" on="1"/>
        <pt x="468" y="152" on="1"/>
        <pt x="473" y="153" on="1"/>
        <pt x="473" y="577" on="1"/>
        <pt x="562" y="577" on="1"/>
        <pt x="562" y="0" on="1"/>
        <pt x="480" y="0" on="1"/>
        <pt x="212" y="358" on="1"/>
        <pt x="165" y="425" on="1"/>
        <pt x="159" y="425" on="1"/>
        <pt x="159" y="0" on="1"/>
        <pt x="70" y="0" on="1"/>
      </contour>
      <contour>
        <pt x="271" y="624" on="1"/>
        <pt x="334" y="747" on="1"/>
        <pt x="433" y="747" on="1"/>
        <pt x="343" y="619" on="1"/>
      </contour>
    </TTGlyph>
    <TTGlyph name="Ncaron" xMin="74" yMin="0" xMax="629" yMax="948">
      <contour>
        <pt x="203" y="948" on="1"/>
        <pt x="355" y="875" on="1"/>
        <pt x="507" y="948" on="1"/>
        <pt x="507" y="871" on="1"/>
        <pt x="355" y="798" on="1"/>
        <pt x="203" y="871" on="1"/>
      </contour>
      <contour>
        <pt x="74" y="740" on="1"/>
        <pt x="164" y="740" on="1"/>
        <pt x="482" y="255" on="1"/>
        <pt x="529" y="172" on="1"/>
        <pt x="536" y="172" on="1"/>
        <pt x="536" y="740" on="1"/>
        <pt x="629" y="740" on="1"/>
        <pt x="629" y="0" on="1"/>
        <pt x="539" y="0" on="1"/>
        <pt x="222" y="483" on="1"/>
        <pt x="174" y="569" on="1"/>
        <pt x="166" y="568" on="1"/>
        <pt x="166" y="0" on="1"/>
        <pt x="74" y="0" on="1"/>
      </contour>
    </TTGlyph>
    <TTGlyph name="Ncaron.sc" xMin="70" yMin="0" xMax="562" yMax="748">
      <contour>
        <pt x="70" y="577" on="1"/>
        <pt x="153" y="577" on="1"/>
        <pt x="422" y="219" on="1"/>
        <pt x="468" y="152" on="1"/>
        <pt x="473" y="153" on="1"/>
        <pt x="473" y="577" on="1"/>
        <pt x="562" y="577" on="1"/>
        <pt x="562" y="0" on="1"/>
        <pt x="480" y="0" on="1"/>
        <pt x="212" y="358" on="1"/>
        <pt x="165" y="425" on="1"/>
        <pt x="159" y="425" on="1"/>
        <pt x="159" y="0" on="1"/>
        <pt x="70" y="0" on="1"/>
      </contour>
      <contour>
        <pt x="182" y="679" on="1"/>
        <pt x="182" y="748" on="1"/>
        <pt x="320" y="691" on="1"/>
        <pt x="457" y="748" on="1"/>
        <pt x="457" y="679" on="1"/>
        <pt x="320" y="621" on="1"/>
      </contour>
    </TTGlyph>
    <TTGlyph name="Ncommaaccent" xMin="74" yMin="-220" xMax="629" yMax="740">
      <contour>
        <pt x="321" y="-68" on="1"/>
        <pt x="425" y="-68" on="1"/>
        <pt x="354" y="-220" on="1"/>
        <pt x="274" y="-220" on="1"/>
      </contour>
      <contour>
        <pt x="74" y="740" on="1"/>
        <pt x="164" y="740" on="1"/>
        <pt x="482" y="255" on="1"/>
        <pt x="529" y="172" on="1"/>
        <pt x="536" y="172" on="1"/>
        <pt x="536" y="740" on="1"/>
        <pt x="629" y="740" on="1"/>
        <pt x="629" y="0" on="1"/>
        <pt x="539" y="0" on="1"/>
        <pt x="222" y="483" on="1"/>
        <pt x="174" y="569" on="1"/>
        <pt x="166" y="568" on="1"/>
        <pt x="166" y="0" on="1"/>
        <pt x="74" y="0" on="1"/>
      </contour>
    </TTGlyph>
    <TTGlyph name="Ncommaaccent.sc" xMin="70" yMin="-172" xMax="562" yMax="577">
      <contour>
        <pt x="70" y="577" on="1"/>
        <pt x="153" y="577" on="1"/>
        <pt x="422" y="219" on="1"/>
        <pt x="468" y="152" on="1"/>
        <pt x="473" y="153" on="1"/>
        <pt x="473" y="577" on="1"/>
        <pt x="562" y="577" on="1"/>
        <pt x="562" y="0" on="1"/>
        <pt x="480" y="0" on="1"/>
        <pt x="212" y="358" on="1"/>
        <pt x="165" y="425" on="1"/>
        <pt x="159" y="425" on="1"/>
        <pt x="159" y="0" on="1"/>
        <pt x="70" y="0" on="1"/>
      </contour>
      <contour>
        <pt x="284" y="-54" on="1"/>
        <pt x="383" y="-54" on="1"/>
        <pt x="320" y="-172" on="1"/>
        <pt x="243" y="-172" on="1"/>
      </contour>
    </TTGlyph>
    <TTGlyph name="Ndotaccent" xMin="74" yMin="0" xMax="629" yMax="923">
      <contour>
        <pt x="351" y="803" on="1"/>
        <pt x="290" y="803" on="0"/>
        <pt x="290" y="862" on="1"/>
        <pt x="290" y="894" on="0"/>
        <pt x="320" y="923" on="0"/>
        <pt x="351" y="923" on="1"/>
        <pt x="413" y="923" on="0"/>
        <pt x="413" y="862" on="1"/>
        <pt x="413" y="803" on="0"/>
      </contour>
      <contour>
        <pt x="74" y="740" on="1"/>
        <pt x="164" y="740" on="1"/>
        <pt x="482" y="255" on="1"/>
        <pt x="529" y="172" on="1"/>
        <pt x="536" y="172" on="1"/>
        <pt x="536" y="740" on="1"/>
        <pt x="629" y="740" on="1"/>
        <pt x="629" y="0" on="1"/>
        <pt x="539" y="0" on="1"/>
        <pt x="222" y="483" on="1"/>
        <pt x="174" y="569" on="1"/>
        <pt x="166" y="568" on="1"/>
        <pt x="166" y="0" on="1"/>
        <pt x="74" y="0" on="1"/>
      </contour>
    </TTGlyph>
    <TTGlyph name="Ndotaccent.sc" xMin="70" yMin="0" xMax="562" yMax="735">
      <contour>
        <pt x="70" y="577" on="1"/>
        <pt x="153" y="577" on="1"/>
        <pt x="422" y="219" on="1"/>
        <pt x="468" y="152" on="1"/>
        <pt x="473" y="153" on="1"/>
        <pt x="473" y="577" on="1"/>
        <pt x="562" y="577" on="1"/>
        <pt x="562" y="0" on="1"/>
        <pt x="480" y="0" on="1"/>
        <pt x="212" y="358" on="1"/>
        <pt x="165" y="425" on="1"/>
        <pt x="159" y="425" on="1"/>
        <pt x="159" y="0" on="1"/>
        <pt x="70" y="0" on="1"/>
      </contour>
      <contour>
        <pt x="316" y="625" on="1"/>
        <pt x="258" y="625" on="0"/>
        <pt x="258" y="681" on="1"/>
        <pt x="258" y="710" on="0"/>
        <pt x="287" y="735" on="0"/>
        <pt x="316" y="735" on="1"/>
        <pt x="345" y="735" on="0"/>
        <pt x="373" y="710" on="0"/>
        <pt x="373" y="681" on="1"/>
        <pt x="373" y="625" on="0"/>
      </contour>
    </TTGlyph>
    <TTGlyph name="Ntilde" xMin="74" yMin="0" xMax="629" yMax="933">
      <contour>
        <pt x="176" y="849" on="1"/>
        <pt x="200" y="888" on="0"/>
        <pt x="263" y="933" on="0"/>
        <pt x="294" y="933" on="1"/>
        <pt x="315" y="933" on="0"/>
        <pt x="352" y="920" on="0"/>
        <pt x="388" y="904" on="0"/>
        <pt x="423" y="891" on="0"/>
        <pt x="442" y="891" on="1"/>
        <pt x="480" y="891" on="0"/>
        <pt x="514" y="931" on="1"/>
        <pt x="539" y="907" on="1"/>
        <pt x="518" y="865" on="0"/>
        <pt x="454" y="822" on="0"/>
        <pt x="422" y="822" on="1"/>
        <pt x="402" y="822" on="0"/>
        <pt x="365" y="834" on="0"/>
        <pt x="329" y="849" on="0"/>
        <pt x="294" y="862" on="0"/>
        <pt x="275" y="862" on="1"/>
        <pt x="237" y="862" on="0"/>
        <pt x="199" y="824" on="1"/>
      </contour>
      <contour>
        <pt x="74" y="740" on="1"/>
        <pt x="164" y="740" on="1"/>
        <pt x="482" y="255" on="1"/>
        <pt x="529" y="172" on="1"/>
        <pt x="536" y="172" on="1"/>
        <pt x="536" y="740" on="1"/>
        <pt x="629" y="740" on="1"/>
        <pt x="629" y="0" on="1"/>
        <pt x="539" y="0" on="1"/>
        <pt x="222" y="483" on="1"/>
        <pt x="174" y="569" on="1"/>
        <pt x="166" y="568" on="1"/>
        <pt x="166" y="0" on="1"/>
        <pt x="74" y="0" on="1"/>
      </contour>
    </TTGlyph>
    <TTGlyph name="Ntilde.sc" xMin="70" yMin="0" xMax="562" yMax="736">
      <contour>
        <pt x="158" y="662" on="1"/>
        <pt x="179" y="697" on="0"/>
        <pt x="237" y="736" on="0"/>
        <pt x="266" y="736" on="1"/>
        <pt x="284" y="736" on="0"/>
        <pt x="317" y="726" on="0"/>
        <pt x="349" y="715" on="0"/>
        <pt x="381" y="705" on="0"/>
        <pt x="399" y="705" on="1"/>
        <pt x="433" y="705" on="0"/>
        <pt x="464" y="735" on="1"/>
        <pt x="485" y="716" on="1"/>
        <pt x="465" y="679" on="0"/>
        <pt x="408" y="640" on="0"/>
        <pt x="379" y="640" on="1"/>
        <pt x="361" y="640" on="0"/>
        <pt x="327" y="650" on="0"/>
        <pt x="295" y="662" on="0"/>
        <pt x="263" y="672" on="0"/>
        <pt x="246" y="672" on="1"/>
        <pt x="211" y="672" on="0"/>
        <pt x="178" y="642" on="1"/>
      </contour>
      <contour>
        <pt x="70" y="577" on="1"/>
        <pt x="153" y="577" on="1"/>
        <pt x="422" y="219" on="1"/>
        <pt x="468" y="152" on="1"/>
        <pt x="473" y="153" on="1"/>
        <pt x="473" y="577" on="1"/>
        <pt x="562" y="577" on="1"/>
        <pt x="562" y="0" on="1"/>
        <pt x="480" y="0" on="1"/>
        <pt x="212" y="358" on="1"/>
        <pt x="165" y="425" on="1"/>
        <pt x="159" y="425" on="1"/>
        <pt x="159" y="0" on="1"/>
        <pt x="70" y="0" on="1"/>
      </contour>
    </TTGlyph>
    <TTGlyph name="O" xMin="42" yMin="-10" xMax="629" yMax="750">
      <contour>
        <pt x="335" y="-10" on="1"/>
        <pt x="42" y="-10" on="0"/>
        <pt x="42" y="369" on="1"/>
        <pt x="42" y="750" on="0"/>
        <pt x="335" y="750" on="1"/>
        <pt x="481" y="750" on="0"/>
        <pt x="629" y="561" on="0"/>
        <pt x="629" y="369" on="1"/>
        <pt x="629" y="179" on="0"/>
        <pt x="481" y="-10" on="0"/>
      </contour>
      <contour>
        <pt x="335" y="77" on="1"/>
        <pt x="384" y="77" on="0"/>
        <pt x="456" y="110" on="0"/>
        <pt x="502" y="181" on="0"/>
        <pt x="524" y="292" on="0"/>
        <pt x="524" y="369" on="1"/>
        <pt x="524" y="524" on="0"/>
        <pt x="434" y="663" on="0"/>
        <pt x="335" y="663" on="1"/>
        <pt x="237" y="663" on="0"/>
        <pt x="147" y="524" on="0"/>
        <pt x="147" y="369" on="1"/>
        <pt x="147" y="292" on="0"/>
        <pt x="169" y="181" on="0"/>
        <pt x="215" y="110" on="0"/>
        <pt x="286" y="77" on="0"/>
      </contour>
    </TTGlyph>
    <TTGlyph name="O.sc" xMin="41" yMin="-8" xMax="566" yMax="585">
      <contour>
        <pt x="304" y="-8" on="1"/>
        <pt x="173" y="-8" on="0"/>
        <pt x="41" y="139" on="0"/>
        <pt x="41" y="288" on="1"/>
        <pt x="41" y="585" on="0"/>
        <pt x="304" y="585" on="1"/>
        <pt x="566" y="585" on="0"/>
        <pt x="566" y="288" on="1"/>
        <pt x="566" y="-8" on="0"/>
      </contour>
      <contour>
        <pt x="304" y="74" on="1"/>
        <pt x="389" y="74" on="0"/>
        <pt x="466" y="174" on="0"/>
        <pt x="466" y="288" on="1"/>
        <pt x="466" y="403" on="0"/>
        <pt x="389" y="504" on="0"/>
        <pt x="304" y="504" on="1"/>
        <pt x="218" y="504" on="0"/>
        <pt x="142" y="404" on="0"/>
        <pt x="142" y="288" on="1"/>
        <pt x="142" y="173" on="0"/>
        <pt x="218" y="74" on="0"/>
      </contour>
    </TTGlyph>
    <TTGlyph name="OE" xMin="42" yMin="-6" xMax="848" yMax="746">
      <contour>
        <pt x="342" y="-6" on="1"/>
        <pt x="195" y="-6" on="0"/>
        <pt x="42" y="181" on="0"/>
        <pt x="42" y="369" on="1"/>
        <pt x="42" y="558" on="0"/>
        <pt x="196" y="746" on="0"/>
        <pt x="342" y="746" on="1"/>
        <pt x="367" y="746" on="0"/>
        <pt x="419" y="743" on="0"/>
        <pt x="439" y="740" on="1"/>
        <pt x="839" y="740" on="1"/>
        <pt x="839" y="653" on="1"/>
        <pt x="540" y="653" on="1"/>
        <pt x="540" y="418" on="1"/>
        <pt x="815" y="418" on="1"/>
        <pt x="815" y="334" on="1"/>
        <pt x="540" y="334" on="1"/>
        <pt x="540" y="87" on="1"/>
        <pt x="848" y="87" on="1"/>
        <pt x="848" y="0" on="1"/>
        <pt x="439" y="0" on="1"/>
        <pt x="419" y="-3" on="0"/>
        <pt x="367" y="-6" on="0"/>
      </contour>
      <contour>
        <pt x="350" y="81" on="1"/>
        <pt x="371" y="81" on="0"/>
        <pt x="418" y="84" on="0"/>
        <pt x="437" y="87" on="1"/>
        <pt x="437" y="652" on="1"/>
        <pt x="417" y="656" on="0"/>
        <pt x="371" y="659" on="0"/>
        <pt x="349" y="659" on="1"/>
        <pt x="241" y="659" on="0"/>
        <pt x="146" y="521" on="0"/>
        <pt x="146" y="369" on="1"/>
        <pt x="146" y="292" on="0"/>
        <pt x="169" y="183" on="0"/>
        <pt x="218" y="114" on="0"/>
        <pt x="295" y="81" on="0"/>
      </contour>
    </TTGlyph>
    <TTGlyph name="OE.sc" xMin="42" yMin="-6" xMax="766" yMax="583">
      <contour>
        <pt x="309" y="-6" on="1"/>
        <pt x="178" y="-6" on="0"/>
        <pt x="42" y="141" on="0"/>
        <pt x="42" y="288" on="1"/>
        <pt x="42" y="435" on="0"/>
        <pt x="179" y="583" on="0"/>
        <pt x="309" y="583" on="1"/>
        <pt x="332" y="583" on="0"/>
        <pt x="378" y="579" on="0"/>
        <pt x="396" y="577" on="1"/>
        <pt x="758" y="577" on="1"/>
        <pt x="758" y="498" on="1"/>
        <pt x="493" y="498" on="1"/>
        <pt x="493" y="329" on="1"/>
        <pt x="738" y="329" on="1"/>
        <pt x="738" y="254" on="1"/>
        <pt x="493" y="254" on="1"/>
        <pt x="493" y="80" on="1"/>
        <pt x="766" y="80" on="1"/>
        <pt x="766" y="0" on="1"/>
        <pt x="396" y="0" on="1"/>
        <pt x="378" y="-3" on="0"/>
        <pt x="332" y="-6" on="0"/>
      </contour>
      <contour>
        <pt x="317" y="76" on="1"/>
        <pt x="337" y="76" on="0"/>
        <pt x="378" y="78" on="0"/>
        <pt x="395" y="82" on="1"/>
        <pt x="395" y="495" on="1"/>
        <pt x="377" y="498" on="0"/>
        <pt x="336" y="500" on="0"/>
        <pt x="316" y="500" on="1"/>
        <pt x="222" y="500" on="0"/>
        <pt x="140" y="401" on="0"/>
        <pt x="140" y="288" on="1"/>
        <pt x="140" y="174" on="0"/>
        <pt x="222" y="76" on="0"/>
      </contour>
    </TTGlyph>
</ttFont>
